v 0.212 0.184112 0
v 0.19 0.2578 0
v 0.168 0.329552 0
v 0.278 0.251432 0
v 0.256 0.330928 0
v 0.234 0.408488 0
v 0.344 0.301328 0
v 0.322 0.386632 0
v 0.3 0.47 0
v 0.41 0.3338 0
v 0.388 0.424912 0
v 0.366 0.514088 0
v 0.476 0.348848 0
v 0.454 0.445768 0
v 0.432 0.540752 0
v 0.542 0.346472 0
v 0.52 0.4492 0
v 0.498 0.549992 0
v 0.608 0.326672 0
v 0.586 0.435208 0
v 0.564 0.541808 0
v 0.674 0.289448 0
v 0.652 0.403792 0
v 0.63 0.5162 0
v 0.74 0.2348 0
v 0.718 0.354952 0
v 0.696 0.473168 0
v 0.806 0.162728 0
v 0.784 0.288688 0
v 0.762 0.412712 0
v 0.872 0.0732319999999999 0
v 0.85 0.205 0
v 0.828 0.334832 0
f 1 4 2
f 4 5 2
f 2 5 6
f 2 6 3
f 4 7 8
f 4 8 5
f 5 8 6
f 8 9 6
f 7 10 8
f 10 11 8
f 8 11 12
f 8 12 9
f 10 13 14
f 10 14 11
f 11 14 12
f 14 15 12
f 13 16 14
f 16 17 14
f 14 17 18
f 14 18 15
f 16 19 20
f 16 20 17
f 17 20 18
f 20 21 18
f 19 22 20
f 22 23 20
f 20 23 24
f 20 24 21
f 22 25 26
f 22 26 23
f 23 26 24
f 26 27 24
f 25 28 26
f 28 29 26
f 26 29 30
f 26 30 27
f 28 31 32
f 28 32 29
f 29 32 30
f 32 33 30
