v 0.05 0.65 0
v 0.05 0.75 0
v 0.05 0.85 0
v 0.11 0.65 0
v 0.11 0.75 0
v 0.11 0.85 0
v 0.17 0.65 0
v 0.17 0.75 0
v 0.17 0.85 0
v 0.23 0.65 0
v 0.23 0.75 0
v 0.23 0.85 0
v 0.29 0.65 0
v 0.29 0.75 0
v 0.29 0.85 0
v 0.35 0.65 0
v 0.35 0.75 0
v 0.35 0.85 0
v 0.41 0.65 0
v 0.41 0.75 0
v 0.41 0.85 0
v 0.47 0.65 0
v 0.47 0.75 0
v 0.47 0.85 0
v 0.53 0.65 0
v 0.53 0.75 0
v 0.53 0.85 0
v 0.59 0.65 0
v 0.59 0.75 0
v 0.59 0.85 0
v 0.65 0.65 0
v 0.65 0.75 0
v 0.65 0.85 0
f 1 4 2
f 4 5 2
f 2 5 6
f 2 6 3
f 4 7 8
f 4 8 5
f 5 8 6
f 8 9 6
f 7 10 8
f 10 11 8
f 8 11 12
f 8 12 9
f 10 13 14
f 10 14 11
f 11 14 12
f 14 15 12
f 13 16 14
f 16 17 14
f 14 17 18
f 14 18 15
f 16 19 20
f 16 20 17
f 17 20 18
f 20 21 18
f 19 22 20
f 22 23 20
f 20 23 24
f 20 24 21
f 22 25 26
f 22 26 23
f 23 26 24
f 26 27 24
f 25 28 26
f 28 29 26
f 26 29 30
f 26 30 27
f 28 31 32
f 28 32 29
f 29 32 30
f 32 33 30
