MeshVersionFormatted 1
Dimension 3
Vertices
316
0.00183957182507491 -0.00058269211717372395 -1.0007753854214601 1
0.160489735093263 0.55570937527880804 -0.81666681307312905 1
0.269691971146229 0.38855761295936803 -0.89691362633230198 1
0.18990577504117401 0.19594755882265599 -0.96295556608260202 1
0.19361463207386201 0.00040073886883562799 -0.98155905281373601 1
0.28604984951218598 -0.194928593222016 -0.95441649144795904 1
0.26841459425352499 -0.38644491603540199 -0.898329069272642 1
0.160916618899963 -0.55471161254436796 -0.81779402551000702 1
0.14090487608048399 0.99384575681527498 -0.12814711204943499 1
0.32800487530938999 0.84424922322100704 -0.45055419742509101 1
0.33272910453905802 0.71556862589286696 -0.62925692733425798 1
0.393334231962499 0.56476586037094101 -0.741189530229176 1
0.37453962727981099 0.196298894103098 -0.90687161065506905 1
0.381536172622362 0.00090761906113353305 -0.92471165000842703 1
0.39718820317357101 -0.56066951106854102 -0.74123426595057595 1
0.333101893896044 -0.71460615003007599 -0.63009734846310705 1
0.32840908595902701 -0.84653441260484596 -0.45327788777401301 1
0.289715916453329 -0.94157669665096899 -0.248887695691936 1
0.58979406821549096 0.38914414545618697 -0.72768256263090503 1
0.54445692261498402 0.19713575159145799 -0.817068926955693 1
0.55477828595605505 0.00052022827158558797 -0.83316654314924699 1
0.54467481246405602 -0.19380406442752701 -0.81754086470155796 1
0.51298322345677105 -0.38066604029499601 -0.77099761075030904 1
0.30811341379704499 0.93712254928299299 -0.22635863637797901 1
0.499236879978948 0.70804883893812398 -0.50068430617136395 1
0.58765744813335397 0.55673702626047805 -0.58920970329779898 1
0.69298304423179502 0.19640209792329399 -0.69479751131697598 1
0.70676764453008301 0.0012909140085892801 -0.70817010540602199 1
0.69282664643409098 -0.195304184335447 -0.69474407018996298 1
0.72220790997663697 -0.387203430899768 -0.59540381034634704 1
0.58888152504223201 -0.55502276779201998 -0.58950876146122499 1
0.50121185443294902 -0.70684148010536096 -0.50193752032658301 1
0.49105429476185702 0.83742448359828803 -0.26391442541992399 1
0.62754437540977404 0.71435186152452301 -0.33650671466891302 1
0.73925721328264304 0.56249504649586002 -0.39795763683359697 1
0.76798228086490505 0.38363163753929502 -0.514149913079747 1
0.81621869216926402 0.19737690867409 -0.54520063360367299 1
0.83221805516896696 0.00123898730975597 -0.55562100304803896 1
0.81696208566540696 -0.19365393175406301 -0.54507249999648599 1
0.74054765521450905 -0.56214339557396698 -0.396783177830759 1
0.62980373141207102 -0.71234428162983499 -0.33741661299890302 1
0.49416994085898802 -0.835163851069328 -0.26403958126376798 1
0.89510475549763902 0.389048532902874 -0.27431008988856698 1
0.95269737142791 0.19835163411159701 -0.29236544862498598 1
0.92374576669865505 0.00025164744356901499 -0.38389065553592799 1
0.95248924151442904 -0.195290376832708 -0.29189228283916302 1
0.89555330441486303 -0.38753171357864502 -0.27681333732670599 1
0.15529002020608701 0.99959129225135501 0.10003776781292199 1
0.38240574053174098 0.93433743288425497 0.0200673308562806 1
0.56029175615882898 0.85294765668276795 0.027245366265137599 1
0.70834272466674097 0.71490892117373495 -0.073550591747423205 1
0.83558009276575596 0.56313803975279797 -0.083230669298373902 1
0.98128495759876899 0.0011195531176794401 -0.19609919591140901 1
0.83769479909911904 -0.56088892555037295 -0.083329266965223095 1
0.70911638309739 -0.714066639254334 -0.073516290908037296 1
0.56276122014630403 -0.85145810222342999 0.026138446669303001 1
0.384922115147799 -0.93255770859208897 0.016436361460689001 1
0.92482508166254396 0.383567914925877 -0.00214836879596363 1
0.98159804941102202 0.19620889575542499 -0.0015753967249663499 1
1.00086994922276 0.0013239239656523401 0.000260654972849665 1
0.98226441495431605 -0.192935527803893 -0.0011824782534754299 1
0.92615583805106705 -0.38071634373617202 -0.0015040910238282999 1
0.69464984178892497 0.70768797546041096 0.13708325066416199 1
0.80559211481925497 0.56328991509821602 0.240850613967311 1
0.89629492708928205 0.38978902970832702 0.268326451344504 1
0.95368101004350503 0.199634290008639 0.28608151465410298 1
0.981353197731479 0.000193579367526923 0.19403381284361401 1
0.953668394916798 -0.19454877742330701 0.28601574395971202 1
0.89738908427700104 -0.38691337613363602 0.26870745785843902 1
0.80607833936128204 -0.56346297839140302 0.24073497260051199 1
0.69520588127302096 -0.70675687770080597 0.13772065902382299 1
0.25502389453247298 0.94426091951193103 0.28167241441429097 1
0.44975638690407899 0.84344866934491003 0.32822775457729803 1
0.628220674036856 0.71541143688867204 0.33326876660891003 1
0.92503639921626302 0.0013046086251275199 0.38187134530416 1
0.62868281114762603 -0.714565560303418 0.33300456788030702 1
0.45096694492894901 -0.84250490459181404 0.32832909178800201 1
0.25044748501727998 -0.94808744524777799 0.28369176276744801 1
0.65277213469239204 0.56336943203702705 0.52958966540446994 1
0.76991868655286499 0.38423104723260398 0.51206298993263999 1
0.81815063178835801 0.193896720221478 0.54383658787822198 1
0.83243276120632403 0.0011933004217605299 0.55493820261161697 1
0.81793702830890702 -0.193674097873062 0.54425663013356196 1
0.77060200203648399 -0.38171414338439003 0.51241423013371601 1
0.65297039381136701 -0.561509112433494 0.52978052589073599 1
0.50087464061750697 0.70825609794394095 0.499676203103811 1
0.59548150259746802 0.38893828218106802 0.72247542126439002 1
0.69464460038453002 0.19645938505060101 0.69273799028398397 1
0.70832145806207403 0.0011043508624402299 0.70676216362762401 1
0.694758819675385 -0.19528872926457899 0.69288695949149504 1
0.59504157008834901 -0.38530586883565698 0.72312015569938104 1
0.50174154474792498 -0.70655976099911 0.50129719154443697 1
0.14315758935727599 -0.98444589896450496 0.12377487723766201 1
0.264100384863103 0.837657073307429 0.49128750624819201 1
0.33915710600138699 0.71375409368814702 0.62619174928705501 1
0.463176048554169 0.55713668861068599 0.69065890846510902 1
0.545791955379622 0.196055949587991 0.81595549735846795 1
0.55640338483227003 -0.00076375389906200696 0.83223612936397895 1
0.54541995275301403 -0.19398293160513 0.81671530480712395 1
0.46349953811193201 -0.55491351148139501 0.69179482609792997 1
0.33967356331725801 -0.71272345692498795 0.62735308112935295 1
0.26444342214425698 -0.83658672600030304 0.492703022848274 1
0.245110801936266 0.56351819211501297 0.803380689195068 1
0.27666355943410598 0.38930344080421603 0.89517493236968304 1
0.29227286984815898 0.198885913788095 0.95183721084386996 1
0.38389900459352799 0.00023854374860572401 0.92380704476210496 1
0.29253271371048301 -0.19494847974572699 0.95276953934895803 1
0.27752333562521397 -0.38631426451463302 0.89542723268281699 1
0.24498807446820101 -0.560436129138979 0.80485320006809002 1
-0.0593188697798748 1.0168599906458899 0.065705168292542596 1
-0.016136837874023702 0.93678958989841998 0.37974200631857402 1
0.057292336768140703 0.837593031095341 0.55473647404294402 1
0.13890202073372401 0.70834278693382302 0.69333068086160399 1
0.195714978680852 -0.0013001971353501401 0.98184679500908401 1
0.13919905789863901 -0.70729156967391504 0.69457986128282601 1
0.057296819703868303 -0.83652020328279397 0.55586013520572497 1
-0.017786185773542702 -0.93387944361132502 0.38396056306176202 1
-0.077804150646180695 -1.00087574857573 0.15790299284607801 1
-0.068621515583087406 0.71417458485240404 0.70846230745746097 1
-0.077589002347990293 0.56305160537373899 0.83699298896774799 1
0.0013068108230692699 0.383769980499582 0.92463417645363799 1
0.0015679352062943899 0.196966699762467 0.98159282849965102 1
-0.00033587830341311198 0.00149808214600985 1.0006178153502501 1
0.0014975272961851201 -0.19268687827846601 0.98244647758028003 1
0.00117653635749447 -0.381770169903769 0.92538893463326699 1
-0.0781077725065078 -0.56127332630582005 0.837606100330893 1
-0.068605808668022294 -0.71293543442665896 0.71053598975599397 1
-0.15948058254456399 0.83713686608469795 0.53350770341827503 1
-0.26993376645065298 0.38913737929773001 0.896781174742179 1
-0.285736699139929 0.200573979196258 0.95344458036175705 1
-0.194049248021296 0.00016252109267658599 0.98133104189286602 1
-0.28670167906752803 -0.19426961140596799 0.95420124010646901 1
-0.26959469448555501 -0.38644886218790298 0.89702771642655599 1
-0.16054245865181699 -0.836846031618807 0.53431418864350799 1
-0.22740086155633199 0.93264449592170995 0.30684706884712798 1
-0.33264027835272397 0.71493122908923001 0.63030023641991195 1
-0.394544804166165 0.56347334508320601 0.74110137680725796 1
-0.38187413585647501 0.00101676177352502 0.92517974426740301 1
-0.39573885442724599 -0.56054809967421404 0.742682009057547 1
-0.33391720474787201 -0.71345418149745898 0.63073300041201696 1
-0.22581594752114501 -0.93060992419800803 0.30938268143173198 1
-0.35271504767185302 0.83728505314546497 0.43126531311399202 1
-0.51200066293191804 0.38391378413103899 0.770271167151517 1
-0.54411891956455005 0.19658606184869001 0.81854965012770597 1
-0.55492900188689998 0.0011626777167988299 0.83242369922841197 1
-0.54405627269489798 -0.19348994828406499 0.81787329967963796 1
-0.51275833163944695 -0.38048938767713503 0.77100291907695595 1
-0.35396096245411401 -0.83622057723194398 0.43283878035935103 1
-0.49984533505082701 0.70750142283971595 0.50144048567380195 1
-0.64741568362930202 0.56317934639881995 0.53709419450854401 1
-0.72248965531017295 0.38954253397006 0.59525195064967495 1
-0.69279067973887398 0.19647409003212701 0.69460008746657798 1
-0.70677430759710802 0.0012247181368386199 0.708053330342998 1
-0.692943746875336 -0.19524512421427101 0.69472731488163997 1
-0.72342950074503498 -0.386003918677855 0.59618720616316301 1
-0.64776372655931702 -0.56141748646878498 0.53744983691965198 1
-0.50084241422208398 -0.70643767482173303 0.50202795471337902 1
0.064310355172418801 -1.0224485328072199 -0.054175092500038401 1
-0.35770036717437997 0.933357657084671 0.13237687751541399 1
-0.490204996929406 0.83798174905775302 0.26441661269059102 1
-0.62677942389907304 0.71548063993467104 0.33668032420441202 1
-0.815023745657666 0.196897574393611 0.54581235481823898 1
-0.83117215402503597 0.0010748426221029799 0.55679637573533802 1
-0.815200264242398 -0.19476247249940901 0.54598473578278595 1
-0.62813773945618101 -0.71345081912866404 0.336917111182296 1
-0.49248158869862801 -0.836767929113169 0.26497417611160601 1
-0.35828785075883501 -0.93624401670615498 0.12962748226934101 1
-0.76865384961162997 0.556286448813757 0.31965519131276698 1
-0.89426842188737499 0.38882821007234097 0.27711596830538998 1
-0.90617352861804901 0.19660268994652999 0.37684099549989197 1
-0.92449981046382801 0.00130152819424499 0.38373267805554101 1
-0.90712310410794095 -0.19404052072784 0.376684130195161 1
-0.89526925761646703 -0.38805087092095503 0.27725028616224401 1
-0.769495228334792 -0.55493347790561798 0.31954524335180101 1
-0.55455126536402899 0.83704244794818095 0.057156689706128097 1
-0.69425307058128305 0.70774702981777604 0.13947292853120599 1
-0.83632061240283395 0.56331654492727101 0.082522001285651597 1
-0.990770627023842 0.197747922222579 0.098871855945620202 1
-0.98082935392821002 0.00038640644111849801 0.19626943124256499 1
-0.99103706805412695 -0.19471679925264901 0.099860776623580894 1
-0.83641338464749204 -0.56144178955916901 0.082471875004124007 1
-0.69480309669820906 -0.70673135406251597 0.13950605037786601 1
-0.55609609681636596 -0.83647666930627695 0.057685732970527703 1
-0.36151568458647299 0.94100824076103795 -0.107476439150499 1
-0.707939847125023 0.71458296348148698 -0.069694810985299699 1
-0.92448238896254498 0.38401597398398701 0.00131582473151096 1
-1.0004567341902399 0.0011792091698673199 0.00041904825005147301 1
-0.92567459761706095 -0.38122658177417101 0.0011127993187516 1
-0.709384632488958 -0.71265651598885205 -0.070343155362721496 1
-0.36319539466502399 -0.93672594492211303 -0.112373190098095 1
-0.53352081914622096 0.837022706066194 -0.159569626441708 1
-0.81667299866106102 0.55618578734036095 -0.16138999041558399 1
-0.89737120194327802 0.39012728041898898 -0.26720920835150103 1
-0.95454905314327498 0.19988963869240001 -0.28577933058549998 1
-0.98132506201924996 0.00021059851265935501 -0.19402246444781801 1
-0.95536581884263605 -0.19470945304155701 -0.28454884484861298 1
-0.89829718292916305 -0.38796605905156101 -0.26771229481601599 1
-0.81716428500989302 -0.55464530886044205 -0.16112334215207599 1
-0.53438656654794303 -0.83652002593749797 -0.1631861146393 1
-0.150940480342768 -0.99867963326664 -0.098125601540283394 1
-0.097938898319470696 0.99525200328167795 -0.154754010082438 1
-0.62983272640920995 0.71477511342528899 -0.33266897987670802 1
-0.74144534844837295 0.56103190190097196 -0.39748261588605199 1
-0.92504544965249902 -0.00113614749512873 -0.38278875771162002 1
-0.74231749027480298 -0.56048239419836698 -0.39736029063205103 1
-0.63004120073231795 -0.71462810071410099 -0.33357989591596099 1
-0.43115884412194999 0.83887501839961698 -0.35235245417956101 1
-0.76935730392466894 0.383944036903416 -0.512440194832541 1
-0.81743818971205895 0.196309509397006 -0.544298050519189 1
-0.83262185101533304 0.00116508961226593 -0.55581834913600103 1
-0.81759777162161495 -0.19247162773893101 -0.54486614994050397 1
-0.77087671917414202 -0.38067644006631302 -0.51342727731322702 1
-0.38149851671374302 -0.84858511717017504 -0.41080682205041202 1
-0.18200667878759 0.93829483714797501 -0.33395099221101499 1
-0.50131202721415402 0.70756536241300305 -0.49999351609978099 1
-0.53635104063390704 0.56306552488929196 -0.64760468496214696 1
-0.59493846563488595 0.38888880766218298 -0.721746085419809 1
-0.63321236249392998 0.19952354352096799 -0.76762879212716395 1
-0.70808276483023003 0.00043232961187778299 -0.706464564754962 1
-0.63319414494869697 -0.19671647625512201 -0.76847270569091897 1
-0.59585600194133903 -0.38490411865496998 -0.72318797767731302 1
-0.53645735324853805 -0.561262549325801 -0.648311877716093 1
-0.50125509689441194 -0.70709318090594997 -0.500587982755751 1
-0.180609597327687 -0.93790781049661098 -0.33313545819317603 1
-0.26351781809901098 0.83818110759873898 -0.49190840645038397 1
-0.33702798222890201 0.71543825856493204 -0.62564517729853497 1
-0.55677792927543301 0.0012031688978376199 -0.83150980040191502 1
-0.337177363828496 -0.71360370914627103 -0.62843768112479603 1
-0.319644583719981 0.556295351146464 -0.76872812068767604 1
-0.27727748287915899 0.38859159906171098 -0.89479327679183596 1
-0.37714313691308099 0.195902542837572 -0.90676617386960301 1
-0.38298676088329803 0.0011518914496581999 -0.924331766110847 1
-0.37705254314775699 -0.194435329295924 -0.90676460801893899 1
-0.27681861220834098 -0.38797198558778101 -0.89567472729459796 1
-0.31932619291631797 -0.55499285634034301 -0.76963002599256802 1
-0.161277989419298 -0.83685863205968003 -0.53331468791629799 1
0.028451629709608201 0.84955607007101597 -0.56436969578833696 1
-0.13960625249282799 0.70832155717353396 -0.69391008257833198 1
-0.081100081476753197 0.56054407448709498 -0.83704921685023803 1
-0.096782799127920899 0.19638714643237901 -0.99137462876113402 1
-0.196212409221447 7.4982749360145504e-05 -0.98168294365818998 1
-0.095715140676426294 -0.20015730410965801 -0.99095505148833696 1
-0.080926687353028701 -0.56426080717528004 -0.83496524366973701 1
-0.13985370463714999 -0.70669268375629202 -0.69576566249331295 1
0.109128291826496 0.93825096296266397 -0.36068221384419202 1
0.074279917395184497 0.71361648323550897 -0.70856726103901801 1
0.0015458314947657699 0.383763374870492 -0.92448792307361105 1
0.00125575987166435 -0.38245226236298302 -0.92517332226518101 1
0.0731348443803857 -0.71373064222667904 -0.70920372468214699 1
0.060085731671869397 -0.840056822636019 -0.55838408349214297 1
0.0428828751559098 -0.93178594186752095 -0.384862990659676 1
0.32345998715639412 0.012540003788600523 -0.064460803994637023 1
-0.038070792915405396 0.38713384384162147 -0.51104351621924426 1
-0.28955017628366297 -0.084152325661661365 -0.25940214586071686 1
-0.54214875879071522 -0.52215694839962434 -0.082501492789778724 1
-0.07349430464345369 -0.3445098181657445 0.20621078239914631 1
0.27406599979623719 -0.0046281538935156073 -0.54005030337200344 1
0.034509981565792297 -0.73205466166123767 0.37321067572094913 1
0.39402301113700516 -0.59268496354668465 0.29248586313729052 1
-0.01839955766515574 0.13180136236694218 0.41498667245309206 1
-0.22824239689061745 0.48091785670687232 0.064575695268443131 1
-0.4633790274179278 -0.44173908559437691 0.5069412662598799 1
0.46163379143822003 -0.58047165610994778 -0.13348512152341024 1
0.054360378587419982 -0.37622423447370934 -0.38220753137939767 1
-0.36823121139730153 0.60956862501507036 -0.3883789650104526 1
0.15826078496751039 0.62160428701661008 0.34043218060142499 1
-0.42748377500843016 0.65976614445657122 0.3287262646092633 1
-0.088475039345148679 0.048063296182231208 -0.74417458231316602 1
-0.63068199815326131 -0.064548575302531788 0.17498653337290498 1
-0.62134554901290517 0.23112186993805772 -0.27018364429251557 1
-0.46046083404991217 -0.11209175942867849 -0.6307893950820016 1
-0.4258724446938405 -0.63068366058802017 0.20227046983856867 1
-0.18605692201467119 0.16116601462032337 0.78286445725608711 1
-0.69944972209119349 -0.22160107264083787 -0.27491709038757273 1
0.58287948529260469 -0.059563418037009694 0.33482027524301217 1
0.30434815711304908 0.74299581724740538 0.11506182475758144 1
-0.12655538392942334 -0.34739134340176903 -0.63298039280617269 1
-0.64640479246167049 0.041663029590558981 -0.50524946999004339 1
0.66108474308151999 -0.097524953666943248 -0.4860288989476933 1
0.49089981685776207 0.27393314916620726 -0.55238076860804963 1
0.52577806935688942 0.17717033227110729 0.58126225281530453 1
-0.63080086538431102 0.27215840740311714 0.37366102799973988 1
0.75502666406148433 0.19042070014602139 0.22116018240205995 1
0.00069539906962261862 -0.77977254960293452 -0.022098549466414791 1
0.011137053264480681 0.77254477234515995 -0.16428570371502074 1
0.38257582975058813 0.56017415928713055 -0.19757917992154883 1
0.71342257438253598 0.18477981067259405 -0.20587806848798657 1
-0.51843717685664137 -0.055993994342675546 0.58926986201966669 1
0.69404651925002692 -0.40219762134540421 0.17579926310650598 1
0.22342932520592973 0.39396199439062518 0.68537912279066926 1
0.7617806790061129 -0.18464167998168554 -0.097222119967901477 1
-0.40824729678490257 0.37392384724079386 0.59369842604642564 1
-0.17523723850587133 -0.20949234065743999 0.74857152356866052 1
0.39706837264881989 -0.41366931034134613 -0.53205089642424985 1
0.26761444577458704 -0.28555301291832591 0.65968706428511981 1
-0.41376979329833291 0.25673459134949217 -0.6312387234292951 1
0.1715930367042458 0.64251276578820915 -0.50462696962433373 1
-0.2591571082503058 -0.63978901541571354 -0.31462461684347975 1
-0.11809659241235379 -0.55750909594763198 0.60861513294431369 1
0.17831029699921799 -0.69916371608074013 -0.4233217587235501 1
-0.83716899049570559 0.21182477923970786 0.033438428704947565 1
0.25344110077468712 0.22725672327301266 -0.7673685710830852 1
-0.10047913437813534 0.53422778477094712 0.59215755014809235 1
-0.082891658230110923 0.79843138549606563 0.23658209220590337 1
-0.65664687186153226 0.49652826106459985 -0.0097384486310699812 1
0.48800922467199159 0.46243752238394709 0.34070513338378183 1
0.19092012356498755 0.080113743678327631 0.81529681858116687 1
0.65441649987537165 0.4877370864223271 -0.0096264464852553987 1
-0.19005131753322818 -0.17340492520247822 -0.82090022413136043 1
0.63541259386056637 -0.25212108360075108 0.52942359811774031 1
0.15529426349370321 -0.19374154661149631 -0.78572745943401101 1
-0.71455308644065862 -0.3405602045892499 0.30480025289584411 1
-0.532292041724164 -0.37130367452706026 -0.47541471353018078 1
-0.8091644115225427 -0.053771792607065848 -0.13641594762055678 1
-0.061939442790828858 -0.62527813049580616 -0.57546499500414905 1
-0.35259370495831466 -0.43896452980915618 -0.64314753339712039 1
Triangles
498
2 247 3 1
4 3 240 1
5 240 1 1
6 1 242 1
7 242 248 1
8 248 243 1
246 239 2 1
12 246 2 1
17 16 250 1
18 17 251 1
3 4 13 1
14 4 5 1
110 201 9 1
245 237 10 1
15 7 8 1
237 246 11 1
16 8 249 1
21 6 22 1
23 6 7 1
19 12 3 1
20 3 13 1
21 13 14 1
19 20 27 1
27 21 28 1
29 21 22 1
9 245 24 1
30 22 23 1
31 30 15 1
25 10 11 1
15 16 32 1
11 12 26 1
33 24 10 1
30 31 40 1
34 10 25 1
41 31 32 1
35 34 26 1
42 32 17 1
36 26 19 1
36 27 37 1
37 28 38 1
39 28 29 1
43 35 36 1
44 43 37 1
45 44 38 1
46 38 39 1
47 39 30 1
24 33 50 1
47 40 54 1
33 34 51 1
55 40 41 1
52 51 35 1
56 55 42 1
57 56 18 1
44 45 53 1
48 110 9 1
49 48 24 1
58 44 59 1
59 53 60 1
61 53 46 1
62 46 47 1
58 52 43 1
70 69 54 1
63 50 51 1
71 54 55 1
63 52 64 1
65 52 58 1
66 65 59 1
67 66 60 1
68 60 61 1
69 61 62 1
93 78 158 1
66 67 75 1
72 48 49 1
73 72 50 1
74 50 63 1
76 70 71 1
77 76 56 1
78 56 57 1
74 64 79 1
64 65 80 1
80 66 81 1
81 75 82 1
83 75 68 1
84 68 69 1
84 70 85 1
88 82 89 1
90 82 83 1
91 83 84 1
86 73 74 1
92 85 76 1
87 79 80 1
88 87 81 1
101 85 92 1
96 95 79 1
102 101 77 1
87 88 97 1
97 89 98 1
99 89 90 1
72 73 94 1
91 85 100 1
95 73 86 1
107 98 99 1
108 99 91 1
109 108 100 1
95 96 103 1
104 96 87 1
105 104 97 1
106 105 98 1
115 102 116 1
117 102 78 1
118 78 93 1
105 106 114 1
93 158 118 1
48 72 111 1
72 94 112 1
94 95 113 1
115 109 101 1
124 114 107 1
125 107 108 1
125 109 126 1
119 112 113 1
127 109 115 1
120 119 103 1
103 104 121 1
121 105 122 1
122 114 123 1
127 116 134 1
129 120 121 1
130 129 122 1
131 130 123 1
132 123 124 1
133 124 125 1
128 111 112 1
133 126 139 1
136 128 119 1
140 126 127 1
137 136 120 1
141 134 117 1
130 131 138 1
135 110 111 1
143 130 144 1
144 138 145 1
146 138 132 1
147 132 133 1
142 135 128 1
140 134 148 1
143 137 129 1
156 155 139 1
149 142 136 1
157 139 140 1
149 137 150 1
151 137 143 1
152 151 144 1
152 145 153 1
154 145 146 1
155 146 147 1
151 152 162 1
162 153 163 1
164 153 154 1
159 110 135 1
160 135 142 1
161 142 149 1
165 156 157 1
166 165 148 1
148 141 167 1
174 173 156 1
161 150 168 1
150 151 169 1
170 169 162 1
170 163 171 1
172 163 164 1
173 164 155 1
200 167 118 1
179 178 171 1
158 200 118 1
180 171 172 1
175 159 160 1
173 174 181 1
160 161 176 1
182 174 165 1
176 168 177 1
182 166 183 1
169 170 178 1
185 175 176 1
189 181 182 1
186 177 169 1
190 183 167 1
178 179 187 1
110 159 184 1
188 180 173 1
195 194 187 1
196 187 180 1
197 180 188 1
191 184 175 1
198 197 181 1
185 177 192 1
189 183 199 1
193 177 186 1
194 193 178 1
206 198 189 1
203 202 192 1
194 195 204 1
197 198 205 1
202 191 185 1
211 204 196 1
212 196 197 1
184 191 207 1
206 199 213 1
208 203 193 1
208 194 209 1
209 204 210 1
217 203 208 1
224 213 190 1
218 217 209 1
219 218 210 1
220 210 211 1
214 201 184 1
221 211 212 1
222 221 205 1
215 207 202 1
223 205 206 1
215 203 216 1
225 214 207 1
226 207 215 1
228 222 223 1
218 219 227 1
216 217 230 1
231 230 218 1
231 227 232 1
233 227 220 1
234 220 221 1
235 234 222 1
226 216 229 1
228 213 236 1
214 225 237 1
234 235 243 1
225 226 238 1
244 235 228 1
238 229 239 1
230 231 240 1
200 158 224 1
241 240 232 1
242 232 233 1
251 236 224 1
240 241 1 1
201 214 245 1
248 242 234 1
246 237 238 1
249 243 244 1
250 249 236 1
239 230 247 1
239 247 2 1
247 240 3 1
4 240 5 1
5 1 6 1
7 6 242 1
7 248 8 1
243 249 8 1
11 246 12 1
249 250 16 1
2 3 12 1
250 251 17 1
158 18 251 1
13 4 14 1
5 6 14 1
201 245 9 1
10 237 11 1
16 15 8 1
14 6 21 1
22 6 23 1
7 15 23 1
20 19 3 1
20 13 21 1
16 17 32 1
12 19 26 1
20 21 27 1
28 21 29 1
29 22 30 1
245 10 24 1
23 15 30 1
31 15 32 1
25 11 26 1
29 30 39 1
33 10 34 1
41 40 31 1
25 26 34 1
42 41 32 1
35 26 36 1
17 18 42 1
19 27 36 1
27 28 37 1
38 28 39 1
36 37 43 1
37 38 44 1
45 38 46 1
47 46 39 1
40 47 30 1
49 24 50 1
50 33 51 1
55 54 40 1
34 35 51 1
41 42 55 1
35 43 52 1
42 18 56 1
18 158 57 1
45 46 53 1
9 24 48 1
43 44 58 1
44 53 59 1
60 53 61 1
61 46 62 1
47 54 62 1
62 54 69 1
70 54 71 1
51 52 63 1
55 56 71 1
64 52 65 1
58 59 65 1
59 60 66 1
67 60 68 1
69 68 61 1
57 158 78 1
67 68 75 1
49 50 72 1
73 50 74 1
63 64 74 1
71 56 76 1
78 77 56 1
70 76 85 1
79 64 80 1
65 66 80 1
66 75 81 1
82 75 83 1
83 68 84 1
69 70 84 1
81 82 88 1
89 82 90 1
90 83 91 1
85 91 84 1
74 79 86 1
76 77 92 1
80 81 87 1
100 85 101 1
86 79 95 1
92 77 101 1
79 87 96 1
77 78 102 1
88 89 97 1
98 89 99 1
90 91 99 1
94 73 95 1
106 98 107 1
108 107 99 1
91 100 108 1
100 101 109 1
103 96 104 1
87 97 104 1
97 98 105 1
95 103 113 1
101 102 115 1
117 116 102 1
118 117 78 1
106 107 114 1
110 48 111 1
112 111 72 1
112 94 113 1
123 114 124 1
124 107 125 1
108 109 125 1
127 126 109 1
113 103 119 1
116 127 115 1
120 103 121 1
104 105 121 1
105 114 122 1
116 117 134 1
121 122 129 1
122 123 130 1
131 123 132 1
133 132 124 1
126 133 125 1
112 119 128 1
111 128 135 1
140 139 126 1
119 120 136 1
134 140 127 1
120 129 137 1
117 118 141 1
131 132 138 1
134 141 148 1
129 130 143 1
130 138 144 1
145 138 146 1
146 132 147 1
133 139 147 1
128 136 142 1
147 139 155 1
156 139 157 1
136 137 149 1
140 148 157 1
150 137 151 1
143 144 151 1
144 145 152 1
153 145 154 1
154 146 155 1
141 118 167 1
152 153 162 1
163 153 164 1
154 155 164 1
159 135 160 1
160 142 161 1
149 150 161 1
157 148 165 1
167 166 148 1
155 156 173 1
156 165 174 1
168 150 169 1
151 162 169 1
162 163 170 1
171 163 172 1
172 164 173 1
170 171 178 1
179 171 180 1
172 173 180 1
175 160 176 1
181 174 182 1
161 168 176 1
165 166 182 1
168 169 177 1
166 167 183 1
176 177 185 1
183 189 182 1
169 178 186 1
200 190 167 1
179 180 187 1
159 175 184 1
173 181 188 1
178 187 194 1
195 187 196 1
197 196 180 1
188 181 197 1
175 185 191 1
181 189 198 1
192 177 193 1
183 190 199 1
186 178 193 1
206 205 198 1
185 192 202 1
199 206 189 1
192 193 203 1
195 196 204 1
201 110 184 1
210 204 211 1
211 196 212 1
197 205 212 1
191 202 207 1
199 190 213 1
193 194 208 1
194 204 209 1
206 213 223 1
216 203 217 1
208 209 217 1
200 224 190 1
209 210 218 1
219 210 220 1
221 220 211 1
184 207 214 1
212 205 221 1
222 205 223 1
202 203 215 1
225 207 226 1
215 216 226 1
223 213 228 1
219 220 227 1
229 216 230 1
213 224 236 1
217 218 230 1
218 227 231 1
232 227 233 1
233 220 234 1
221 222 234 1
222 228 235 1
233 234 242 1
238 237 225 1
243 235 244 1
226 229 238 1
228 236 244 1
229 230 239 1
231 232 240 1
241 232 242 1
251 250 236 1
230 240 247 1
158 251 224 1
241 242 1 1
214 237 245 1
234 243 248 1
238 239 246 1
244 236 249 1
Tetrahedra
1070
138 145 144 273 1
109 125 108 295 1
82 89 275 310 1
259 85 289 310 1
244 236 249 315 1
12 2 3 302 1
252 253 254 261 1
266 72 276 304 1
95 79 306 86 1
79 95 306 96 1
128 112 266 304 1
100 85 259 310 1
244 235 228 315 1
314 197 196 274 1
84 91 83 310 1
46 38 279 45 1
33 34 51 286 1
8 248 277 311 1
101 100 259 295 1
263 252 291 294 1
285 110 184 304 1
213 190 224 298 1
161 142 267 160 1
240 302 268 4 1
148 165 272 166 1
78 56 259 77 1
211 271 278 313 1
303 103 120 290 1
253 285 286 297 1
142 135 128 304 1
261 276 285 266 1
265 203 270 305 1
313 277 271 254 1
220 221 271 313 1
64 80 79 306 1
254 298 256 255 1
198 205 197 274 1
174 165 182 272 1
46 47 62 291 1
192 193 270 305 1
98 105 307 106 1
187 301 194 178 1
153 162 152 288 1
185 192 202 305 1
251 18 17 300 1
220 234 316 221 1
130 138 144 273 1
106 114 105 307 1
274 181 198 255 1
64 74 63 306 1
106 107 114 307 1
260 273 293 307 1
257 264 277 311 1
50 276 286 308 1
256 260 288 293 1
232 233 271 227 1
257 20 21 302 1
150 137 151 292 1
275 260 281 306 1
247 253 268 302 1
67 275 283 291 1
66 60 283 59 1
226 253 238 265 1
47 40 263 291 1
163 170 162 282 1
311 268 5 1 1
185 175 176 305 1
137 150 149 292 1
148 258 272 299 1
12 302 19 280 1
181 197 274 198 1
173 156 312 155 1
265 253 270 296 1
101 77 259 92 1
246 239 2 253 1
68 84 83 310 1
187 195 301 314 1
188 314 269 274 1
165 148 272 157 1
293 147 139 133 1
50 24 286 49 1
211 220 271 313 1
112 128 266 303 1
158 200 118 284 1
193 178 301 186 1
256 259 275 295 1
230 216 296 229 1
269 170 282 301 1
190 199 255 298 1
191 202 207 265 1
175 185 191 305 1
306 260 290 266 1
100 259 295 310 1
261 253 285 286 1
234 222 316 221 1
2 247 3 302 1
192 203 202 305 1
220 210 271 219 1
53 287 60 59 1
123 131 273 293 1
101 102 258 259 1
234 277 309 316 1
217 265 208 296 1
170 169 282 301 1
82 75 275 283 1
28 257 279 280 1
243 249 8 315 1
253 257 268 302 1
76 92 85 259 1
261 276 266 286 1
210 218 278 219 1
256 284 259 258 1
311 294 22 257 1
222 223 228 316 1
123 122 114 307 1
256 312 269 272 1
294 7 8 311 1
38 28 39 279 1
206 298 313 255 1
168 177 176 305 1
87 97 104 290 1
211 212 221 313 1
124 125 133 293 1
252 283 306 275 1
10 11 25 297 1
144 288 273 145 1
252 260 275 306 1
261 260 266 303 1
74 86 73 306 1
222 234 316 235 1
99 91 295 310 1
218 227 231 296 1
169 150 282 168 1
313 277 298 316 1
193 177 305 192 1
227 296 278 271 1
234 220 316 233 1
220 227 219 271 1
137 129 143 292 1
39 28 29 279 1
151 137 143 292 1
151 144 292 143 1
149 136 137 292 1
96 281 290 306 1
34 308 51 286 1
252 263 264 294 1
240 302 247 268 1
262 165 174 272 1
159 135 267 304 1
99 281 295 98 1
279 45 287 291 1
171 178 269 179 1
196 211 204 274 1
25 280 286 297 1
98 107 295 99 1
302 12 19 3 1
68 60 291 67 1
237 285 297 245 1
269 254 274 314 1
140 157 139 262 1
314 188 269 180 1
178 269 301 170 1
1 268 309 311 1
5 14 4 302 1
143 273 130 144 1
168 169 177 305 1
268 232 271 296 1
266 276 285 304 1
254 270 274 314 1
60 283 291 67 1
261 191 265 305 1
241 232 242 309 1
218 230 296 231 1
87 96 281 290 1
54 263 289 291 1
128 266 303 304 1
78 117 102 258 1
254 252 256 264 1
190 167 200 284 1
125 124 107 295 1
43 52 35 308 1
28 257 280 21 1
88 97 87 281 1
276 266 286 306 1
240 232 241 268 1
259 93 78 284 1
125 126 133 293 1
63 52 64 308 1
201 184 214 285 1
86 95 266 306 1
58 283 287 59 1
23 294 15 30 1
270 269 301 314 1
311 6 1 5 1
16 250 17 300 1
169 282 301 305 1
200 167 118 284 1
282 269 260 288 1
63 50 73 74 1
27 20 21 280 1
223 206 213 298 1
279 46 47 39 1
72 50 276 49 1
62 69 61 289 1
256 262 272 299 1
226 253 265 229 1
269 282 260 261 1
260 306 290 281 1
202 215 207 265 1
226 207 265 225 1
129 273 292 303 1
271 274 278 313 1
147 293 139 262 1
41 32 42 263 1
235 228 315 316 1
150 169 282 151 1
232 227 271 296 1
64 79 74 306 1
116 102 117 258 1
276 48 285 304 1
79 86 74 306 1
225 214 265 285 1
176 175 267 305 1
113 112 266 303 1
258 141 272 284 1
207 226 265 215 1
34 308 286 35 1
146 138 132 293 1
132 138 131 293 1
291 283 252 275 1
234 235 277 316 1
286 10 285 24 1
120 136 303 137 1
257 254 253 268 1
248 242 309 311 1
189 198 181 255 1
172 180 269 312 1
203 208 265 270 1
229 253 230 239 1
142 161 267 149 1
260 281 290 307 1
227 218 219 278 1
242 232 233 309 1
227 232 231 296 1
313 277 254 298 1
163 269 282 288 1
131 138 273 293 1
83 82 275 310 1
252 253 261 286 1
167 190 272 284 1
133 132 124 293 1
135 142 267 304 1
112 94 113 266 1
280 253 286 297 1
155 288 164 154 1
175 261 267 305 1
193 305 186 301 1
224 200 284 298 1
98 281 295 307 1
283 60 291 287 1
190 272 284 298 1
58 43 287 308 1
254 260 256 252 1
253 265 285 297 1
102 259 78 258 1
163 171 170 282 1
104 103 96 290 1
216 265 226 215 1
257 254 268 264 1
235 243 234 277 1
280 35 287 36 1
181 188 173 312 1
242 1 309 311 1
21 14 257 302 1
84 69 289 310 1
34 308 35 51 1
208 270 278 296 1
206 205 255 313 1
144 151 292 152 1
241 242 1 309 1
290 105 97 104 1
254 260 252 261 1
256 298 264 284 1
143 273 129 130 1
100 101 109 295 1
155 146 262 154 1
250 251 300 315 1
39 30 47 279 1
213 236 228 298 1
254 255 269 274 1
77 71 56 259 1
256 312 262 269 1
288 144 273 292 1
107 106 295 307 1
264 254 268 277 1
193 194 270 301 1
132 147 293 133 1
167 190 183 272 1
210 209 204 278 1
223 222 313 316 1
43 58 52 308 1
32 42 263 300 1
41 42 55 263 1
261 254 269 270 1
113 303 103 119 1
258 101 259 295 1
254 255 274 313 1
109 101 115 295 1
265 225 285 297 1
40 263 291 294 1
283 291 252 287 1
234 242 233 309 1
47 30 40 279 1
276 63 306 308 1
130 131 138 273 1
125 293 295 299 1
8 264 277 315 1
257 264 268 277 1
132 123 293 131 1
38 287 37 279 1
55 54 40 263 1
49 286 50 276 1
126 139 133 299 1
12 246 297 11 1
82 88 81 281 1
137 129 292 303 1
21 13 14 302 1
140 148 262 299 1
111 72 266 304 1
236 251 298 224 1
202 203 265 305 1
259 71 263 289 1
280 253 297 302 1
200 190 284 298 1
271 254 274 313 1
37 43 36 287 1
101 85 92 259 1
71 55 263 289 1
206 199 213 298 1
275 81 281 82 1
116 115 258 299 1
78 93 258 284 1
230 218 296 217 1
261 159 267 304 1
184 110 159 304 1
180 171 269 179 1
55 71 54 289 1
264 263 284 300 1
45 46 53 291 1
70 76 85 289 1
229 253 239 238 1
61 62 289 291 1
148 157 140 262 1
146 155 262 147 1
35 26 280 286 1
99 281 310 295 1
273 260 290 307 1
214 184 265 285 1
149 150 267 292 1
85 100 91 310 1
261 266 285 304 1
46 279 47 291 1
128 111 112 304 1
257 268 302 311 1
63 64 306 308 1
230 240 247 268 1
95 73 266 94 1
263 252 289 291 1
167 148 141 272 1
62 47 54 291 1
169 168 282 305 1
72 111 48 304 1
111 110 48 304 1
216 265 215 203 1
139 293 299 262 1
192 185 177 305 1
114 122 105 307 1
98 97 89 281 1
111 72 112 266 1
84 85 91 310 1
196 212 211 274 1
253 2 297 302 1
221 271 313 316 1
10 25 286 297 1
257 20 280 21 1
122 130 129 273 1
117 141 134 258 1
123 132 293 124 1
256 312 272 262 1
140 126 299 139 1
16 32 294 300 1
298 277 315 316 1
60 283 59 287 1
10 237 11 297 1
68 83 75 275 1
38 44 287 45 1
107 124 114 307 1
122 123 273 307 1
252 275 289 291 1
229 253 265 296 1
203 192 270 305 1
243 248 234 277 1
60 68 291 61 1
238 239 246 253 1
153 163 162 288 1
107 98 295 106 1
155 139 262 147 1
160 161 176 267 1
175 191 184 261 1
102 115 101 258 1
126 133 293 299 1
123 124 293 307 1
109 127 299 115 1
77 71 76 56 1
190 255 183 272 1
37 27 279 280 1
164 269 163 288 1
2 239 247 253 1
72 48 49 276 1
50 63 276 308 1
30 39 29 279 1
9 201 245 285 1
260 252 261 266 1
160 175 159 267 1
280 252 257 287 1
18 56 263 57 1
141 148 258 272 1
117 93 118 258 1
110 285 184 201 1
142 136 149 267 1
232 268 271 309 1
260 261 292 303 1
45 53 287 291 1
205 223 222 313 1
136 120 303 119 1
64 283 306 308 1
270 253 261 254 1
225 253 238 297 1
136 149 267 292 1
168 267 282 305 1
294 311 22 23 1
40 41 263 294 1
230 231 268 296 1
262 256 288 293 1
257 254 264 252 1
76 77 92 259 1
210 271 278 211 1
260 269 254 256 1
281 310 275 89 1
60 53 61 291 1
104 121 103 290 1
56 78 259 57 1
152 144 288 292 1
281 80 283 306 1
271 268 277 309 1
174 181 173 312 1
144 145 152 288 1
117 93 78 118 1
50 72 276 73 1
84 69 70 289 1
26 12 19 280 1
278 254 296 270 1
51 52 63 308 1
300 264 8 315 1
243 244 249 315 1
153 152 145 288 1
74 73 276 306 1
225 253 265 238 1
78 158 259 57 1
87 104 96 290 1
197 205 212 274 1
54 69 62 289 1
27 37 36 280 1
34 26 35 286 1
174 262 272 312 1
42 18 263 300 1
134 148 140 299 1
40 47 279 291 1
24 276 285 286 1
54 47 263 291 1
73 266 306 86 1
40 41 55 263 1
264 254 277 298 1
294 31 41 32 1
177 185 176 305 1
168 176 267 305 1
27 28 279 280 1
44 58 287 59 1
253 257 280 286 1
8 300 315 249 1
141 148 134 258 1
151 152 282 292 1
253 229 230 296 1
232 241 268 309 1
87 81 281 80 1
184 207 214 265 1
137 120 129 303 1
21 20 13 302 1
251 236 298 315 1
127 115 116 299 1
75 66 67 283 1
99 89 310 98 1
314 188 180 197 1
89 99 310 90 1
27 36 19 280 1
286 252 287 308 1
68 83 275 310 1
120 290 121 303 1
28 257 21 279 1
262 146 293 288 1
211 221 220 313 1
83 90 82 310 1
130 123 273 122 1
175 184 159 261 1
257 253 280 302 1
124 123 114 307 1
165 262 174 156 1
264 263 256 284 1
243 315 235 244 1
259 275 295 310 1
99 281 98 310 1
166 182 165 272 1
81 87 281 88 1
54 47 40 263 1
158 259 284 93 1
255 254 298 313 1
135 160 159 267 1
84 70 85 289 1
277 235 315 316 1
2 246 253 297 1
65 306 80 64 1
307 121 273 122 1
102 116 115 258 1
129 121 122 273 1
265 216 229 296 1
252 257 279 294 1
75 67 275 283 1
110 135 159 304 1
228 298 315 316 1
213 224 236 298 1
82 81 75 283 1
315 243 235 277 1
235 222 228 316 1
70 71 76 289 1
42 32 17 300 1
256 258 295 299 1
257 279 280 287 1
261 267 303 304 1
178 269 179 301 1
61 69 68 289 1
135 111 128 304 1
75 81 66 283 1
298 264 300 315 1
18 42 17 300 1
59 66 65 283 1
5 4 268 302 1
22 294 30 29 1
273 138 288 293 1
298 251 284 224 1
59 65 58 283 1
146 262 293 147 1
73 95 266 86 1
25 280 297 26 1
7 294 23 311 1
71 56 259 263 1
56 57 259 263 1
16 249 250 300 1
7 294 8 15 1
204 274 278 314 1
136 142 128 267 1
91 100 295 310 1
126 299 109 127 1
251 298 300 315 1
120 290 103 121 1
60 66 283 67 1
187 314 196 195 1
42 56 55 263 1
255 205 274 313 1
24 50 286 33 1
260 275 281 295 1
22 21 257 279 1
141 167 272 284 1
199 206 255 298 1
281 310 89 98 1
277 264 298 315 1
29 30 279 294 1
218 210 278 209 1
124 125 293 295 1
172 269 164 312 1
119 136 128 303 1
201 214 245 285 1
261 265 270 305 1
171 180 269 172 1
72 266 73 94 1
100 85 101 259 1
252 256 259 275 1
126 140 299 127 1
293 124 295 307 1
12 280 297 302 1
129 121 273 303 1
121 307 273 290 1
226 253 229 238 1
255 269 188 312 1
262 256 269 288 1
250 236 251 315 1
119 128 112 303 1
176 161 168 267 1
248 234 277 309 1
271 233 309 316 1
112 72 94 266 1
172 173 180 312 1
6 311 1 242 1
142 128 267 304 1
93 118 258 284 1
204 270 209 194 1
36 26 19 280 1
50 33 51 286 1
252 261 266 286 1
249 236 250 315 1
298 223 313 316 1
269 172 164 163 1
173 188 180 312 1
269 262 288 312 1
256 258 259 295 1
225 253 297 265 1
300 16 8 294 1
120 121 129 303 1
44 38 287 37 1
187 269 301 179 1
283 308 252 306 1
3 240 302 247 1
182 312 272 255 1
177 169 301 305 1
124 107 295 307 1
254 268 296 253 1
258 115 295 299 1
95 113 266 290 1
108 125 107 295 1
268 257 277 311 1
246 12 297 2 1
227 219 271 278 1
224 190 200 298 1
285 10 297 245 1
210 220 271 211 1
10 34 286 25 1
55 54 263 289 1
81 80 66 283 1
286 10 24 33 1
270 254 274 278 1
264 300 8 294 1
162 169 151 282 1
269 261 270 305 1
314 188 197 274 1
65 52 58 308 1
134 127 116 299 1
209 296 218 217 1
311 6 23 7 1
115 101 258 295 1
279 37 280 287 1
6 311 23 22 1
280 252 287 286 1
251 298 284 300 1
21 22 29 279 1
65 306 64 283 1
50 63 73 276 1
184 261 265 285 1
212 205 221 313 1
64 65 283 308 1
231 232 268 296 1
108 107 99 295 1
45 53 44 287 1
245 237 10 297 1
66 80 65 283 1
280 252 286 257 1
266 73 306 276 1
255 190 183 199 1
266 252 286 306 1
18 251 284 300 1
182 312 174 272 1
21 28 27 280 1
298 206 313 223 1
199 190 213 298 1
121 307 105 122 1
172 164 173 312 1
275 281 283 306 1
173 164 155 312 1
108 99 91 295 1
89 82 90 310 1
238 237 225 297 1
25 26 34 286 1
152 162 282 288 1
263 264 256 252 1
263 18 284 300 1
233 234 309 316 1
233 232 271 309 1
314 204 196 195 1
296 209 218 278 1
294 31 40 41 1
184 159 261 304 1
224 158 284 200 1
256 260 269 288 1
38 46 279 39 1
294 15 16 8 1
4 13 3 302 1
104 307 290 105 1
25 11 26 297 1
177 193 305 186 1
228 223 298 316 1
266 261 303 304 1
20 3 302 19 1
267 136 292 303 1
223 213 228 298 1
37 28 279 27 1
188 181 255 312 1
277 248 309 311 1
37 36 280 287 1
172 163 269 171 1
214 207 225 265 1
100 108 91 295 1
63 50 51 308 1
108 100 109 295 1
180 188 269 312 1
21 6 257 14 1
277 313 271 316 1
252 286 306 308 1
178 171 269 170 1
15 294 31 30 1
195 204 194 314 1
113 119 112 303 1
68 75 67 275 1
46 62 61 291 1
230 231 240 268 1
19 302 20 280 1
110 201 9 285 1
44 53 59 287 1
170 169 162 282 1
301 194 178 193 1
178 169 170 301 1
7 242 311 6 1
242 7 311 248 1
6 21 257 22 1
56 18 263 42 1
225 285 237 214 1
43 35 287 308 1
210 271 219 278 1
83 91 90 310 1
6 311 14 5 1
65 306 283 80 1
29 28 21 279 1
209 296 217 208 1
68 69 84 310 1
99 90 91 310 1
266 72 73 276 1
19 20 27 280 1
158 224 284 251 1
139 155 262 156 1
273 123 293 307 1
89 82 275 281 1
10 286 285 297 1
212 211 274 313 1
24 49 276 286 1
286 276 306 308 1
196 197 212 274 1
183 255 182 272 1
106 98 295 307 1
268 277 309 311 1
110 111 135 304 1
191 185 202 305 1
72 48 276 304 1
16 300 8 249 1
187 269 180 314 1
48 110 285 304 1
169 186 177 301 1
184 261 285 304 1
249 250 300 315 1
70 54 71 289 1
78 258 259 284 1
203 192 193 270 1
4 240 5 268 1
273 260 288 292 1
97 87 281 290 1
261 253 265 285 1
186 169 178 301 1
7 294 15 23 1
253 270 261 265 1
15 294 32 31 1
301 187 194 195 1
294 15 32 16 1
261 267 282 292 1
269 270 301 305 1
158 57 18 284 1
316 220 271 233 1
257 252 279 287 1
221 205 222 313 1
158 259 57 284 1
32 16 17 300 1
98 97 281 307 1
257 252 264 294 1
26 11 12 297 1
95 113 94 266 1
204 278 211 210 1
281 97 290 307 1
272 298 256 284 1
128 136 267 303 1
241 1 268 309 1
113 266 290 303 1
209 296 208 278 1
250 251 17 300 1
70 69 54 289 1
5 311 302 268 1
303 113 103 290 1
187 178 179 301 1
14 13 4 302 1
56 71 55 263 1
275 259 289 310 1
303 103 119 120 1
206 223 205 313 1
237 285 245 214 1
166 148 167 272 1
269 255 256 272 1
236 228 298 315 1
104 307 105 121 1
260 273 290 303 1
34 10 286 33 1
155 288 262 312 1
18 57 263 284 1
255 183 182 189 1
93 117 78 258 1
194 270 301 314 1
115 109 295 299 1
35 280 287 286 1
253 254 270 296 1
73 63 74 276 1
311 5 302 14 1
44 43 37 287 1
274 270 278 314 1
230 253 268 247 1
68 275 289 310 1
117 134 116 258 1
134 116 258 299 1
25 280 26 286 1
281 310 295 275 1
205 198 255 274 1
248 243 8 277 1
254 257 253 252 1
203 215 202 265 1
205 198 206 255 1
285 10 245 24 1
283 58 287 308 1
278 204 211 274 1
71 77 76 259 1
136 137 292 303 1
38 287 279 45 1
36 35 26 280 1
162 163 282 288 1
298 272 256 255 1
279 40 291 294 1
150 168 267 282 1
104 307 121 290 1
68 275 291 289 1
269 260 254 261 1
240 241 1 268 1
191 207 184 265 1
105 290 97 307 1
269 255 188 274 1
254 271 274 278 1
64 52 65 308 1
58 44 287 43 1
154 145 146 288 1
204 314 196 274 1
138 146 145 288 1
68 61 289 291 1
236 244 228 315 1
153 154 164 288 1
287 53 60 291 1
103 95 96 290 1
294 279 22 257 1
85 84 289 310 1
285 225 237 297 1
198 189 206 255 1
95 96 290 306 1
311 264 8 294 1
182 312 181 174 1
32 263 294 300 1
167 183 166 272 1
48 9 276 285 1
30 40 279 294 1
155 288 154 262 1
148 157 262 272 1
246 238 253 297 1
189 199 206 255 1
189 181 182 255 1
41 32 263 294 1
208 203 193 270 1
150 161 149 267 1
252 279 291 294 1
157 165 262 272 1
51 50 286 308 1
308 283 252 287 1
199 189 183 255 1
298 254 256 264 1
266 95 290 306 1
260 293 295 307 1
256 259 263 252 1
262 146 288 154 1
260 282 288 292 1
24 9 245 285 1
35 286 287 308 1
164 269 288 312 1
256 260 293 295 1
316 220 221 271 1
176 175 160 267 1
262 148 272 299 1
103 113 95 290 1
268 254 296 271 1
259 102 78 77 1
105 98 307 97 1
153 145 154 288 1
255 269 256 254 1
273 121 290 303 1
288 155 164 312 1
174 262 312 156 1
260 261 282 292 1
109 125 295 299 1
65 58 283 308 1
156 155 262 312 1
171 163 269 282 1
57 259 263 284 1
247 2 253 302 1
226 238 225 265 1
267 261 282 305 1
150 151 282 292 1
220 233 227 271 1
139 140 262 299 1
267 150 282 292 1
62 54 289 291 1
187 269 314 301 1
9 24 276 285 1
260 256 275 295 1
254 269 270 314 1
9 24 48 276 1
31 294 40 30 1
26 12 280 297 1
156 173 312 174 1
270 193 301 305 1
258 256 272 299 1
208 265 270 296 1
217 265 216 203 1
240 3 302 4 1
87 306 96 79 1
273 143 129 292 1
275 68 291 67 1
268 254 271 277 1
158 78 259 93 1
261 276 286 285 1
262 256 293 299 1
279 294 22 29 1
123 130 273 131 1
222 221 313 316 1
85 76 259 289 1
48 24 49 276 1
209 208 270 278 1
162 151 152 282 1
263 264 294 300 1
266 260 290 303 1
265 217 208 203 1
299 126 109 125 1
142 160 135 267 1
269 255 272 312 1
2 12 297 302 1
186 177 301 305 1
194 204 270 314 1
46 45 279 291 1
260 273 288 293 1
168 161 150 267 1
261 269 282 305 1
77 101 259 102 1
216 230 296 217 1
259 252 275 289 1
170 171 269 282 1
270 204 209 278 1
293 256 295 299 1
127 134 140 299 1
282 152 288 292 1
264 257 294 311 1
197 181 274 188 1
97 88 89 281 1
260 252 266 306 1
256 258 272 284 1
264 311 8 277 1
118 141 258 284 1
314 197 180 196 1
282 269 301 305 1
6 257 311 22 1
277 271 309 316 1
217 265 296 216 1
306 87 80 79 1
112 111 266 304 1
80 81 281 283 1
148 134 258 299 1
274 211 278 313 1
237 238 246 297 1
5 240 1 268 1
76 71 259 289 1
253 252 257 286 1
63 74 276 306 1
261 267 292 303 1
35 52 51 308 1
281 260 295 307 1
156 139 157 262 1
138 145 273 288 1
138 146 288 293 1
36 43 35 287 1
82 89 88 281 1
230 253 247 239 1
11 237 246 297 1
183 182 166 272 1
275 81 283 281 1
252 279 287 291 1
208 193 194 270 1
274 181 255 188 1
243 8 277 315 1
252 259 263 289 1
294 23 22 30 1
143 273 144 292 1
87 306 281 96 1
257 20 302 280 1
147 132 293 146 1
48 110 9 285 1
53 46 61 291 1
190 255 272 298 1
164 163 153 288 1
87 306 80 281 1
125 126 293 299 1
312 182 181 255 1
253 230 268 296 1
191 184 261 265 1
284 256 259 263 1
231 232 240 268 1
139 293 133 299 1
191 202 265 305 1
273 260 292 303 1
6 257 14 311 1
269 187 180 179 1
175 191 261 305 1
69 68 289 310 1
254 278 296 271 1
156 157 165 262 1
296 227 278 218 1
3 20 302 13 1
28 37 279 38 1
311 7 8 248 1
14 257 302 311 1
264 284 298 300 1
209 208 194 270 1
159 175 261 267 1
234 248 242 309 1
167 141 118 284 1
267 128 303 304 1
251 158 18 284 1
195 194 301 314 1
256 252 260 275 1
216 265 229 226 1
118 93 158 284 1
270 204 278 314 1
275 81 82 283 1
205 212 274 313 1
83 82 75 275 1
314 187 196 180 1
141 117 118 258 1
