v 0.00183957182507491 -0.000582692117173724 -1.00077538542146
v 0.160489735093263 0.555709375278808 -0.816666813073129
v 0.269691971146229 0.388557612959368 -0.896913626332302
v 0.189905775041174 0.195947558822656 -0.962955566082602
v 0.193614632073862 0.000400738868835628 -0.981559052813736
v 0.286049849512186 -0.194928593222016 -0.954416491447959
v 0.268414594253525 -0.386444916035402 -0.898329069272642
v 0.160916618899963 -0.554711612544368 -0.817794025510007
v 0.140904876080484 0.993845756815275 -0.128147112049435
v 0.32800487530939 0.844249223221007 -0.450554197425091
v 0.332729104539058 0.715568625892867 -0.629256927334258
v 0.393334231962499 0.564765860370941 -0.741189530229176
v 0.374539627279811 0.196298894103098 -0.906871610655069
v 0.381536172622362 0.000907619061133533 -0.924711650008427
v 0.397188203173571 -0.560669511068541 -0.741234265950576
v 0.333101893896044 -0.714606150030076 -0.630097348463107
v 0.328409085959027 -0.846534412604846 -0.453277887774013
v 0.289715916453329 -0.941576696650969 -0.248887695691936
v 0.589794068215491 0.389144145456187 -0.727682562630905
v 0.544456922614984 0.197135751591458 -0.817068926955693
v 0.554778285956055 0.000520228271585588 -0.833166543149247
v 0.544674812464056 -0.193804064427527 -0.817540864701558
v 0.512983223456771 -0.380666040294996 -0.770997610750309
v 0.308113413797045 0.937122549282993 -0.226358636377979
v 0.499236879978948 0.708048838938124 -0.500684306171364
v 0.587657448133354 0.556737026260478 -0.589209703297799
v 0.692983044231795 0.196402097923294 -0.694797511316976
v 0.706767644530083 0.00129091400858928 -0.708170105406022
v 0.692826646434091 -0.195304184335447 -0.694744070189963
v 0.722207909976637 -0.387203430899768 -0.595403810346347
v 0.588881525042232 -0.55502276779202 -0.589508761461225
v 0.501211854432949 -0.706841480105361 -0.501937520326583
v 0.491054294761857 0.837424483598288 -0.263914425419924
v 0.627544375409774 0.714351861524523 -0.336506714668913
v 0.739257213282643 0.56249504649586 -0.397957636833597
v 0.767982280864905 0.383631637539295 -0.514149913079747
v 0.816218692169264 0.19737690867409 -0.545200633603673
v 0.832218055168967 0.00123898730975597 -0.555621003048039
v 0.816962085665407 -0.193653931754063 -0.545072499996486
v 0.740547655214509 -0.562143395573967 -0.396783177830759
v 0.629803731412071 -0.712344281629835 -0.337416612998903
v 0.494169940858988 -0.835163851069328 -0.264039581263768
v 0.895104755497639 0.389048532902874 -0.274310089888567
v 0.95269737142791 0.198351634111597 -0.292365448624986
v 0.923745766698655 0.000251647443569015 -0.383890655535928
v 0.952489241514429 -0.195290376832708 -0.291892282839163
v 0.895553304414863 -0.387531713578645 -0.276813337326706
v 0.155290020206087 0.999591292251355 0.100037767812922
v 0.382405740531741 0.934337432884255 0.0200673308562806
v 0.560291756158829 0.852947656682768 0.0272453662651376
v 0.708342724666741 0.714908921173735 -0.0735505917474232
v 0.835580092765756 0.563138039752798 -0.0832306692983739
v 0.981284957598769 0.00111955311767944 -0.196099195911409
v 0.837694799099119 -0.560888925550373 -0.0833292669652231
v 0.70911638309739 -0.714066639254334 -0.0735162909080373
v 0.562761220146304 -0.85145810222343 0.026138446669303
v 0.384922115147799 -0.932557708592089 0.016436361460689
v 0.924825081662544 0.383567914925877 -0.00214836879596363
v 0.981598049411022 0.196208895755425 -0.00157539672496635
v 1.00086994922276 0.00132392396565234 0.000260654972849665
v 0.982264414954316 -0.192935527803893 -0.00118247825347543
v 0.926155838051067 -0.380716343736172 -0.0015040910238283
v 0.694649841788925 0.707687975460411 0.137083250664162
v 0.805592114819255 0.563289915098216 0.240850613967311
v 0.896294927089282 0.389789029708327 0.268326451344504
v 0.953681010043505 0.199634290008639 0.286081514654103
v 0.981353197731479 0.000193579367526923 0.194033812843614
v 0.953668394916798 -0.194548777423307 0.286015743959712
v 0.897389084277001 -0.386913376133636 0.268707457858439
v 0.806078339361282 -0.563462978391403 0.240734972600512
v 0.695205881273021 -0.706756877700806 0.137720659023823
v 0.255023894532473 0.944260919511931 0.281672414414291
v 0.449756386904079 0.84344866934491 0.328227754577298
v 0.628220674036856 0.715411436888672 0.33326876660891
v 0.925036399216263 0.00130460862512752 0.38187134530416
v 0.628682811147626 -0.714565560303418 0.333004567880307
v 0.450966944928949 -0.842504904591814 0.328329091788002
v 0.25044748501728 -0.948087445247778 0.283691762767448
v 0.652772134692392 0.563369432037027 0.52958966540447
v 0.769918686552865 0.384231047232604 0.51206298993264
v 0.818150631788358 0.193896720221478 0.543836587878222
v 0.832432761206324 0.00119330042176053 0.554938202611617
v 0.817937028308907 -0.193674097873062 0.544256630133562
v 0.770602002036484 -0.38171414338439 0.512414230133716
v 0.652970393811367 -0.561509112433494 0.529780525890736
v 0.500874640617507 0.708256097943941 0.499676203103811
v 0.595481502597468 0.388938282181068 0.72247542126439
v 0.69464460038453 0.196459385050601 0.692737990283984
v 0.708321458062074 0.00110435086244023 0.706762163627624
v 0.694758819675385 -0.195288729264579 0.692886959491495
v 0.595041570088349 -0.385305868835657 0.723120155699381
v 0.501741544747925 -0.70655976099911 0.501297191544437
v 0.143157589357276 -0.984445898964505 0.123774877237662
v 0.264100384863103 0.837657073307429 0.491287506248192
v 0.339157106001387 0.713754093688147 0.626191749287055
v 0.463176048554169 0.557136688610686 0.690658908465109
v 0.545791955379622 0.196055949587991 0.815955497358468
v 0.55640338483227 -0.000763753899062007 0.832236129363979
v 0.545419952753014 -0.19398293160513 0.816715304807124
v 0.463499538111932 -0.554913511481395 0.69179482609793
v 0.339673563317258 -0.712723456924988 0.627353081129353
v 0.264443422144257 -0.836586726000303 0.492703022848274
v 0.245110801936266 0.563518192115013 0.803380689195068
v 0.276663559434106 0.389303440804216 0.895174932369683
v 0.292272869848159 0.198885913788095 0.95183721084387
v 0.383899004593528 0.000238543748605724 0.923807044762105
v 0.292532713710483 -0.194948479745727 0.952769539348958
v 0.277523335625214 -0.386314264514633 0.895427232682817
v 0.244988074468201 -0.560436129138979 0.80485320006809
v -0.0593188697798748 1.01685999064589 0.0657051682925426
v -0.0161368378740237 0.93678958989842 0.379742006318574
v 0.0572923367681407 0.837593031095341 0.554736474042944
v 0.138902020733724 0.708342786933823 0.693330680861604
v 0.195714978680852 -0.00130019713535014 0.981846795009084
v 0.139199057898639 -0.707291569673915 0.694579861282826
v 0.0572968197038683 -0.836520203282794 0.555860135205725
v -0.0177861857735427 -0.933879443611325 0.383960563061762
v -0.0778041506461807 -1.00087574857573 0.157902992846078
v -0.0686215155830874 0.714174584852404 0.708462307457461
v -0.0775890023479903 0.563051605373739 0.836992988967748
v 0.00130681082306927 0.383769980499582 0.924634176453638
v 0.00156793520629439 0.196966699762467 0.981592828499651
v -0.000335878303413112 0.00149808214600985 1.00061781535025
v 0.00149752729618512 -0.192686878278466 0.98244647758028
v 0.00117653635749447 -0.381770169903769 0.925388934633267
v -0.0781077725065078 -0.56127332630582 0.837606100330893
v -0.0686058086680223 -0.712935434426659 0.710535989755994
v -0.159480582544564 0.837136866084698 0.533507703418275
v -0.269933766450653 0.38913737929773 0.896781174742179
v -0.285736699139929 0.200573979196258 0.953444580361757
v -0.194049248021296 0.000162521092676586 0.981331041892866
v -0.286701679067528 -0.194269611405968 0.954201240106469
v -0.269594694485555 -0.386448862187903 0.897027716426556
v -0.160542458651817 -0.836846031618807 0.534314188643508
v -0.227400861556332 0.93264449592171 0.306847068847128
v -0.332640278352724 0.71493122908923 0.630300236419912
v -0.394544804166165 0.563473345083206 0.741101376807258
v -0.381874135856475 0.00101676177352502 0.925179744267403
v -0.395738854427246 -0.560548099674214 0.742682009057547
v -0.333917204747872 -0.713454181497459 0.630733000412017
v -0.225815947521145 -0.930609924198008 0.309382681431732
v -0.352715047671853 0.837285053145465 0.431265313113992
v -0.512000662931918 0.383913784131039 0.770271167151517
v -0.54411891956455 0.19658606184869 0.818549650127706
v -0.5549290018869 0.00116267771679883 0.832423699228412
v -0.544056272694898 -0.193489948284065 0.817873299679638
v -0.512758331639447 -0.380489387677135 0.771002919076956
v -0.353960962454114 -0.836220577231944 0.432838780359351
v -0.499845335050827 0.707501422839716 0.501440485673802
v -0.647415683629302 0.56317934639882 0.537094194508544
v -0.722489655310173 0.38954253397006 0.595251950649675
v -0.692790679738874 0.196474090032127 0.694600087466578
v -0.706774307597108 0.00122471813683862 0.708053330342998
v -0.692943746875336 -0.195245124214271 0.69472731488164
v -0.723429500745035 -0.386003918677855 0.596187206163163
v -0.647763726559317 -0.561417486468785 0.537449836919652
v -0.500842414222084 -0.706437674821733 0.502027954713379
v 0.0643103551724188 -1.02244853280722 -0.0541750925000384
v -0.35770036717438 0.933357657084671 0.132376877515414
v -0.490204996929406 0.837981749057753 0.264416612690591
v -0.626779423899073 0.715480639934671 0.336680324204412
v -0.815023745657666 0.196897574393611 0.545812354818239
v -0.831172154025036 0.00107484262210298 0.556796375735338
v -0.815200264242398 -0.194762472499409 0.545984735782786
v -0.628137739456181 -0.713450819128664 0.336917111182296
v -0.492481588698628 -0.836767929113169 0.264974176111606
v -0.358287850758835 -0.936244016706155 0.129627482269341
v -0.76865384961163 0.556286448813757 0.319655191312767
v -0.894268421887375 0.388828210072341 0.27711596830539
v -0.906173528618049 0.19660268994653 0.376840995499892
v -0.924499810463828 0.00130152819424499 0.383732678055541
v -0.907123104107941 -0.19404052072784 0.376684130195161
v -0.895269257616467 -0.388050870920955 0.277250286162244
v -0.769495228334792 -0.554933477905618 0.319545243351801
v -0.554551265364029 0.837042447948181 0.0571566897061281
v -0.694253070581283 0.707747029817776 0.139472928531206
v -0.836320612402834 0.563316544927271 0.0825220012856516
v -0.990770627023842 0.197747922222579 0.0988718559456202
v -0.98082935392821 0.000386406441118498 0.196269431242565
v -0.991037068054127 -0.194716799252649 0.0998607766235809
v -0.836413384647492 -0.561441789559169 0.082471875004124
v -0.694803096698209 -0.706731354062516 0.139506050377866
v -0.556096096816366 -0.836476669306277 0.0576857329705277
v -0.361515684586473 0.941008240761038 -0.107476439150499
v -0.707939847125023 0.714582963481487 -0.0696948109852997
v -0.924482388962545 0.384015973983987 0.00131582473151096
v -1.00045673419024 0.00117920916986732 0.000419048250051473
v -0.925674597617061 -0.381226581774171 0.0011127993187516
v -0.709384632488958 -0.712656515988852 -0.0703431553627215
v -0.363195394665024 -0.936725944922113 -0.112373190098095
v -0.533520819146221 0.837022706066194 -0.159569626441708
v -0.816672998661061 0.556185787340361 -0.161389990415584
v -0.897371201943278 0.390127280418989 -0.267209208351501
v -0.954549053143275 0.1998896386924 -0.2857793305855
v -0.98132506201925 0.000210598512659355 -0.194022464447818
v -0.955365818842636 -0.194709453041557 -0.284548844848613
v -0.898297182929163 -0.387966059051561 -0.267712294816016
v -0.817164285009893 -0.554645308860442 -0.161123342152076
v -0.534386566547943 -0.836520025937498 -0.1631861146393
v -0.150940480342768 -0.99867963326664 -0.0981256015402834
v -0.0979388983194707 0.995252003281678 -0.154754010082438
v -0.62983272640921 0.714775113425289 -0.332668979876708
v -0.741445348448373 0.561031901900972 -0.397482615886052
v -0.925045449652499 -0.00113614749512873 -0.38278875771162
v -0.742317490274803 -0.560482394198367 -0.397360290632051
v -0.630041200732318 -0.714628100714101 -0.333579895915961
v -0.43115884412195 0.838875018399617 -0.352352454179561
v -0.769357303924669 0.383944036903416 -0.512440194832541
v -0.817438189712059 0.196309509397006 -0.544298050519189
v -0.832621851015333 0.00116508961226593 -0.555818349136001
v -0.817597771621615 -0.192471627738931 -0.544866149940504
v -0.770876719174142 -0.380676440066313 -0.513427277313227
v -0.381498516713743 -0.848585117170175 -0.410806822050412
v -0.18200667878759 0.938294837147975 -0.333950992211015
v -0.501312027214154 0.707565362413003 -0.499993516099781
v -0.536351040633907 0.563065524889292 -0.647604684962147
v -0.594938465634886 0.388888807662183 -0.721746085419809
v -0.63321236249393 0.199523543520968 -0.767628792127164
v -0.70808276483023 0.000432329611877783 -0.706464564754962
v -0.633194144948697 -0.196716476255122 -0.768472705690919
v -0.595856001941339 -0.38490411865497 -0.723187977677313
v -0.536457353248538 -0.561262549325801 -0.648311877716093
v -0.501255096894412 -0.70709318090595 -0.500587982755751
v -0.180609597327687 -0.937907810496611 -0.333135458193176
v -0.263517818099011 0.838181107598739 -0.491908406450384
v -0.337027982228902 0.715438258564932 -0.625645177298535
v -0.556777929275433 0.00120316889783762 -0.831509800401915
v -0.337177363828496 -0.713603709146271 -0.628437681124796
v -0.319644583719981 0.556295351146464 -0.768728120687676
v -0.277277482879159 0.388591599061711 -0.894793276791836
v -0.377143136913081 0.195902542837572 -0.906766173869603
v -0.382986760883298 0.0011518914496582 -0.924331766110847
v -0.377052543147757 -0.194435329295924 -0.906764608018939
v -0.276818612208341 -0.387971985587781 -0.895674727294598
v -0.319326192916318 -0.554992856340343 -0.769630025992568
v -0.161277989419298 -0.83685863205968 -0.533314687916298
v 0.0284516297096082 0.849556070071016 -0.564369695788337
v -0.139606252492828 0.708321557173534 -0.693910082578332
v -0.0811000814767532 0.560544074487095 -0.837049216850238
v -0.0967827991279209 0.196387146432379 -0.991374628761134
v -0.196212409221447 7.49827493601455e-05 -0.98168294365819
v -0.0957151406764263 -0.200157304109658 -0.990955051488337
v -0.0809266873530287 -0.56426080717528 -0.834965243669737
v -0.13985370463715 -0.706692683756292 -0.695765662493313
v 0.109128291826496 0.938250962962664 -0.360682213844192
v 0.0742799173951845 0.713616483235509 -0.708567261039018
v 0.00154583149476577 0.383763374870492 -0.924487923073611
v 0.00125575987166435 -0.382452262362983 -0.925173322265181
v 0.0731348443803857 -0.713730642226679 -0.709203724682147
v 0.0600857316718694 -0.840056822636019 -0.558384083492143
v 0.0428828751559098 -0.931785941867521 -0.384862990659676
f 247 2 3
f 3 4 240
f 240 5 1
f 1 6 242
f 242 7 248
f 248 8 243
f 239 246 2
f 246 12 2
f 16 17 250
f 17 18 251
f 4 3 13
f 4 14 5
f 201 110 9
f 237 245 10
f 7 15 8
f 246 237 11
f 8 16 249
f 6 21 22
f 6 23 7
f 12 19 3
f 3 20 13
f 13 21 14
f 20 19 27
f 21 27 28
f 21 29 22
f 245 9 24
f 22 30 23
f 30 31 15
f 10 25 11
f 16 15 32
f 12 11 26
f 24 33 10
f 31 30 40
f 10 34 25
f 31 41 32
f 34 35 26
f 32 42 17
f 26 36 19
f 27 36 37
f 28 37 38
f 28 39 29
f 35 43 36
f 43 44 37
f 44 45 38
f 38 46 39
f 39 47 30
f 33 24 50
f 40 47 54
f 34 33 51
f 40 55 41
f 51 52 35
f 55 56 42
f 56 57 18
f 45 44 53
f 110 48 9
f 48 49 24
f 44 58 59
f 53 59 60
f 53 61 46
f 46 62 47
f 52 58 43
f 69 70 54
f 50 63 51
f 54 71 55
f 52 63 64
f 52 65 58
f 65 66 59
f 66 67 60
f 60 68 61
f 61 69 62
f 78 93 158
f 67 66 75
f 48 72 49
f 72 73 50
f 50 74 63
f 70 76 71
f 76 77 56
f 56 78 57
f 64 74 79
f 65 64 80
f 66 80 81
f 75 81 82
f 75 83 68
f 68 84 69
f 70 84 85
f 82 88 89
f 82 90 83
f 83 91 84
f 73 86 74
f 85 92 76
f 79 87 80
f 87 88 81
f 85 101 92
f 95 96 79
f 101 102 77
f 88 87 97
f 89 97 98
f 89 99 90
f 73 72 94
f 85 91 100
f 73 95 86
f 98 107 99
f 99 108 91
f 108 109 100
f 96 95 103
f 96 104 87
f 104 105 97
f 105 106 98
f 102 115 116
f 102 117 78
f 78 118 93
f 106 105 114
f 158 93 118
f 72 48 111
f 94 72 112
f 95 94 113
f 109 115 101
f 114 124 107
f 107 125 108
f 109 125 126
f 112 119 113
f 109 127 115
f 119 120 103
f 104 103 121
f 105 121 122
f 114 122 123
f 116 127 134
f 120 129 121
f 129 130 122
f 130 131 123
f 123 132 124
f 124 133 125
f 111 128 112
f 126 133 139
f 128 136 119
f 126 140 127
f 136 137 120
f 134 141 117
f 131 130 138
f 110 135 111
f 130 143 144
f 138 144 145
f 138 146 132
f 132 147 133
f 135 142 128
f 134 140 148
f 137 143 129
f 155 156 139
f 142 149 136
f 139 157 140
f 137 149 150
f 137 151 143
f 151 152 144
f 145 152 153
f 145 154 146
f 146 155 147
f 152 151 162
f 153 162 163
f 153 164 154
f 110 159 135
f 135 160 142
f 142 161 149
f 156 165 157
f 165 166 148
f 141 148 167
f 173 174 156
f 150 161 168
f 151 150 169
f 169 170 162
f 163 170 171
f 163 172 164
f 164 173 155
f 167 200 118
f 178 179 171
f 200 158 118
f 171 180 172
f 159 175 160
f 174 173 181
f 161 160 176
f 174 182 165
f 168 176 177
f 166 182 183
f 170 169 178
f 175 185 176
f 181 189 182
f 177 186 169
f 183 190 167
f 179 178 187
f 159 110 184
f 180 188 173
f 194 195 187
f 187 196 180
f 180 197 188
f 184 191 175
f 197 198 181
f 177 185 192
f 183 189 199
f 177 193 186
f 193 194 178
f 198 206 189
f 202 203 192
f 195 194 204
f 198 197 205
f 191 202 185
f 204 211 196
f 196 212 197
f 191 184 207
f 199 206 213
f 203 208 193
f 194 208 209
f 204 209 210
f 203 217 208
f 213 224 190
f 217 218 209
f 218 219 210
f 210 220 211
f 201 214 184
f 211 221 212
f 221 222 205
f 207 215 202
f 205 223 206
f 203 215 216
f 214 225 207
f 207 226 215
f 222 228 223
f 219 218 227
f 217 216 230
f 230 231 218
f 227 231 232
f 227 233 220
f 220 234 221
f 234 235 222
f 216 226 229
f 213 228 236
f 225 214 237
f 235 234 243
f 226 225 238
f 235 244 228
f 229 238 239
f 231 230 240
f 158 200 224
f 240 241 232
f 232 242 233
f 236 251 224
f 241 240 1
f 214 201 245
f 242 248 234
f 237 246 238
f 243 249 244
f 249 250 236
f 230 239 247
f 247 239 2
f 240 247 3
f 240 4 5
f 1 5 6
f 6 7 242
f 248 7 8
f 249 243 8
f 246 11 12
f 250 249 16
f 3 2 12
f 251 250 17
f 18 158 251
f 4 13 14
f 6 5 14
f 245 201 9
f 237 10 11
f 15 16 8
f 6 14 21
f 6 22 23
f 15 7 23
f 19 20 3
f 13 20 21
f 17 16 32
f 19 12 26
f 21 20 27
f 21 28 29
f 22 29 30
f 10 245 24
f 15 23 30
f 15 31 32
f 11 25 26
f 30 29 39
f 10 33 34
f 40 41 31
f 26 25 34
f 41 42 32
f 26 35 36
f 18 17 42
f 27 19 36
f 28 27 37
f 28 38 39
f 37 36 43
f 38 37 44
f 38 45 46
f 46 47 39
f 47 40 30
f 24 49 50
f 33 50 51
f 54 55 40
f 35 34 51
f 42 41 55
f 43 35 52
f 18 42 56
f 158 18 57
f 46 45 53
f 24 9 48
f 44 43 58
f 53 44 59
f 53 60 61
f 46 61 62
f 54 47 62
f 54 62 69
f 54 70 71
f 52 51 63
f 56 55 71
f 52 64 65
f 59 58 65
f 60 59 66
f 60 67 68
f 68 69 61
f 158 57 78
f 68 67 75
f 50 49 72
f 50 73 74
f 64 63 74
f 56 71 76
f 77 78 56
f 76 70 85
f 64 79 80
f 66 65 80
f 75 66 81
f 75 82 83
f 68 83 84
f 70 69 84
f 82 81 88
f 82 89 90
f 83 90 91
f 91 85 84
f 79 74 86
f 77 76 92
f 81 80 87
f 85 100 101
f 79 86 95
f 77 92 101
f 87 79 96
f 78 77 102
f 89 88 97
f 89 98 99
f 91 90 99
f 73 94 95
f 98 106 107
f 107 108 99
f 100 91 108
f 101 100 109
f 96 103 104
f 97 87 104
f 98 97 105
f 103 95 113
f 102 101 115
f 116 117 102
f 117 118 78
f 107 106 114
f 48 110 111
f 111 112 72
f 94 112 113
f 114 123 124
f 107 124 125
f 109 108 125
f 126 127 109
f 103 113 119
f 127 116 115
f 103 120 121
f 105 104 121
f 114 105 122
f 117 116 134
f 122 121 129
f 123 122 130
f 123 131 132
f 132 133 124
f 133 126 125
f 119 112 128
f 128 111 135
f 139 140 126
f 120 119 136
f 140 134 127
f 129 120 137
f 118 117 141
f 132 131 138
f 141 134 148
f 130 129 143
f 138 130 144
f 138 145 146
f 132 146 147
f 139 133 147
f 136 128 142
f 139 147 155
f 139 156 157
f 137 136 149
f 148 140 157
f 137 150 151
f 144 143 151
f 145 144 152
f 145 153 154
f 146 154 155
f 118 141 167
f 153 152 162
f 153 163 164
f 155 154 164
f 135 159 160
f 142 160 161
f 150 149 161
f 148 157 165
f 166 167 148
f 156 155 173
f 165 156 174
f 150 168 169
f 162 151 169
f 163 162 170
f 163 171 172
f 164 172 173
f 171 170 178
f 171 179 180
f 173 172 180
f 160 175 176
f 174 181 182
f 168 161 176
f 166 165 182
f 169 168 177
f 167 166 183
f 177 176 185
f 189 183 182
f 178 169 186
f 190 200 167
f 180 179 187
f 175 159 184
f 181 173 188
f 187 178 194
f 187 195 196
f 196 197 180
f 181 188 197
f 185 175 191
f 189 181 198
f 177 192 193
f 190 183 199
f 178 186 193
f 205 206 198
f 192 185 202
f 206 199 189
f 193 192 203
f 196 195 204
f 110 201 184
f 204 210 211
f 196 211 212
f 205 197 212
f 202 191 207
f 190 199 213
f 194 193 208
f 204 194 209
f 213 206 223
f 203 216 217
f 209 208 217
f 224 200 190
f 210 209 218
f 210 219 220
f 220 221 211
f 207 184 214
f 205 212 221
f 205 222 223
f 203 202 215
f 207 225 226
f 216 215 226
f 213 223 228
f 220 219 227
f 216 229 230
f 224 213 236
f 218 217 230
f 227 218 231
f 227 232 233
f 220 233 234
f 222 221 234
f 228 222 235
f 234 233 242
f 237 238 225
f 235 243 244
f 229 226 238
f 236 228 244
f 230 229 239
f 232 231 240
f 232 241 242
f 250 251 236
f 240 230 247
f 251 158 224
f 242 241 1
f 237 214 245
f 243 234 248
f 239 238 246
f 236 244 249
