MeshVersionFormatted 1
Dimension 3
Vertices
594
-0.80000000000000004 0.80000000000000004 -0.5 1
-0.80000000000000193 0.80000000000000504 -0.30000000000000321 1
-0.79999999999999116 0.79999999999999749 -0.10000000000000356 1
-0.7999999999999915 0.79999999999998528 0.10000000000000135 1
-0.7999999999999976 0.80000000000000038 0.30000000000000127 1
-0.79999999999999971 0.80000000000000171 0.50000000000000056 1
-0.7999999999999996 1.0604999999999993 -0.50000000000000078 1
-0.7999999999999996 1.0604999999999998 -0.30000000000000121 1
-0.79999999999999838 1.0604999999999991 -0.10000000000000114 1
-0.79999999999999805 1.060499999999998 0.10000000000000001 1
-0.79999999999999871 1.0604999999999991 0.30000000000000027 1
-0.79999999999999905 1.0604999999999993 0.5 1
-0.79999999999999971 1.3119999999999987 -0.50000000000000067 1
-0.79999999999999971 1.3119999999999989 -0.30000000000000071 1
-0.79999999999999949 1.3119999999999989 -0.10000000000000075 1
-0.79999999999999949 1.3119999999999992 0.09999999999999945 1
-0.79999999999999916 1.3119999999999989 0.29999999999999932 1
-0.79999999999999927 1.3119999999999989 0.49999999999999928 1
-0.80000000000000027 1.5544999999999998 -0.50000000000000122 1
-0.80000000000000016 1.5545 -0.30000000000000115 1
-0.79999999999999982 1.5544999999999993 -0.10000000000000106 1
-0.79999999999999971 1.5544999999999989 0.099999999999999034 1
-0.7999999999999996 1.5544999999999989 0.29999999999999905 1
-0.79999999999999971 1.5544999999999991 0.49999999999999895 1
-0.80000000000000004 1.7879999999999976 -0.50000000000000133 1
-0.80000000000000016 1.7879999999999978 -0.30000000000000143 1
-0.79999999999999982 1.7879999999999976 -0.10000000000000132 1
-0.79999999999999938 1.7879999999999971 0.09999999999999877 1
-0.79999999999999938 1.7879999999999974 0.29999999999999893 1
-0.7999999999999996 1.7879999999999978 0.49999999999999895 1
-0.79999999999999971 2.0124999999999935 -0.50000000000000133 1
-0.79999999999999938 2.0124999999999931 -0.30000000000000132 1
-0.79999999999999938 2.0124999999999935 -0.10000000000000137 1
-0.79999999999999938 2.0124999999999935 0.099999999999998646 1
-0.79999999999999916 2.012499999999994 0.29999999999999871 1
-0.7999999999999996 2.0124999999999953 0.49999999999999895 1
-0.79999999999999916 2.2279999999999931 -0.50000000000000122 1
-0.79999999999999927 2.2279999999999931 -0.30000000000000121 1
-0.79999999999999949 2.2279999999999931 -0.1000000000000013 1
-0.7999999999999996 2.2279999999999944 0.099999999999998826 1
-0.79999999999999938 2.2279999999999935 0.2999999999999986 1
-0.79999999999999949 2.2279999999999931 0.49999999999999845 1
-0.7999999999999996 2.4344999999999923 -0.50000000000000122 1
-0.79999999999999927 2.4344999999999919 -0.30000000000000115 1
-0.79999999999999882 2.434499999999991 -0.10000000000000137 1
-0.79999999999999871 2.4344999999999906 0.09999999999999859 1
-0.79999999999999916 2.4344999999999928 0.29999999999999882 1
-0.79999999999999938 2.4344999999999932 0.49999999999999911 1
-0.79999999999999827 2.6319999999999899 -0.50000000000000056 1
-0.79999999999999805 2.6319999999999895 -0.30000000000000066 1
-0.79999999999999882 2.6319999999999908 -0.1000000000000012 1
-0.79999999999999893 2.6319999999999917 0.099999999999998881 1
-0.7999999999999996 2.6319999999999926 0.29999999999999949 1
-0.79999999999999982 2.6319999999999935 0.49999999999999989 1
-0.79999999999999838 2.8204999999999969 -0.49999999999999972 1
-0.79999999999999793 2.8204999999999969 -0.29999999999999971 1
-0.7999999999999986 2.8204999999999969 -0.10000000000000095 1
-0.79999999999999982 2.8204999999999973 0.099999999999999228 1
-0.8000000000000006 2.8204999999999991 0.30000000000000049 1
-0.80000000000000027 2.8204999999999991 0.50000000000000011 1
-0.80000000000000004 3 -0.5 1
-0.80000000000000138 2.9999999999999978 -0.3000000000000006 1
-0.80000000000000004 3 -0.099999999999999978 1
-0.80000000000000004 3 0.10000000000000009 1
-0.80000000000000215 2.9999999999999929 0.30000000000000066 1
-0.79999999999999916 3.0000000000000053 0.50000000000000089 1
-0.59999999999999976 0.79999999999999505 -0.49999999999999933 1
-0.60000000000000397 0.80000000000000226 -0.30000000000000154 1
-0.60000000000000597 0.79999999999999905 -0.099999999999999992 1
-0.60000000000000009 0.80000000000000004 0.10000000000000009 1
-0.60000000000000042 0.80000000000000082 0.30000000000000016 1
-0.59999999999999976 0.80000000000000071 0.500000000000001 1
-0.59999999999999976 1.0604999999999987 -0.50000000000000056 1
-0.6000000000000002 1.0604999999999996 -0.30000000000000066 1
-0.59999999999999987 1.0604999999999991 -0.10000000000000055 1
-0.59999999999999931 1.0604999999999991 0.099999999999999811 1
-0.59999999999999953 1.0604999999999996 0.30000000000000016 1
-0.59999999999999953 1.0604999999999993 0.50000000000000022 1
-0.59999999999999987 1.3119999999999989 -0.50000000000000056 1
-0.59999999999999976 1.3119999999999989 -0.30000000000000066 1
-0.59999999999999987 1.3119999999999992 -0.1000000000000006 1
-0.59999999999999964 1.3119999999999992 0.099999999999999478 1
-0.59999999999999964 1.3119999999999989 0.29999999999999943 1
-0.59999999999999987 1.3119999999999985 0.49999999999999944 1
-0.60000000000000053 1.5544999999999998 -0.50000000000000122 1
-0.60000000000000053 1.5545 -0.30000000000000104 1
-0.6000000000000002 1.5544999999999993 -0.10000000000000103 1
-0.59999999999999976 1.5544999999999989 0.099999999999999131 1
-0.59999999999999998 1.5544999999999991 0.29999999999999921 1
-0.59999999999999998 1.5544999999999993 0.49999999999999906 1
-0.60000000000000053 1.787999999999998 -0.50000000000000155 1
-0.60000000000000042 1.7879999999999985 -0.30000000000000149 1
-0.59999999999999998 1.787999999999998 -0.10000000000000119 1
-0.59999999999999976 1.7879999999999976 0.099999999999998937 1
-0.59999999999999998 1.7879999999999985 0.2999999999999991 1
-0.59999999999999998 1.7879999999999985 0.49999999999999906 1
-0.59999999999999976 2.0124999999999935 -0.50000000000000144 1
-0.59999999999999942 2.0124999999999931 -0.30000000000000132 1
-0.59999999999999931 2.0124999999999931 -0.10000000000000128 1
-0.5999999999999992 2.0124999999999931 0.099999999999998757 1
-0.59999999999999931 2.012499999999994 0.29999999999999871 1
-0.59999999999999953 2.0124999999999948 0.49999999999999861 1
-0.59999999999999942 2.2279999999999935 -0.50000000000000133 1
-0.59999999999999964 2.2279999999999935 -0.30000000000000132 1
-0.59999999999999964 2.227999999999994 -0.10000000000000128 1
-0.59999999999999953 2.2279999999999949 0.099999999999998826 1
-0.59999999999999931 2.2279999999999935 0.2999999999999986 1
-0.59999999999999953 2.2279999999999935 0.4999999999999985 1
-0.59999999999999942 2.4344999999999919 -0.500000000000001 1
-0.5999999999999992 2.4344999999999914 -0.30000000000000104 1
-0.59999999999999898 2.434499999999991 -0.10000000000000121 1
-0.59999999999999909 2.4344999999999919 0.099999999999998632 1
-0.59999999999999931 2.4344999999999923 0.29999999999999882 1
-0.59999999999999953 2.4344999999999932 0.499999999999999 1
-0.59999999999999898 2.6319999999999912 -0.50000000000000044 1
-0.59999999999999853 2.6319999999999895 -0.30000000000000054 1
-0.59999999999999831 2.6319999999999895 -0.10000000000000096 1
-0.59999999999999876 2.6319999999999912 0.099999999999999006 1
-0.59999999999999931 2.6319999999999921 0.2999999999999996 1
-0.59999999999999976 2.6319999999999935 0.49999999999999994 1
-0.59999999999999953 2.8204999999999969 -0.49999999999999989 1
-0.6000000000000002 2.8204999999999987 -0.29999999999999988 1
-0.59999999999999976 2.8204999999999978 -0.10000000000000062 1
-0.59999999999999976 2.8204999999999996 0.09999999999999909 1
-0.60000000000000053 2.8205000000000009 0.30000000000000066 1
-0.60000000000000098 2.8204999999999991 0.500000000000001 1
-0.59999999999999976 3 -0.49999999999999933 1
-0.60000000000000264 3.0000000000000142 -0.29999999999999932 1
-0.60000000000000009 3 -0.099999999999999978 1
-0.59999999999999598 3.000000000000012 0.10000000000000041 1
-0.59999999999999276 3.00000000000002 0.3000000000000001 1
-0.60000000000000009 3.0000000000000013 0.5 1
-0.39999999999999991 0.80000000000000171 -0.49999999999999878 1
-0.40000000000000058 0.80000000000000027 -0.29999999999999966 1
-0.40000000000000036 0.80000000000000215 -0.099999999999999742 1
-0.40000000000000108 0.80000000000000515 0.10000000000000069 1
-0.39999999999999919 0.80000000000000104 0.30000000000000177 1
-0.40000000000000141 0.80000000000000338 0.50000000000000111 1
-0.40000000000000013 1.0605000000000002 -0.50000000000000033 1
-0.40000000000000013 1.0605000000000002 -0.30000000000000032 1
-0.40000000000000002 1.0605 -0.099999999999999922 1
-0.39999999999999986 1.0604999999999996 0.099999999999999686 1
-0.39999999999999997 1.0604999999999998 0.30000000000000038 1
-0.40000000000000002 1.0604999999999996 0.50000000000000022 1
-0.40000000000000013 1.3120000000000001 -0.50000000000000067 1
-0.40000000000000024 1.3120000000000001 -0.30000000000000054 1
-0.39999999999999991 1.3119999999999992 -0.10000000000000039 1
-0.40000000000000013 1.3119999999999996 0.099999999999999659 1
-0.40000000000000019 1.3119999999999996 0.29999999999999971 1
-0.40000000000000002 1.3119999999999992 0.49999999999999961 1
-0.40000000000000047 1.5544999999999993 -0.500000000000001 1
-0.40000000000000052 1.5545 -0.30000000000000099 1
-0.4000000000000003 1.5544999999999995 -0.10000000000000094 1
-0.4000000000000003 1.5544999999999995 0.099999999999999256 1
-0.40000000000000036 1.5545 0.29999999999999949 1
-0.40000000000000024 1.5545 0.49999999999999944 1
-0.40000000000000063 1.7879999999999983 -0.50000000000000122 1
-0.40000000000000058 1.7879999999999991 -0.30000000000000132 1
-0.40000000000000036 1.7879999999999987 -0.10000000000000114 1
-0.40000000000000019 1.7879999999999989 0.099999999999999076 1
-0.4000000000000003 1.7879999999999989 0.29999999999999927 1
-0.40000000000000024 1.7879999999999985 0.49999999999999922 1
-0.39999999999999991 2.0124999999999935 -0.50000000000000133 1
-0.39999999999999958 2.0124999999999926 -0.30000000000000115 1
-0.39999999999999958 2.0124999999999931 -0.10000000000000121 1
-0.39999999999999963 2.012499999999994 0.099999999999998895 1
-0.39999999999999974 2.0124999999999948 0.29999999999999899 1
-0.39999999999999974 2.0124999999999948 0.49999999999999878 1
-0.39999999999999969 2.2279999999999935 -0.50000000000000144 1
-0.39999999999999952 2.2279999999999935 -0.30000000000000121 1
-0.39999999999999952 2.227999999999994 -0.10000000000000119 1
-0.39999999999999963 2.2279999999999949 0.099999999999998895 1
-0.39999999999999963 2.2279999999999949 0.29999999999999866 1
-0.3999999999999998 2.2279999999999944 0.49999999999999867 1
-0.39999999999999919 2.4344999999999914 -0.500000000000001 1
-0.39999999999999925 2.4344999999999919 -0.30000000000000099 1
-0.39999999999999919 2.4344999999999914 -0.10000000000000112 1
-0.39999999999999925 2.4344999999999919 0.099999999999998687 1
-0.39999999999999941 2.4344999999999932 0.29999999999999882 1
-0.39999999999999958 2.4344999999999937 0.49999999999999911 1
-0.39999999999999913 2.6319999999999903 -0.50000000000000044 1
-0.3999999999999988 2.6319999999999895 -0.30000000000000054 1
-0.39999999999999852 2.6319999999999903 -0.10000000000000084 1
-0.39999999999999858 2.6319999999999912 0.099999999999999048 1
-0.3999999999999988 2.6319999999999921 0.29999999999999943 1
-0.39999999999999941 2.6319999999999935 0.5 1
-0.39999999999999947 2.8204999999999956 -0.50000000000000022 1
-0.39999999999999936 2.8204999999999951 -0.30000000000000021 1
-0.39999999999999908 2.8204999999999978 -0.099999999999999922 1
-0.39999999999999841 2.8204999999999991 0.099999999999998715 1
-0.39999999999999863 2.8204999999999969 0.3000000000000006 1
-0.39999999999999936 2.8204999999999973 0.50000000000000155 1
-0.40000000000000002 3 -0.5 1
-0.39999999999999974 2.9999999999999836 -0.30000000000000027 1
-0.39999999999999891 3 -0.10000000000000005 1
-0.39999999999999863 3.0000000000000293 0.099999999999998354 1
-0.40000000000000319 3.0000000000000018 0.30000000000000349 1
-0.40000000000000002 3 0.5 1
-0.20000000000000023 0.79999999999999893 -0.49999999999999983 1
-0.19999999999999957 0.80000000000000082 -0.3000000000000006 1
-0.19999999999999446 0.79999999999998428 -0.099999999999997619 1
-0.19999999999999898 0.79999999999999805 0.099999999999998937 1
-0.19999999999999707 0.79999999999997529 0.29999999999999499 1
-0.20000000000000073 0.80000000000001226 0.50000000000000455 1
-0.20000000000000026 1.0605000000000002 -0.50000000000000022 1
-0.20000000000000018 1.0605000000000004 -0.3000000000000006 1
-0.19999999999999987 1.0604999999999991 -0.10000000000000006 1
-0.2000000000000004 1.0605000000000002 0.099999999999999811 1
-0.19999999999999968 1.0604999999999978 0.29999999999999993 1
-0.19999999999999979 1.0604999999999991 0.50000000000000022 1
-0.20000000000000026 1.3120000000000001 -0.50000000000000033 1
-0.20000000000000018 1.3120000000000001 -0.30000000000000049 1
-0.20000000000000015 1.3119999999999998 -0.10000000000000052 1
-0.20000000000000046 1.3120000000000005 0.099999999999999784 1
-0.20000000000000034 1.3120000000000005 0.29999999999999971 1
-0.20000000000000023 1.3119999999999992 0.4999999999999995 1
-0.20000000000000043 1.5544999999999993 -0.50000000000000056 1
-0.20000000000000046 1.5544999999999995 -0.30000000000000088 1
-0.20000000000000037 1.5544999999999995 -0.10000000000000089 1
-0.20000000000000032 1.5544999999999995 0.099999999999999256 1
-0.20000000000000043 1.5545000000000002 0.29999999999999954 1
-0.20000000000000037 1.5544999999999998 0.49999999999999928 1
-0.20000000000000048 1.7879999999999976 -0.50000000000000111 1
-0.20000000000000054 1.7879999999999983 -0.30000000000000121 1
-0.20000000000000043 1.7879999999999983 -0.10000000000000106 1
-0.20000000000000043 1.7879999999999989 0.099999999999999187 1
-0.20000000000000037 1.7879999999999989 0.29999999999999927 1
-0.2000000000000004 1.7879999999999994 0.49999999999999961 1
-0.20000000000000007 2.0124999999999935 -0.50000000000000111 1
-0.20000000000000004 2.0124999999999935 -0.30000000000000121 1
-0.19999999999999993 2.012499999999994 -0.10000000000000117 1
-0.20000000000000009 2.0124999999999948 0.099999999999998979 1
-0.20000000000000015 2.0124999999999957 0.29999999999999927 1
-0.20000000000000009 2.0124999999999957 0.499999999999999 1
-0.19999999999999982 2.2279999999999944 -0.50000000000000133 1
-0.19999999999999973 2.2279999999999944 -0.30000000000000127 1
-0.19999999999999979 2.2279999999999949 -0.10000000000000123 1
-0.19999999999999984 2.2279999999999953 0.099999999999998951 1
-0.19999999999999984 2.2279999999999949 0.29999999999999877 1
-0.19999999999999987 2.227999999999994 0.49999999999999861 1
-0.1999999999999994 2.4344999999999914 -0.50000000000000089 1
-0.19999999999999937 2.4344999999999919 -0.30000000000000093 1
-0.19999999999999937 2.4344999999999914 -0.10000000000000113 1
-0.19999999999999948 2.4344999999999919 0.099999999999998687 1
-0.19999999999999959 2.4344999999999932 0.29999999999999866 1
-0.19999999999999971 2.4344999999999937 0.49999999999999883 1
-0.19999999999999921 2.6319999999999903 -0.50000000000000033 1
-0.1999999999999991 2.6319999999999908 -0.30000000000000049 1
-0.19999999999999923 2.6319999999999908 -0.10000000000000095 1
-0.19999999999999954 2.6319999999999912 0.099999999999999173 1
-0.19999999999999957 2.631999999999993 0.29999999999999932 1
-0.19999999999999959 2.631999999999993 0.49999999999999956 1
-0.19999999999999937 2.8204999999999956 -0.50000000000000011 1
-0.19999999999999932 2.8204999999999965 -0.29999999999999982 1
-0.20000000000000026 2.820499999999996 -0.10000000000000037 1
-0.20000000000000037 2.8204999999999973 0.099999999999999992 1
-0.20000000000000009 2.8204999999999987 0.2999999999999996 1
-0.20000000000000026 2.8204999999999982 0.5 1
-0.19999999999999996 3 -0.5 1
-0.19999999999999996 3 -0.29999999999999999 1
-0.1999999999999994 2.9999999999999845 -0.099999999999996703 1
-0.19999999999999929 2.999999999999984 0.10000000000000023 1
-0.19999999999999996 3 0.30000000000000004 1
-0.19999999999999996 3 0.5 1
-5.5511151231258332e-17 0.80000000000000104 -0.4999999999999995 1
-2.7175231761847585e-15 0.80000000000000915 -0.29999999999999943 1
-4.1430901090648291e-15 0.80000000000000138 -0.10000000000000096 1
-3.0617869350990867e-16 0.80000000000000404 0.10000000000000023 1
0 0.80000000000000004 0.30000000000000004 1
5.4520186795471187e-16 0.7999999999999976 0.49999999999999517 1
-3.8353159032505408e-16 1.0605000000000007 -0.5 1
-2.9803320305493076e-16 1.0605000000000013 -0.29999999999999993 1
1.8783190902881378e-16 1.0604999999999993 -0.10000000000000074 1
4.0904397196654175e-16 1.0604999999999996 0.099999999999999811 1
-6.6556716747919999e-18 1.0604999999999989 0.2999999999999996 1
-3.402070540378085e-16 1.0604999999999989 0.49999999999999917 1
-2.6634113807122695e-16 1.3119999999999989 -0.5 1
-2.1409072426329457e-16 1.3119999999999996 -0.30000000000000027 1
-4.5996452391384213e-17 1.3119999999999994 -0.10000000000000059 1
-6.7665649211083583e-17 1.3119999999999992 0.099999999999999617 1
-2.2553088386110576e-16 1.3119999999999989 0.29999999999999943 1
-2.7439330269220532e-16 1.3119999999999987 0.49999999999999922 1
-5.2771137291013204e-16 1.5544999999999991 -0.50000000000000078 1
-4.3278253504143807e-16 1.5544999999999987 -0.30000000000000088 1
-4.1633294366977197e-16 1.5544999999999987 -0.10000000000000084 1
-3.9132182769696563e-16 1.5544999999999989 0.099999999999999298 1
-4.3535400112963085e-16 1.5544999999999993 0.29999999999999943 1
-4.1860739948184523e-16 1.5544999999999995 0.49999999999999933 1
-6.1097834201784202e-16 1.7879999999999967 -0.50000000000000089 1
-6.2403951126643727e-16 1.7879999999999969 -0.30000000000000099 1
-5.1577963761900661e-16 1.7879999999999974 -0.10000000000000094 1
-4.6593707343176441e-16 1.787999999999998 0.099999999999999228 1
-3.9821677058439154e-16 1.787999999999998 0.29999999999999921 1
-3.5862594639359094e-16 1.7879999999999987 0.4999999999999995 1
-4.4147027849246951e-16 2.012499999999994 -0.50000000000000089 1
-4.0361836446754269e-16 2.012499999999994 -0.30000000000000093 1
-2.8111393299441796e-16 2.0124999999999944 -0.10000000000000103 1
-3.4061743265003002e-16 2.0124999999999948 0.099999999999999034 1
-3.2658177738197186e-16 2.0124999999999957 0.29999999999999921 1
-3.6365615591971595e-16 2.0124999999999962 0.49999999999999917 1
-9.8406131728138874e-17 2.227999999999994 -0.50000000000000111 1
-1.1034630481247316e-16 2.2279999999999944 -0.30000000000000121 1
-1.2943666989308459e-16 2.2279999999999953 -0.10000000000000119 1
-2.0616850353750957e-16 2.2279999999999953 0.099999999999998937 1
-1.1334544461583599e-16 2.2279999999999953 0.29999999999999888 1
-5.5301675188875704e-17 2.2279999999999944 0.49999999999999861 1
1.8337266766727684e-16 2.434499999999991 -0.50000000000000078 1
2.2919370625771349e-16 2.4344999999999914 -0.30000000000000099 1
2.4483003372546521e-16 2.4344999999999923 -0.10000000000000116 1
2.2619434507640181e-16 2.4344999999999919 0.099999999999998659 1
1.7300091814464664e-16 2.4344999999999928 0.29999999999999855 1
8.1071935247997827e-17 2.4344999999999928 0.49999999999999861 1
3.6983171210612375e-16 2.6319999999999903 -0.50000000000000033 1
5.3396507500127852e-16 2.6319999999999912 -0.30000000000000049 1
5.8788705762110949e-16 2.6319999999999903 -0.10000000000000113 1
4.6861006295601695e-16 2.6319999999999917 0.099999999999999076 1
3.7226672273688357e-16 2.631999999999993 0.29999999999999899 1
3.2861498267119477e-16 2.6319999999999935 0.49999999999999928 1
4.7067481630361142e-16 2.8204999999999956 -0.49999999999999994 1
1.3322676295501878e-15 2.8204999999999951 -0.29999999999999943 1
1.9454496021683674e-15 2.8204999999999965 -0.10000000000000192 1
8.6216453487678531e-16 2.8204999999999987 0.10000000000000039 1
6.5039097374239886e-16 2.8205 0.29999999999999927 1
9.0331782458137602e-16 2.8204999999999982 0.49999999999999967 1
8.3266726846886827e-17 2.9999999999999951 -0.50000000000000111 1
1.6653345369377368e-16 2.9999999999999809 -0.29999999999999816 1
6.064505776188002e-15 3.0000000000000147 -0.10000000000000045 1
0 3 0.10000000000000009 1
-1.1733038782970163e-16 3.000000000000012 0.29999999999999932 1
2.7755575615617903e-17 3.0000000000000089 0.50000000000000022 1
0.20000000000000007 0.79999999999999982 -0.500000000000001 1
0.20000000000000021 0.80000000000000182 -0.29999999999999993 1
0.19999999999999937 0.80000000000000615 -0.099999999999999881 1
0.19999999999999957 0.79999999999999394 0.099999999999999492 1
0.20000000000000048 0.80000000000000071 0.30000000000000038 1
0.20000000000000026 0.80000000000000138 0.499999999999999 1
0.1999999999999999 1.0605000000000002 -0.50000000000000056 1
0.19999999999999968 1.0605000000000002 -0.29999999999999993 1
0.19999999999999934 1.0605 -0.10000000000000051 1
0.19999999999999962 1.0604999999999989 0.099999999999999659 1
0.19999999999999993 1.0604999999999989 0.29999999999999949 1
0.20000000000000015 1.0604999999999989 0.49999999999999967 1
0.19999999999999979 1.3119999999999992 -0.50000000000000044 1
0.19999999999999979 1.3119999999999989 -0.30000000000000027 1
0.19999999999999976 1.3119999999999989 -0.10000000000000056 1
0.19999999999999979 1.3119999999999985 0.099999999999999478 1
0.19999999999999973 1.3119999999999987 0.29999999999999932 1
0.19999999999999982 1.3119999999999985 0.49999999999999933 1
0.19999999999999957 1.5544999999999978 -0.50000000000000044 1
0.19999999999999962 1.5544999999999978 -0.30000000000000054 1
0.19999999999999962 1.5544999999999976 -0.10000000000000074 1
0.19999999999999954 1.5544999999999976 0.099999999999999256 1
0.19999999999999962 1.554499999999998 0.29999999999999932 1
0.19999999999999965 1.5544999999999991 0.49999999999999939 1
0.19999999999999923 1.7879999999999958 -0.50000000000000056 1
0.19999999999999932 1.787999999999996 -0.30000000000000071 1
0.19999999999999937 1.7879999999999967 -0.10000000000000085 1
0.19999999999999946 1.7879999999999976 0.099999999999999215 1
0.19999999999999957 1.787999999999998 0.29999999999999938 1
0.19999999999999962 1.7879999999999985 0.49999999999999928 1
0.19999999999999937 2.0124999999999935 -0.50000000000000067 1
0.19999999999999946 2.012499999999994 -0.30000000000000066 1
0.19999999999999954 2.0124999999999944 -0.10000000000000087 1
0.19999999999999951 2.0124999999999944 0.09999999999999902 1
0.19999999999999951 2.0124999999999953 0.29999999999999899 1
0.19999999999999957 2.0124999999999957 0.49999999999999917 1
0.19999999999999973 2.2279999999999944 -0.500000000000001 1
0.19999999999999971 2.227999999999994 -0.30000000000000099 1
0.19999999999999971 2.2279999999999953 -0.10000000000000107 1
0.19999999999999973 2.2279999999999949 0.099999999999998951 1
0.19999999999999968 2.2279999999999953 0.29999999999999882 1
0.19999999999999973 2.2279999999999944 0.49999999999999872 1
0.19999999999999965 2.4344999999999923 -0.50000000000000078 1
0.19999999999999965 2.4344999999999919 -0.30000000000000082 1
0.19999999999999968 2.4344999999999923 -0.10000000000000116 1
0.19999999999999962 2.4344999999999914 0.099999999999998673 1
0.19999999999999973 2.4344999999999914 0.29999999999999838 1
0.1999999999999999 2.4344999999999919 0.49999999999999839 1
0.19999999999999951 2.6319999999999917 -0.50000000000000033 1
0.19999999999999932 2.6319999999999903 -0.30000000000000021 1
0.19999999999999959 2.6319999999999908 -0.10000000000000098 1
0.19999999999999982 2.6319999999999908 0.099999999999998923 1
0.19999999999999998 2.6319999999999926 0.29999999999999882 1
0.19999999999999998 2.6319999999999939 0.49999999999999906 1
0.19999999999999957 2.8204999999999956 -0.49999999999999928 1
0.1999999999999986 2.8204999999999951 -0.29999999999999905 1
0.19999999999999971 2.8204999999999956 -0.10000000000000149 1
0.20000000000000062 2.8204999999999978 0.099999999999999992 1
0.20000000000000076 2.8204999999999982 0.29999999999999899 1
0.20000000000000046 2.8204999999999978 0.49999999999999911 1
0.19999999999999984 2.9999999999999938 -0.49999999999999667 1
0.19999999999999687 2.9999999999999813 -0.29999999999999938 1
0.19999999999999996 3 -0.099999999999999978 1
0.19999999999999996 3 0.10000000000000009 1
0.20000000000000012 2.9999999999999973 0.29999999999999927 1
0.19999999999999996 3 0.5 1
0.40000000000000024 0.80000000000000182 -0.49999999999999917 1
0.39999999999999802 0.79999999999999905 -0.3000000000000006 1
0.39999999999999986 0.79999999999999771 -0.099999999999999756 1
0.39999999999999908 0.80000000000000082 0.1000000000000001 1
0.39999999999999869 0.79999999999999971 0.29999999999999882 1
0.40000000000000119 0.80000000000000171 0.50000000000000033 1
0.4000000000000003 1.0605000000000002 -0.50000000000000056 1
0.40000000000000019 1.0605000000000004 -0.30000000000000049 1
0.40000000000000013 1.0605000000000004 -0.10000000000000038 1
0.40000000000000008 1.0604999999999998 0.099999999999999728 1
0.39999999999999974 1.0604999999999991 0.29999999999999977 1
0.40000000000000019 1.0604999999999991 0.49999999999999989 1
0.40000000000000013 1.3119999999999992 -0.50000000000000044 1
0.40000000000000036 1.3119999999999998 -0.3000000000000006 1
0.40000000000000024 1.3119999999999998 -0.10000000000000064 1
0.40000000000000013 1.3119999999999996 0.099999999999999548 1
0.40000000000000002 1.3119999999999989 0.29999999999999954 1
0.39999999999999974 1.3119999999999981 0.49999999999999906 1
0.39999999999999991 1.554499999999998 -0.50000000000000056 1
0.39999999999999997 1.554499999999998 -0.30000000000000077 1
0.40000000000000008 1.5544999999999982 -0.10000000000000077 1
0.39999999999999997 1.5544999999999987 0.099999999999999312 1
0.40000000000000019 1.5544999999999991 0.29999999999999943 1
0.40000000000000008 1.5544999999999991 0.49999999999999922 1
0.39999999999999974 1.787999999999996 -0.50000000000000067 1
0.40000000000000002 1.7879999999999969 -0.30000000000000093 1
0.40000000000000002 1.7879999999999976 -0.10000000000000089 1
0.39999999999999991 1.787999999999998 0.099999999999999312 1
0.40000000000000013 1.7879999999999987 0.29999999999999949 1
0.40000000000000008 1.7879999999999991 0.49999999999999933 1
0.39999999999999963 2.0124999999999953 -0.50000000000000078 1
0.3999999999999998 2.0124999999999957 -0.30000000000000077 1
0.39999999999999997 2.0124999999999957 -0.10000000000000085 1
0.39999999999999969 2.0124999999999953 0.099999999999999103 1
0.3999999999999998 2.0124999999999957 0.29999999999999921 1
0.39999999999999986 2.0124999999999962 0.49999999999999933 1
0.39999999999999991 2.2279999999999953 -0.50000000000000089 1
0.40000000000000008 2.2279999999999958 -0.30000000000000104 1
0.40000000000000008 2.2279999999999953 -0.10000000000000107 1
0.40000000000000008 2.2279999999999958 0.099999999999999076 1
0.40000000000000002 2.2279999999999962 0.29999999999999893 1
0.39999999999999986 2.2279999999999949 0.49999999999999872 1
0.39999999999999958 2.4344999999999928 -0.50000000000000067 1
0.39999999999999986 2.4344999999999941 -0.30000000000000099 1
0.39999999999999974 2.4344999999999932 -0.10000000000000117 1
0.3999999999999998 2.4344999999999928 0.099999999999998798 1
0.39999999999999991 2.4344999999999928 0.29999999999999866 1
0.39999999999999969 2.4344999999999923 0.4999999999999985 1
0.3999999999999993 2.6319999999999926 -0.50000000000000033 1
0.39999999999999936 2.6319999999999926 -0.3000000000000006 1
0.3999999999999993 2.6319999999999917 -0.10000000000000073 1
0.39999999999999958 2.6319999999999921 0.099999999999999006 1
0.39999999999999991 2.6319999999999939 0.29999999999999899 1
0.39999999999999991 2.6319999999999935 0.49999999999999878 1
0.39999999999999925 2.8204999999999973 -0.5 1
0.3999999999999993 2.8204999999999978 -0.30000000000000016 1
0.39999999999999974 2.8204999999999982 -0.1000000000000003 1
0.39999999999999958 2.8204999999999982 0.099999999999999825 1
0.40000000000000002 2.8204999999999991 0.29999999999999932 1
0.39999999999999997 2.8204999999999978 0.49999999999999856 1
0.40000000000000013 3 -0.5 1
0.40000000000000013 3 -0.29999999999999999 1
0.40000000000000013 3 -0.099999999999999978 1
0.39999999999999847 2.9999999999999947 0.09999999999999952 1
0.40000000000000013 3 0.30000000000000004 1
0.40000000000000013 3 0.5 1
0.60000000000000009 0.80000000000000004 -0.5 1
0.60000000000000719 0.80000000000000315 -0.3000000000000001 1
0.60000000000000198 0.8000000000000036 -0.10000000000000113 1
0.59999999999999765 0.80000000000000138 0.09999999999999945 1
0.59999999999999476 0.79999999999998705 0.30000000000000054 1
0.59999999999999853 0.8000000000000046 0.50000000000000289 1
0.60000000000000109 1.0605000000000009 -0.50000000000000044 1
0.60000000000000164 1.0605000000000009 -0.30000000000000049 1
0.60000000000000064 1.0605000000000007 -0.10000000000000059 1
0.59999999999999942 1.0604999999999996 0.099999999999999561 1
0.59999999999999887 1.0604999999999978 0.30000000000000004 1
0.59999999999999909 1.0604999999999982 0.50000000000000011 1
0.60000000000000042 1.3119999999999998 -0.50000000000000056 1
0.60000000000000064 1.3120000000000003 -0.30000000000000077 1
0.60000000000000042 1.3120000000000003 -0.10000000000000071 1
0.60000000000000009 1.3119999999999996 0.099999999999999464 1
0.59999999999999987 1.3119999999999987 0.29999999999999949 1
0.59999999999999953 1.3119999999999981 0.49999999999999922 1
0.59999999999999998 1.5544999999999984 -0.50000000000000078 1
0.60000000000000009 1.5544999999999987 -0.30000000000000077 1
0.6000000000000002 1.5544999999999987 -0.10000000000000084 1
0.59999999999999987 1.5544999999999987 0.09999999999999927 1
0.60000000000000009 1.5544999999999991 0.29999999999999938 1
0.60000000000000009 1.5544999999999991 0.49999999999999933 1
0.59999999999999976 1.7879999999999969 -0.50000000000000089 1
0.59999999999999987 1.7879999999999976 -0.30000000000000088 1
0.60000000000000009 1.787999999999998 -0.10000000000000089 1
0.59999999999999987 1.7879999999999978 0.099999999999999284 1
0.60000000000000009 1.7879999999999985 0.29999999999999949 1
0.6000000000000002 1.7879999999999987 0.49999999999999956 1
0.59999999999999964 2.0124999999999953 -0.50000000000000078 1
0.59999999999999976 2.0124999999999957 -0.30000000000000082 1
0.59999999999999987 2.0124999999999957 -0.10000000000000081 1
0.59999999999999964 2.0124999999999953 0.099999999999999103 1
0.59999999999999953 2.0124999999999953 0.2999999999999991 1
0.59999999999999953 2.0124999999999957 0.49999999999999933 1
0.59999999999999976 2.2279999999999958 -0.500000000000001 1
0.59999999999999998 2.2279999999999962 -0.30000000000000104 1
0.59999999999999987 2.2279999999999953 -0.10000000000000102 1
0.59999999999999998 2.2279999999999962 0.09999999999999909 1
0.59999999999999987 2.2279999999999962 0.29999999999999893 1
0.59999999999999953 2.2279999999999949 0.49999999999999872 1
0.59999999999999909 2.4344999999999923 -0.50000000000000033 1
0.59999999999999942 2.4344999999999937 -0.30000000000000082 1
0.59999999999999942 2.4344999999999919 -0.10000000000000102 1
0.59999999999999942 2.4344999999999919 0.099999999999998854 1
0.59999999999999976 2.4344999999999932 0.29999999999999888 1
0.59999999999999964 2.4344999999999928 0.49999999999999872 1
0.59999999999999887 2.631999999999993 -0.50000000000000022 1
0.59999999999999887 2.6319999999999926 -0.30000000000000049 1
0.59999999999999898 2.6319999999999921 -0.10000000000000055 1
0.59999999999999931 2.6319999999999939 0.099999999999999201 1
0.59999999999999987 2.6319999999999943 0.29999999999999916 1
0.59999999999999987 2.6319999999999935 0.49999999999999878 1
0.59999999999999887 2.8204999999999978 -0.50000000000000011 1
0.59999999999999865 2.8204999999999987 -0.30000000000000021 1
0.59999999999999898 2.8204999999999991 -0.09999999999999977 1
0.59999999999999976 2.8205 0.09999999999999977 1
0.60000000000000053 2.8204999999999996 0.29999999999999971 1
0.60000000000000087 2.8204999999999987 0.49999999999999845 1
0.60000000000000009 3 -0.5 1
0.60000000000000009 3 -0.29999999999999999 1
0.59999999999999865 2.9999999999999938 -0.10000000000000005 1
0.59999999999999998 3.0000000000000018 0.10000000000000003 1
0.60000000000000009 3 0.30000000000000004 1
0.60000000000000331 3.0000000000000169 0.50000000000000033 1
0.80000000000000104 0.80000000000000104 -0.50000000000000067 1
0.79999999999999849 0.80000000000000115 -0.2999999999999966 1
0.80000000000000027 0.80000000000000271 -0.099999999999999728 1
0.79999999999999749 0.79999999999999649 0.10000000000000019 1
0.8000000000000036 0.80000000000000027 0.3000000000000016 1
0.80000000000000004 0.80000000000000004 0.5 1
0.8000000000000006 1.0605000000000002 -0.49999999999999978 1
0.80000000000000049 1.0605 -0.30000000000000032 1
0.80000000000000016 1.0605000000000002 -0.10000000000000081 1
0.79999999999999916 1.0604999999999991 0.099999999999999312 1
0.79999999999999949 1.0604999999999987 0.30000000000000021 1
0.79999999999999893 1.0604999999999984 0.49999999999999994 1
0.80000000000000004 1.3119999999999992 -0.50000000000000044 1
0.80000000000000027 1.3119999999999994 -0.30000000000000077 1
0.80000000000000004 1.3119999999999994 -0.10000000000000088 1
0.7999999999999996 1.3119999999999996 0.09999999999999927 1
0.79999999999999938 1.3119999999999985 0.29999999999999943 1
0.79999999999999938 1.3119999999999983 0.49999999999999922 1
0.79999999999999982 1.5544999999999987 -0.50000000000000067 1
0.7999999999999996 1.5544999999999984 -0.30000000000000077 1
0.79999999999999982 1.5544999999999984 -0.10000000000000098 1
0.79999999999999971 1.5544999999999987 0.099999999999999159 1
0.79999999999999993 1.5544999999999987 0.29999999999999927 1
0.80000000000000004 1.5544999999999995 0.49999999999999939 1
0.79999999999999949 1.7879999999999967 -0.50000000000000078 1
0.79999999999999982 1.7879999999999971 -0.30000000000000082 1
0.79999999999999982 1.7879999999999974 -0.10000000000000089 1
0.79999999999999982 1.7879999999999978 0.099999999999999242 1
0.79999999999999993 1.7879999999999978 0.29999999999999932 1
0.80000000000000027 1.7879999999999987 0.49999999999999967 1
0.7999999999999996 2.0124999999999953 -0.50000000000000078 1
0.7999999999999996 2.0124999999999953 -0.30000000000000082 1
0.79999999999999927 2.0124999999999953 -0.10000000000000087 1
0.79999999999999916 2.0124999999999953 0.099999999999999117 1
0.79999999999999949 2.0124999999999948 0.29999999999999899 1
0.79999999999999993 2.0124999999999957 0.49999999999999956 1
0.79999999999999982 2.2279999999999962 -0.50000000000000111 1
0.7999999999999996 2.2279999999999958 -0.30000000000000104 1
0.79999999999999949 2.2279999999999944 -0.10000000000000099 1
0.79999999999999971 2.2279999999999953 0.09999999999999909 1
0.79999999999999949 2.2279999999999953 0.29999999999999899 1
0.79999999999999949 2.2279999999999944 0.49999999999999878 1
0.79999999999999905 2.4344999999999928 -0.50000000000000056 1
0.79999999999999893 2.4344999999999928 -0.30000000000000071 1
0.79999999999999916 2.4344999999999914 -0.10000000000000096 1
0.79999999999999927 2.4344999999999914 0.099999999999998895 1
0.79999999999999949 2.4344999999999928 0.29999999999999893 1
0.79999999999999927 2.4344999999999932 0.49999999999999889 1
0.79999999999999905 2.6319999999999935 -0.50000000000000044 1
0.79999999999999871 2.6319999999999921 -0.30000000000000049 1
0.79999999999999905 2.6319999999999926 -0.10000000000000038 1
0.79999999999999938 2.6319999999999935 0.099999999999999409 1
0.79999999999999949 2.6319999999999935 0.29999999999999927 1
0.79999999999999971 2.6319999999999939 0.49999999999999911 1
0.79999999999999893 2.8204999999999978 -0.50000000000000022 1
0.79999999999999893 2.8204999999999987 -0.30000000000000032 1
0.79999999999999905 2.8204999999999978 -0.099999999999999173 1
0.79999999999999982 2.8204999999999987 0.10000000000000019 1
0.79999999999999982 2.8204999999999987 0.29999999999999993 1
0.80000000000000016 2.8204999999999982 0.49999999999999889 1
0.80000000000000004 2.9999999999999925 -0.49999999999999972 1
0.80000000000000271 3.0000000000000204 -0.29999999999999805 1
0.80000000000000004 3 -0.099999999999999978 1
0.80000000000000004 3 0.10000000000000009 1
0.79999999999999549 2.9999999999999929 0.30000000000000149 1
0.80000000000000004 3 0.5 1
Triangles
680
2 1 7 1
67 1 2 1
1 7 73 1
73 67 1 1
3 2 8 1
68 2 3 1
7 8 2 1
67 2 68 1
4 3 9 1
69 3 4 1
8 9 3 1
68 3 69 1
5 4 10 1
70 4 5 1
9 10 4 1
69 4 70 1
6 5 11 1
71 5 6 1
10 11 5 1
70 5 71 1
11 12 6 1
12 6 78 1
71 6 72 1
6 72 78 1
8 7 13 1
7 13 79 1
79 73 7 1
9 8 14 1
13 14 8 1
10 9 15 1
14 15 9 1
11 10 16 1
15 16 10 1
12 11 17 1
16 17 11 1
17 18 12 1
18 12 84 1
12 78 84 1
14 13 19 1
13 19 85 1
85 79 13 1
15 14 20 1
19 20 14 1
16 15 21 1
20 21 15 1
17 16 22 1
21 22 16 1
18 17 23 1
22 23 17 1
23 24 18 1
24 18 90 1
18 84 90 1
20 19 25 1
19 25 91 1
91 85 19 1
21 20 26 1
25 26 20 1
22 21 27 1
26 27 21 1
23 22 28 1
27 28 22 1
24 23 29 1
28 29 23 1
29 30 24 1
30 24 96 1
24 90 96 1
26 25 31 1
25 31 97 1
97 91 25 1
27 26 32 1
31 32 26 1
28 27 33 1
32 33 27 1
29 28 34 1
33 34 28 1
30 29 35 1
34 35 29 1
35 36 30 1
36 30 102 1
30 96 102 1
32 31 37 1
31 37 103 1
103 97 31 1
33 32 38 1
37 38 32 1
34 33 39 1
38 39 33 1
35 34 40 1
39 40 34 1
36 35 41 1
40 41 35 1
41 42 36 1
42 36 108 1
36 102 108 1
38 37 43 1
37 43 109 1
109 103 37 1
39 38 44 1
43 44 38 1
40 39 45 1
44 45 39 1
41 40 46 1
45 46 40 1
42 41 47 1
46 47 41 1
47 48 42 1
48 42 114 1
42 108 114 1
44 43 49 1
43 49 115 1
115 109 43 1
45 44 50 1
49 50 44 1
46 45 51 1
50 51 45 1
47 46 52 1
51 52 46 1
48 47 53 1
52 53 47 1
53 54 48 1
54 48 120 1
48 114 120 1
50 49 55 1
49 55 121 1
121 115 49 1
51 50 56 1
55 56 50 1
52 51 57 1
56 57 51 1
53 52 58 1
57 58 52 1
54 53 59 1
58 59 53 1
59 60 54 1
60 54 126 1
54 120 126 1
56 55 61 1
55 61 127 1
127 121 55 1
57 56 62 1
61 62 56 1
58 57 63 1
62 63 57 1
59 58 64 1
63 64 58 1
60 59 65 1
64 65 59 1
65 66 60 1
66 60 132 1
60 126 132 1
127 61 62 1
128 62 63 1
128 127 62 1
129 63 64 1
129 128 63 1
130 64 65 1
130 129 64 1
131 65 66 1
131 130 65 1
132 131 66 1
133 67 68 1
67 73 139 1
139 133 67 1
134 68 69 1
133 68 134 1
135 69 70 1
134 69 135 1
136 70 71 1
135 70 136 1
137 71 72 1
136 71 137 1
78 72 144 1
137 72 138 1
72 138 144 1
73 79 145 1
145 139 73 1
84 78 150 1
78 144 150 1
79 85 151 1
151 145 79 1
90 84 156 1
84 150 156 1
85 91 157 1
157 151 85 1
96 90 162 1
90 156 162 1
91 97 163 1
163 157 91 1
102 96 168 1
96 162 168 1
97 103 169 1
169 163 97 1
108 102 174 1
102 168 174 1
103 109 175 1
175 169 103 1
114 108 180 1
108 174 180 1
109 115 181 1
181 175 109 1
120 114 186 1
114 180 186 1
115 121 187 1
187 181 115 1
126 120 192 1
120 186 192 1
121 127 193 1
193 187 121 1
132 126 198 1
126 192 198 1
193 127 128 1
194 128 129 1
194 193 128 1
195 129 130 1
195 194 129 1
196 130 131 1
196 195 130 1
197 131 132 1
197 196 131 1
198 197 132 1
199 133 134 1
133 139 205 1
205 199 133 1
200 134 135 1
199 134 200 1
201 135 136 1
200 135 201 1
202 136 137 1
201 136 202 1
203 137 138 1
202 137 203 1
144 138 210 1
203 138 204 1
138 204 210 1
139 145 211 1
211 205 139 1
150 144 216 1
144 210 216 1
145 151 217 1
217 211 145 1
156 150 222 1
150 216 222 1
151 157 223 1
223 217 151 1
162 156 228 1
156 222 228 1
157 163 229 1
229 223 157 1
168 162 234 1
162 228 234 1
163 169 235 1
235 229 163 1
174 168 240 1
168 234 240 1
169 175 241 1
241 235 169 1
180 174 246 1
174 240 246 1
175 181 247 1
247 241 175 1
186 180 252 1
180 246 252 1
181 187 253 1
253 247 181 1
192 186 258 1
186 252 258 1
187 193 259 1
259 253 187 1
198 192 264 1
192 258 264 1
259 193 194 1
260 194 195 1
260 259 194 1
261 195 196 1
261 260 195 1
262 196 197 1
262 261 196 1
263 197 198 1
263 262 197 1
264 263 198 1
265 199 200 1
199 205 271 1
271 265 199 1
266 200 201 1
265 200 266 1
267 201 202 1
266 201 267 1
268 202 203 1
267 202 268 1
269 203 204 1
268 203 269 1
210 204 276 1
269 204 270 1
204 270 276 1
205 211 277 1
277 271 205 1
216 210 282 1
210 276 282 1
211 217 283 1
283 277 211 1
222 216 288 1
216 282 288 1
217 223 289 1
289 283 217 1
228 222 294 1
222 288 294 1
223 229 295 1
295 289 223 1
234 228 300 1
228 294 300 1
229 235 301 1
301 295 229 1
240 234 306 1
234 300 306 1
235 241 307 1
307 301 235 1
246 240 312 1
240 306 312 1
241 247 313 1
313 307 241 1
252 246 318 1
246 312 318 1
247 253 319 1
319 313 247 1
258 252 324 1
252 318 324 1
253 259 325 1
325 319 253 1
264 258 330 1
258 324 330 1
325 259 260 1
326 260 261 1
326 325 260 1
327 261 262 1
327 326 261 1
328 262 263 1
328 327 262 1
329 263 264 1
329 328 263 1
330 329 264 1
331 265 266 1
265 271 337 1
337 331 265 1
332 266 267 1
331 266 332 1
333 267 268 1
332 267 333 1
334 268 269 1
333 268 334 1
335 269 270 1
334 269 335 1
276 270 342 1
335 270 336 1
270 336 342 1
271 277 343 1
343 337 271 1
282 276 348 1
276 342 348 1
277 283 349 1
349 343 277 1
288 282 354 1
282 348 354 1
283 289 355 1
355 349 283 1
294 288 360 1
288 354 360 1
289 295 361 1
361 355 289 1
300 294 366 1
294 360 366 1
295 301 367 1
367 361 295 1
306 300 372 1
300 366 372 1
301 307 373 1
373 367 301 1
312 306 378 1
306 372 378 1
307 313 379 1
379 373 307 1
318 312 384 1
312 378 384 1
313 319 385 1
385 379 313 1
324 318 390 1
318 384 390 1
319 325 391 1
391 385 319 1
330 324 396 1
324 390 396 1
391 325 326 1
392 326 327 1
392 391 326 1
393 327 328 1
393 392 327 1
394 328 329 1
394 393 328 1
395 329 330 1
395 394 329 1
396 395 330 1
397 331 332 1
331 337 403 1
403 397 331 1
398 332 333 1
397 332 398 1
399 333 334 1
398 333 399 1
400 334 335 1
399 334 400 1
401 335 336 1
400 335 401 1
342 336 408 1
401 336 402 1
336 402 408 1
337 343 409 1
409 403 337 1
348 342 414 1
342 408 414 1
343 349 415 1
415 409 343 1
354 348 420 1
348 414 420 1
349 355 421 1
421 415 349 1
360 354 426 1
354 420 426 1
355 361 427 1
427 421 355 1
366 360 432 1
360 426 432 1
361 367 433 1
433 427 361 1
372 366 438 1
366 432 438 1
367 373 439 1
439 433 367 1
378 372 444 1
372 438 444 1
373 379 445 1
445 439 373 1
384 378 450 1
378 444 450 1
379 385 451 1
451 445 379 1
390 384 456 1
384 450 456 1
385 391 457 1
457 451 385 1
396 390 462 1
390 456 462 1
457 391 392 1
458 392 393 1
458 457 392 1
459 393 394 1
459 458 393 1
460 394 395 1
460 459 394 1
461 395 396 1
461 460 395 1
462 461 396 1
463 397 398 1
397 403 469 1
469 463 397 1
464 398 399 1
463 398 464 1
465 399 400 1
464 399 465 1
466 400 401 1
465 400 466 1
467 401 402 1
466 401 467 1
408 402 474 1
467 402 468 1
402 468 474 1
403 409 475 1
475 469 403 1
414 408 480 1
408 474 480 1
409 415 481 1
481 475 409 1
420 414 486 1
414 480 486 1
415 421 487 1
487 481 415 1
426 420 492 1
420 486 492 1
421 427 493 1
493 487 421 1
432 426 498 1
426 492 498 1
427 433 499 1
499 493 427 1
438 432 504 1
432 498 504 1
433 439 505 1
505 499 433 1
444 438 510 1
438 504 510 1
439 445 511 1
511 505 439 1
450 444 516 1
444 510 516 1
445 451 517 1
517 511 445 1
456 450 522 1
450 516 522 1
451 457 523 1
523 517 451 1
462 456 528 1
456 522 528 1
523 457 458 1
524 458 459 1
524 523 458 1
525 459 460 1
525 524 459 1
526 460 461 1
526 525 460 1
527 461 462 1
527 526 461 1
528 527 462 1
529 463 464 1
463 469 535 1
535 529 463 1
530 464 465 1
529 464 530 1
531 465 466 1
530 465 531 1
532 466 467 1
531 466 532 1
533 467 468 1
532 467 533 1
474 468 540 1
533 468 534 1
468 534 540 1
469 475 541 1
541 535 469 1
480 474 546 1
474 540 546 1
475 481 547 1
547 541 475 1
486 480 552 1
480 546 552 1
481 487 553 1
553 547 481 1
492 486 558 1
486 552 558 1
487 493 559 1
559 553 487 1
498 492 564 1
492 558 564 1
493 499 565 1
565 559 493 1
504 498 570 1
498 564 570 1
499 505 571 1
571 565 499 1
510 504 576 1
504 570 576 1
505 511 577 1
577 571 505 1
516 510 582 1
510 576 582 1
511 517 583 1
583 577 511 1
522 516 588 1
516 582 588 1
517 523 589 1
589 583 517 1
528 522 594 1
522 588 594 1
589 523 524 1
590 524 525 1
590 589 524 1
591 525 526 1
591 590 525 1
592 526 527 1
592 591 526 1
593 527 528 1
593 592 527 1
594 593 528 1
530 535 529 1
531 536 530 1
530 536 535 1
532 537 531 1
531 537 536 1
533 538 532 1
532 538 537 1
534 539 533 1
533 539 538 1
534 540 539 1
536 541 535 1
537 542 536 1
536 542 541 1
538 543 537 1
537 543 542 1
539 544 538 1
538 544 543 1
540 545 539 1
539 545 544 1
540 546 545 1
542 547 541 1
543 548 542 1
542 548 547 1
544 549 543 1
543 549 548 1
545 550 544 1
544 550 549 1
546 551 545 1
545 551 550 1
546 552 551 1
548 553 547 1
549 554 548 1
548 554 553 1
550 555 549 1
549 555 554 1
551 556 550 1
550 556 555 1
552 557 551 1
551 557 556 1
552 558 557 1
554 559 553 1
555 560 554 1
554 560 559 1
556 561 555 1
555 561 560 1
557 562 556 1
556 562 561 1
558 563 557 1
557 563 562 1
558 564 563 1
560 565 559 1
561 566 560 1
560 566 565 1
562 567 561 1
561 567 566 1
563 568 562 1
562 568 567 1
564 569 563 1
563 569 568 1
564 570 569 1
566 571 565 1
567 572 566 1
566 572 571 1
568 573 567 1
567 573 572 1
569 574 568 1
568 574 573 1
570 575 569 1
569 575 574 1
570 576 575 1
572 577 571 1
573 578 572 1
572 578 577 1
574 579 573 1
573 579 578 1
575 580 574 1
574 580 579 1
576 581 575 1
575 581 580 1
576 582 581 1
578 583 577 1
579 584 578 1
578 584 583 1
580 585 579 1
579 585 584 1
581 586 580 1
580 586 585 1
582 587 581 1
581 587 586 1
582 588 587 1
584 589 583 1
585 590 584 1
584 590 589 1
586 591 585 1
585 591 590 1
587 592 586 1
586 592 591 1
588 593 587 1
587 593 592 1
588 594 593 1
Tetrahedra
2400
8 2 73 7 1
2 1 7 73 1
73 67 1 2 1
74 73 8 2 1
74 73 2 68 1
67 2 68 73 1
9 3 74 8 1
3 2 8 74 1
74 68 2 3 1
75 74 9 3 1
75 74 3 69 1
68 3 69 74 1
10 4 75 9 1
4 3 9 75 1
75 69 3 4 1
76 75 10 4 1
76 75 4 70 1
69 4 70 75 1
11 5 76 10 1
5 4 10 76 1
76 70 4 5 1
77 76 11 5 1
77 76 5 71 1
70 5 71 76 1
12 6 77 11 1
6 5 11 77 1
77 71 5 6 1
78 77 12 6 1
78 77 6 72 1
71 6 72 77 1
14 8 79 13 1
8 7 13 79 1
79 73 7 8 1
80 79 14 8 1
80 79 8 74 1
73 8 74 79 1
15 9 80 14 1
9 8 14 80 1
80 74 8 9 1
81 80 15 9 1
81 80 9 75 1
74 9 75 80 1
16 10 81 15 1
10 9 15 81 1
81 75 9 10 1
82 81 16 10 1
82 81 10 76 1
75 10 76 81 1
17 11 82 16 1
11 10 16 82 1
82 76 10 11 1
83 82 17 11 1
83 82 11 77 1
76 11 77 82 1
18 12 83 17 1
12 11 17 83 1
83 77 11 12 1
84 83 18 12 1
84 83 12 78 1
77 12 78 83 1
20 14 85 19 1
14 13 19 85 1
85 79 13 14 1
86 85 20 14 1
86 85 14 80 1
79 14 80 85 1
21 15 86 20 1
15 14 20 86 1
86 80 14 15 1
87 86 21 15 1
87 86 15 81 1
80 15 81 86 1
22 16 87 21 1
16 15 21 87 1
87 81 15 16 1
88 87 22 16 1
88 87 16 82 1
81 16 82 87 1
23 17 88 22 1
17 16 22 88 1
88 82 16 17 1
89 88 23 17 1
89 88 17 83 1
82 17 83 88 1
24 18 89 23 1
18 17 23 89 1
89 83 17 18 1
90 89 24 18 1
90 89 18 84 1
83 18 84 89 1
26 20 91 25 1
20 19 25 91 1
91 85 19 20 1
92 91 26 20 1
92 91 20 86 1
85 20 86 91 1
27 21 92 26 1
21 20 26 92 1
92 86 20 21 1
93 92 27 21 1
93 92 21 87 1
86 21 87 92 1
28 22 93 27 1
22 21 27 93 1
93 87 21 22 1
94 93 28 22 1
94 93 22 88 1
87 22 88 93 1
29 23 94 28 1
23 22 28 94 1
94 88 22 23 1
95 94 29 23 1
95 94 23 89 1
88 23 89 94 1
30 24 95 29 1
24 23 29 95 1
95 89 23 24 1
96 95 30 24 1
96 95 24 90 1
89 24 90 95 1
32 26 97 31 1
26 25 31 97 1
97 91 25 26 1
98 97 32 26 1
98 97 26 92 1
91 26 92 97 1
33 27 98 32 1
27 26 32 98 1
98 92 26 27 1
99 98 33 27 1
99 98 27 93 1
92 27 93 98 1
34 28 99 33 1
28 27 33 99 1
99 93 27 28 1
100 99 34 28 1
100 99 28 94 1
93 28 94 99 1
35 29 100 34 1
29 28 34 100 1
100 94 28 29 1
101 100 35 29 1
101 100 29 95 1
94 29 95 100 1
36 30 101 35 1
30 29 35 101 1
101 95 29 30 1
102 101 36 30 1
102 101 30 96 1
95 30 96 101 1
38 32 103 37 1
32 31 37 103 1
103 97 31 32 1
104 103 38 32 1
104 103 32 98 1
97 32 98 103 1
39 33 104 38 1
33 32 38 104 1
104 98 32 33 1
105 104 39 33 1
105 104 33 99 1
98 33 99 104 1
40 34 105 39 1
34 33 39 105 1
105 99 33 34 1
106 105 40 34 1
106 105 34 100 1
99 34 100 105 1
41 35 106 40 1
35 34 40 106 1
106 100 34 35 1
107 106 41 35 1
107 106 35 101 1
100 35 101 106 1
42 36 107 41 1
36 35 41 107 1
107 101 35 36 1
108 107 42 36 1
108 107 36 102 1
101 36 102 107 1
44 38 109 43 1
38 37 43 109 1
109 103 37 38 1
110 109 44 38 1
110 109 38 104 1
103 38 104 109 1
45 39 110 44 1
39 38 44 110 1
110 104 38 39 1
111 110 45 39 1
111 110 39 105 1
104 39 105 110 1
46 40 111 45 1
40 39 45 111 1
111 105 39 40 1
112 111 46 40 1
112 111 40 106 1
105 40 106 111 1
47 41 112 46 1
41 40 46 112 1
112 106 40 41 1
113 112 47 41 1
113 112 41 107 1
106 41 107 112 1
48 42 113 47 1
42 41 47 113 1
113 107 41 42 1
114 113 48 42 1
114 113 42 108 1
107 42 108 113 1
50 44 115 49 1
44 43 49 115 1
115 109 43 44 1
116 115 50 44 1
116 115 44 110 1
109 44 110 115 1
51 45 116 50 1
45 44 50 116 1
116 110 44 45 1
117 116 51 45 1
117 116 45 111 1
110 45 111 116 1
52 46 117 51 1
46 45 51 117 1
117 111 45 46 1
118 117 52 46 1
118 117 46 112 1
111 46 112 117 1
53 47 118 52 1
47 46 52 118 1
118 112 46 47 1
119 118 53 47 1
119 118 47 113 1
112 47 113 118 1
54 48 119 53 1
48 47 53 119 1
119 113 47 48 1
120 119 54 48 1
120 119 48 114 1
113 48 114 119 1
56 50 121 55 1
50 49 55 121 1
121 115 49 50 1
122 121 56 50 1
122 121 50 116 1
115 50 116 121 1
57 51 122 56 1
51 50 56 122 1
122 116 50 51 1
123 122 57 51 1
123 122 51 117 1
116 51 117 122 1
58 52 123 57 1
52 51 57 123 1
123 117 51 52 1
124 123 58 52 1
124 123 52 118 1
117 52 118 123 1
59 53 124 58 1
53 52 58 124 1
124 118 52 53 1
125 124 59 53 1
125 124 53 119 1
118 53 119 124 1
60 54 125 59 1
54 53 59 125 1
125 119 53 54 1
126 125 60 54 1
126 125 54 120 1
119 54 120 125 1
62 56 127 61 1
56 55 61 127 1
127 121 55 56 1
128 127 62 56 1
128 127 56 122 1
121 56 122 127 1
63 57 128 62 1
57 56 62 128 1
128 122 56 57 1
129 128 63 57 1
129 128 57 123 1
122 57 123 128 1
64 58 129 63 1
58 57 63 129 1
129 123 57 58 1
130 129 64 58 1
130 129 58 124 1
123 58 124 129 1
65 59 130 64 1
59 58 64 130 1
130 124 58 59 1
131 130 65 59 1
131 130 59 125 1
124 59 125 130 1
66 60 131 65 1
60 59 65 131 1
131 125 59 60 1
132 131 66 60 1
132 131 60 126 1
125 60 126 131 1
74 68 139 73 1
68 67 73 139 1
139 133 67 68 1
140 139 74 68 1
140 139 68 134 1
133 68 134 139 1
75 69 140 74 1
69 68 74 140 1
140 134 68 69 1
141 140 75 69 1
141 140 69 135 1
134 69 135 140 1
76 70 141 75 1
70 69 75 141 1
141 135 69 70 1
142 141 76 70 1
142 141 70 136 1
135 70 136 141 1
77 71 142 76 1
71 70 76 142 1
142 136 70 71 1
143 142 77 71 1
143 142 71 137 1
136 71 137 142 1
78 72 143 77 1
72 71 77 143 1
143 137 71 72 1
144 143 78 72 1
144 143 72 138 1
137 72 138 143 1
80 74 145 79 1
74 73 79 145 1
145 139 73 74 1
146 145 80 74 1
146 145 74 140 1
139 74 140 145 1
81 75 146 80 1
75 74 80 146 1
146 140 74 75 1
147 146 81 75 1
147 146 75 141 1
140 75 141 146 1
82 76 147 81 1
76 75 81 147 1
147 141 75 76 1
148 147 82 76 1
148 147 76 142 1
141 76 142 147 1
83 77 148 82 1
77 76 82 148 1
148 142 76 77 1
149 148 83 77 1
149 148 77 143 1
142 77 143 148 1
84 78 149 83 1
78 77 83 149 1
149 143 77 78 1
150 149 84 78 1
150 149 78 144 1
143 78 144 149 1
86 80 151 85 1
80 79 85 151 1
151 145 79 80 1
152 151 86 80 1
152 151 80 146 1
145 80 146 151 1
87 81 152 86 1
81 80 86 152 1
152 146 80 81 1
153 152 87 81 1
153 152 81 147 1
146 81 147 152 1
88 82 153 87 1
82 81 87 153 1
153 147 81 82 1
154 153 88 82 1
154 153 82 148 1
147 82 148 153 1
89 83 154 88 1
83 82 88 154 1
154 148 82 83 1
155 154 89 83 1
155 154 83 149 1
148 83 149 154 1
90 84 155 89 1
84 83 89 155 1
155 149 83 84 1
156 155 90 84 1
156 155 84 150 1
149 84 150 155 1
92 86 157 91 1
86 85 91 157 1
157 151 85 86 1
158 157 92 86 1
158 157 86 152 1
151 86 152 157 1
93 87 158 92 1
87 86 92 158 1
158 152 86 87 1
159 158 93 87 1
159 158 87 153 1
152 87 153 158 1
94 88 159 93 1
88 87 93 159 1
159 153 87 88 1
160 159 94 88 1
160 159 88 154 1
153 88 154 159 1
95 89 160 94 1
89 88 94 160 1
160 154 88 89 1
161 160 95 89 1
161 160 89 155 1
154 89 155 160 1
96 90 161 95 1
90 89 95 161 1
161 155 89 90 1
162 161 96 90 1
162 161 90 156 1
155 90 156 161 1
98 92 163 97 1
92 91 97 163 1
163 157 91 92 1
164 163 98 92 1
164 163 92 158 1
157 92 158 163 1
99 93 164 98 1
93 92 98 164 1
164 158 92 93 1
165 164 99 93 1
165 164 93 159 1
158 93 159 164 1
100 94 165 99 1
94 93 99 165 1
165 159 93 94 1
166 165 100 94 1
166 165 94 160 1
159 94 160 165 1
101 95 166 100 1
95 94 100 166 1
166 160 94 95 1
167 166 101 95 1
167 166 95 161 1
160 95 161 166 1
102 96 167 101 1
96 95 101 167 1
167 161 95 96 1
168 167 102 96 1
168 167 96 162 1
161 96 162 167 1
104 98 169 103 1
98 97 103 169 1
169 163 97 98 1
170 169 104 98 1
170 169 98 164 1
163 98 164 169 1
105 99 170 104 1
99 98 104 170 1
170 164 98 99 1
171 170 105 99 1
171 170 99 165 1
164 99 165 170 1
106 100 171 105 1
100 99 105 171 1
171 165 99 100 1
172 171 106 100 1
172 171 100 166 1
165 100 166 171 1
107 101 172 106 1
101 100 106 172 1
172 166 100 101 1
173 172 107 101 1
173 172 101 167 1
166 101 167 172 1
108 102 173 107 1
102 101 107 173 1
173 167 101 102 1
174 173 108 102 1
174 173 102 168 1
167 102 168 173 1
110 104 175 109 1
104 103 109 175 1
175 169 103 104 1
176 175 110 104 1
176 175 104 170 1
169 104 170 175 1
111 105 176 110 1
105 104 110 176 1
176 170 104 105 1
177 176 111 105 1
177 176 105 171 1
170 105 171 176 1
112 106 177 111 1
106 105 111 177 1
177 171 105 106 1
178 177 112 106 1
178 177 106 172 1
171 106 172 177 1
113 107 178 112 1
107 106 112 178 1
178 172 106 107 1
179 178 113 107 1
179 178 107 173 1
172 107 173 178 1
114 108 179 113 1
108 107 113 179 1
179 173 107 108 1
180 179 114 108 1
180 179 108 174 1
173 108 174 179 1
116 110 181 115 1
110 109 115 181 1
181 175 109 110 1
182 181 116 110 1
182 181 110 176 1
175 110 176 181 1
117 111 182 116 1
111 110 116 182 1
182 176 110 111 1
183 182 117 111 1
183 182 111 177 1
176 111 177 182 1
118 112 183 117 1
112 111 117 183 1
183 177 111 112 1
184 183 118 112 1
184 183 112 178 1
177 112 178 183 1
119 113 184 118 1
113 112 118 184 1
184 178 112 113 1
185 184 119 113 1
185 184 113 179 1
178 113 179 184 1
120 114 185 119 1
114 113 119 185 1
185 179 113 114 1
186 185 120 114 1
186 185 114 180 1
179 114 180 185 1
122 116 187 121 1
116 115 121 187 1
187 181 115 116 1
188 187 122 116 1
188 187 116 182 1
181 116 182 187 1
123 117 188 122 1
117 116 122 188 1
188 182 116 117 1
189 188 123 117 1
189 188 117 183 1
182 117 183 188 1
124 118 189 123 1
118 117 123 189 1
189 183 117 118 1
190 189 124 118 1
190 189 118 184 1
183 118 184 189 1
125 119 190 124 1
119 118 124 190 1
190 184 118 119 1
191 190 125 119 1
191 190 119 185 1
184 119 185 190 1
126 120 191 125 1
120 119 125 191 1
191 185 119 120 1
192 191 126 120 1
192 191 120 186 1
185 120 186 191 1
128 122 193 127 1
122 121 127 193 1
193 187 121 122 1
194 193 128 122 1
194 193 122 188 1
187 122 188 193 1
129 123 194 128 1
123 122 128 194 1
194 188 122 123 1
195 194 129 123 1
195 194 123 189 1
188 123 189 194 1
130 124 195 129 1
124 123 129 195 1
195 189 123 124 1
196 195 130 124 1
196 195 124 190 1
189 124 190 195 1
131 125 196 130 1
125 124 130 196 1
196 190 124 125 1
197 196 131 125 1
197 196 125 191 1
190 125 191 196 1
132 126 197 131 1
126 125 131 197 1
197 191 125 126 1
198 197 132 126 1
198 197 126 192 1
191 126 192 197 1
140 134 205 139 1
134 133 139 205 1
205 199 133 134 1
206 205 140 134 1
206 205 134 200 1
199 134 200 205 1
141 135 206 140 1
135 134 140 206 1
206 200 134 135 1
207 206 141 135 1
207 206 135 201 1
200 135 201 206 1
142 136 207 141 1
136 135 141 207 1
207 201 135 136 1
208 207 142 136 1
208 207 136 202 1
201 136 202 207 1
143 137 208 142 1
137 136 142 208 1
208 202 136 137 1
209 208 143 137 1
209 208 137 203 1
202 137 203 208 1
144 138 209 143 1
138 137 143 209 1
209 203 137 138 1
210 209 144 138 1
210 209 138 204 1
203 138 204 209 1
146 140 211 145 1
140 139 145 211 1
211 205 139 140 1
212 211 146 140 1
212 211 140 206 1
205 140 206 211 1
147 141 212 146 1
141 140 146 212 1
212 206 140 141 1
213 212 147 141 1
213 212 141 207 1
206 141 207 212 1
148 142 213 147 1
142 141 147 213 1
213 207 141 142 1
214 213 148 142 1
214 213 142 208 1
207 142 208 213 1
149 143 214 148 1
143 142 148 214 1
214 208 142 143 1
215 214 149 143 1
215 214 143 209 1
208 143 209 214 1
150 144 215 149 1
144 143 149 215 1
215 209 143 144 1
216 215 150 144 1
216 215 144 210 1
209 144 210 215 1
152 146 217 151 1
146 145 151 217 1
217 211 145 146 1
218 217 152 146 1
218 217 146 212 1
211 146 212 217 1
153 147 218 152 1
147 146 152 218 1
218 212 146 147 1
219 218 153 147 1
219 218 147 213 1
212 147 213 218 1
154 148 219 153 1
148 147 153 219 1
219 213 147 148 1
220 219 154 148 1
220 219 148 214 1
213 148 214 219 1
155 149 220 154 1
149 148 154 220 1
220 214 148 149 1
221 220 155 149 1
221 220 149 215 1
214 149 215 220 1
156 150 221 155 1
150 149 155 221 1
221 215 149 150 1
222 221 156 150 1
222 221 150 216 1
215 150 216 221 1
158 152 223 157 1
152 151 157 223 1
223 217 151 152 1
224 223 158 152 1
224 223 152 218 1
217 152 218 223 1
159 153 224 158 1
153 152 158 224 1
224 218 152 153 1
225 224 159 153 1
225 224 153 219 1
218 153 219 224 1
160 154 225 159 1
154 153 159 225 1
225 219 153 154 1
226 225 160 154 1
226 225 154 220 1
219 154 220 225 1
161 155 226 160 1
155 154 160 226 1
226 220 154 155 1
227 226 161 155 1
227 226 155 221 1
220 155 221 226 1
162 156 227 161 1
156 155 161 227 1
227 221 155 156 1
228 227 162 156 1
228 227 156 222 1
221 156 222 227 1
164 158 229 163 1
158 157 163 229 1
229 223 157 158 1
230 229 164 158 1
230 229 158 224 1
223 158 224 229 1
165 159 230 164 1
159 158 164 230 1
230 224 158 159 1
231 230 165 159 1
231 230 159 225 1
224 159 225 230 1
166 160 231 165 1
160 159 165 231 1
231 225 159 160 1
232 231 166 160 1
232 231 160 226 1
225 160 226 231 1
167 161 232 166 1
161 160 166 232 1
232 226 160 161 1
233 232 167 161 1
233 232 161 227 1
226 161 227 232 1
168 162 233 167 1
162 161 167 233 1
233 227 161 162 1
234 233 168 162 1
234 233 162 228 1
227 162 228 233 1
170 164 235 169 1
164 163 169 235 1
235 229 163 164 1
236 235 170 164 1
236 235 164 230 1
229 164 230 235 1
171 165 236 170 1
165 164 170 236 1
236 230 164 165 1
237 236 171 165 1
237 236 165 231 1
230 165 231 236 1
172 166 237 171 1
166 165 171 237 1
237 231 165 166 1
238 237 172 166 1
238 237 166 232 1
231 166 232 237 1
173 167 238 172 1
167 166 172 238 1
238 232 166 167 1
239 238 173 167 1
239 238 167 233 1
232 167 233 238 1
174 168 239 173 1
168 167 173 239 1
239 233 167 168 1
240 239 174 168 1
240 239 168 234 1
233 168 234 239 1
176 170 241 175 1
170 169 175 241 1
241 235 169 170 1
242 241 176 170 1
242 241 170 236 1
235 170 236 241 1
177 171 242 176 1
171 170 176 242 1
242 236 170 171 1
243 242 177 171 1
243 242 171 237 1
236 171 237 242 1
178 172 243 177 1
172 171 177 243 1
243 237 171 172 1
244 243 178 172 1
244 243 172 238 1
237 172 238 243 1
179 173 244 178 1
173 172 178 244 1
244 238 172 173 1
245 244 179 173 1
245 244 173 239 1
238 173 239 244 1
180 174 245 179 1
174 173 179 245 1
245 239 173 174 1
246 245 180 174 1
246 245 174 240 1
239 174 240 245 1
182 176 247 181 1
176 175 181 247 1
247 241 175 176 1
248 247 182 176 1
248 247 176 242 1
241 176 242 247 1
183 177 248 182 1
177 176 182 248 1
248 242 176 177 1
249 248 183 177 1
249 248 177 243 1
242 177 243 248 1
184 178 249 183 1
178 177 183 249 1
249 243 177 178 1
250 249 184 178 1
250 249 178 244 1
243 178 244 249 1
185 179 250 184 1
179 178 184 250 1
250 244 178 179 1
251 250 185 179 1
251 250 179 245 1
244 179 245 250 1
186 180 251 185 1
180 179 185 251 1
251 245 179 180 1
252 251 186 180 1
252 251 180 246 1
245 180 246 251 1
188 182 253 187 1
182 181 187 253 1
253 247 181 182 1
254 253 188 182 1
254 253 182 248 1
247 182 248 253 1
189 183 254 188 1
183 182 188 254 1
254 248 182 183 1
255 254 189 183 1
255 254 183 249 1
248 183 249 254 1
190 184 255 189 1
184 183 189 255 1
255 249 183 184 1
256 255 190 184 1
256 255 184 250 1
249 184 250 255 1
191 185 256 190 1
185 184 190 256 1
256 250 184 185 1
257 256 191 185 1
257 256 185 251 1
250 185 251 256 1
192 186 257 191 1
186 185 191 257 1
257 251 185 186 1
258 257 192 186 1
258 257 186 252 1
251 186 252 257 1
194 188 259 193 1
188 187 193 259 1
259 253 187 188 1
260 259 194 188 1
260 259 188 254 1
253 188 254 259 1
195 189 260 194 1
189 188 194 260 1
260 254 188 189 1
261 260 195 189 1
261 260 189 255 1
254 189 255 260 1
196 190 261 195 1
190 189 195 261 1
261 255 189 190 1
262 261 196 190 1
262 261 190 256 1
255 190 256 261 1
197 191 262 196 1
191 190 196 262 1
262 256 190 191 1
263 262 197 191 1
263 262 191 257 1
256 191 257 262 1
198 192 263 197 1
192 191 197 263 1
263 257 191 192 1
264 263 198 192 1
264 263 192 258 1
257 192 258 263 1
206 200 271 205 1
200 199 205 271 1
271 265 199 200 1
272 271 206 200 1
272 271 200 266 1
265 200 266 271 1
207 201 272 206 1
201 200 206 272 1
272 266 200 201 1
273 272 207 201 1
273 272 201 267 1
266 201 267 272 1
208 202 273 207 1
202 201 207 273 1
273 267 201 202 1
274 273 208 202 1
274 273 202 268 1
267 202 268 273 1
209 203 274 208 1
203 202 208 274 1
274 268 202 203 1
275 274 209 203 1
275 274 203 269 1
268 203 269 274 1
210 204 275 209 1
204 203 209 275 1
275 269 203 204 1
276 275 210 204 1
276 275 204 270 1
269 204 270 275 1
212 206 277 211 1
206 205 211 277 1
277 271 205 206 1
278 277 212 206 1
278 277 206 272 1
271 206 272 277 1
213 207 278 212 1
207 206 212 278 1
278 272 206 207 1
279 278 213 207 1
279 278 207 273 1
272 207 273 278 1
214 208 279 213 1
208 207 213 279 1
279 273 207 208 1
280 279 214 208 1
280 279 208 274 1
273 208 274 279 1
215 209 280 214 1
209 208 214 280 1
280 274 208 209 1
281 280 215 209 1
281 280 209 275 1
274 209 275 280 1
216 210 281 215 1
210 209 215 281 1
281 275 209 210 1
282 281 216 210 1
282 281 210 276 1
275 210 276 281 1
218 212 283 217 1
212 211 217 283 1
283 277 211 212 1
284 283 218 212 1
284 283 212 278 1
277 212 278 283 1
219 213 284 218 1
213 212 218 284 1
284 278 212 213 1
285 284 219 213 1
285 284 213 279 1
278 213 279 284 1
220 214 285 219 1
214 213 219 285 1
285 279 213 214 1
286 285 220 214 1
286 285 214 280 1
279 214 280 285 1
221 215 286 220 1
215 214 220 286 1
286 280 214 215 1
287 286 221 215 1
287 286 215 281 1
280 215 281 286 1
222 216 287 221 1
216 215 221 287 1
287 281 215 216 1
288 287 222 216 1
288 287 216 282 1
281 216 282 287 1
224 218 289 223 1
218 217 223 289 1
289 283 217 218 1
290 289 224 218 1
290 289 218 284 1
283 218 284 289 1
225 219 290 224 1
219 218 224 290 1
290 284 218 219 1
291 290 225 219 1
291 290 219 285 1
284 219 285 290 1
226 220 291 225 1
220 219 225 291 1
291 285 219 220 1
292 291 226 220 1
292 291 220 286 1
285 220 286 291 1
227 221 292 226 1
221 220 226 292 1
292 286 220 221 1
293 292 227 221 1
293 292 221 287 1
286 221 287 292 1
228 222 293 227 1
222 221 227 293 1
293 287 221 222 1
294 293 228 222 1
294 293 222 288 1
287 222 288 293 1
230 224 295 229 1
224 223 229 295 1
295 289 223 224 1
296 295 230 224 1
296 295 224 290 1
289 224 290 295 1
231 225 296 230 1
225 224 230 296 1
296 290 224 225 1
297 296 231 225 1
297 296 225 291 1
290 225 291 296 1
232 226 297 231 1
226 225 231 297 1
297 291 225 226 1
298 297 232 226 1
298 297 226 292 1
291 226 292 297 1
233 227 298 232 1
227 226 232 298 1
298 292 226 227 1
299 298 233 227 1
299 298 227 293 1
292 227 293 298 1
234 228 299 233 1
228 227 233 299 1
299 293 227 228 1
300 299 234 228 1
300 299 228 294 1
293 228 294 299 1
236 230 301 235 1
230 229 235 301 1
301 295 229 230 1
302 301 236 230 1
302 301 230 296 1
295 230 296 301 1
237 231 302 236 1
231 230 236 302 1
302 296 230 231 1
303 302 237 231 1
303 302 231 297 1
296 231 297 302 1
238 232 303 237 1
232 231 237 303 1
303 297 231 232 1
304 303 238 232 1
304 303 232 298 1
297 232 298 303 1
239 233 304 238 1
233 232 238 304 1
304 298 232 233 1
305 304 239 233 1
305 304 233 299 1
298 233 299 304 1
240 234 305 239 1
234 233 239 305 1
305 299 233 234 1
306 305 240 234 1
306 305 234 300 1
299 234 300 305 1
242 236 307 241 1
236 235 241 307 1
307 301 235 236 1
308 307 242 236 1
308 307 236 302 1
301 236 302 307 1
243 237 308 242 1
237 236 242 308 1
308 302 236 237 1
309 308 243 237 1
309 308 237 303 1
302 237 303 308 1
244 238 309 243 1
238 237 243 309 1
309 303 237 238 1
310 309 244 238 1
310 309 238 304 1
303 238 304 309 1
245 239 310 244 1
239 238 244 310 1
310 304 238 239 1
311 310 245 239 1
311 310 239 305 1
304 239 305 310 1
246 240 311 245 1
240 239 245 311 1
311 305 239 240 1
312 311 246 240 1
312 311 240 306 1
305 240 306 311 1
248 242 313 247 1
242 241 247 313 1
313 307 241 242 1
314 313 248 242 1
314 313 242 308 1
307 242 308 313 1
249 243 314 248 1
243 242 248 314 1
314 308 242 243 1
315 314 249 243 1
315 314 243 309 1
308 243 309 314 1
250 244 315 249 1
244 243 249 315 1
315 309 243 244 1
316 315 250 244 1
316 315 244 310 1
309 244 310 315 1
251 245 316 250 1
245 244 250 316 1
316 310 244 245 1
317 316 251 245 1
317 316 245 311 1
310 245 311 316 1
252 246 317 251 1
246 245 251 317 1
317 311 245 246 1
318 317 252 246 1
318 317 246 312 1
311 246 312 317 1
254 248 319 253 1
248 247 253 319 1
319 313 247 248 1
320 319 254 248 1
320 319 248 314 1
313 248 314 319 1
255 249 320 254 1
249 248 254 320 1
320 314 248 249 1
321 320 255 249 1
321 320 249 315 1
314 249 315 320 1
256 250 321 255 1
250 249 255 321 1
321 315 249 250 1
322 321 256 250 1
322 321 250 316 1
315 250 316 321 1
257 251 322 256 1
251 250 256 322 1
322 316 250 251 1
323 322 257 251 1
323 322 251 317 1
316 251 317 322 1
258 252 323 257 1
252 251 257 323 1
323 317 251 252 1
324 323 258 252 1
324 323 252 318 1
317 252 318 323 1
260 254 325 259 1
254 253 259 325 1
325 319 253 254 1
326 325 260 254 1
326 325 254 320 1
319 254 320 325 1
261 255 326 260 1
255 254 260 326 1
326 320 254 255 1
327 326 261 255 1
327 326 255 321 1
320 255 321 326 1
262 256 327 261 1
256 255 261 327 1
327 321 255 256 1
328 327 262 256 1
328 327 256 322 1
321 256 322 327 1
263 257 328 262 1
257 256 262 328 1
328 322 256 257 1
329 328 263 257 1
329 328 257 323 1
322 257 323 328 1
264 258 329 263 1
258 257 263 329 1
329 323 257 258 1
330 329 264 258 1
330 329 258 324 1
323 258 324 329 1
272 266 337 271 1
266 265 271 337 1
337 331 265 266 1
338 337 272 266 1
338 337 266 332 1
331 266 332 337 1
273 267 338 272 1
267 266 272 338 1
338 332 266 267 1
339 338 273 267 1
339 338 267 333 1
332 267 333 338 1
274 268 339 273 1
268 267 273 339 1
339 333 267 268 1
340 339 274 268 1
340 339 268 334 1
333 268 334 339 1
275 269 340 274 1
269 268 274 340 1
340 334 268 269 1
341 340 275 269 1
341 340 269 335 1
334 269 335 340 1
276 270 341 275 1
270 269 275 341 1
341 335 269 270 1
342 341 276 270 1
342 341 270 336 1
335 270 336 341 1
278 272 343 277 1
272 271 277 343 1
343 337 271 272 1
344 343 278 272 1
344 343 272 338 1
337 272 338 343 1
279 273 344 278 1
273 272 278 344 1
344 338 272 273 1
345 344 279 273 1
345 344 273 339 1
338 273 339 344 1
280 274 345 279 1
274 273 279 345 1
345 339 273 274 1
346 345 280 274 1
346 345 274 340 1
339 274 340 345 1
281 275 346 280 1
275 274 280 346 1
346 340 274 275 1
347 346 281 275 1
347 346 275 341 1
340 275 341 346 1
282 276 347 281 1
276 275 281 347 1
347 341 275 276 1
348 347 282 276 1
348 347 276 342 1
341 276 342 347 1
284 278 349 283 1
278 277 283 349 1
349 343 277 278 1
350 349 284 278 1
350 349 278 344 1
343 278 344 349 1
285 279 350 284 1
279 278 284 350 1
350 344 278 279 1
351 350 285 279 1
351 350 279 345 1
344 279 345 350 1
286 280 351 285 1
280 279 285 351 1
351 345 279 280 1
352 351 286 280 1
352 351 280 346 1
345 280 346 351 1
287 281 352 286 1
281 280 286 352 1
352 346 280 281 1
353 352 287 281 1
353 352 281 347 1
346 281 347 352 1
288 282 353 287 1
282 281 287 353 1
353 347 281 282 1
354 353 288 282 1
354 353 282 348 1
347 282 348 353 1
290 284 355 289 1
284 283 289 355 1
355 349 283 284 1
356 355 290 284 1
356 355 284 350 1
349 284 350 355 1
291 285 356 290 1
285 284 290 356 1
356 350 284 285 1
357 356 291 285 1
357 356 285 351 1
350 285 351 356 1
292 286 357 291 1
286 285 291 357 1
357 351 285 286 1
358 357 292 286 1
358 357 286 352 1
351 286 352 357 1
293 287 358 292 1
287 286 292 358 1
358 352 286 287 1
359 358 293 287 1
359 358 287 353 1
352 287 353 358 1
294 288 359 293 1
288 287 293 359 1
359 353 287 288 1
360 359 294 288 1
360 359 288 354 1
353 288 354 359 1
296 290 361 295 1
290 289 295 361 1
361 355 289 290 1
362 361 296 290 1
362 361 290 356 1
355 290 356 361 1
297 291 362 296 1
291 290 296 362 1
362 356 290 291 1
363 362 297 291 1
363 362 291 357 1
356 291 357 362 1
298 292 363 297 1
292 291 297 363 1
363 357 291 292 1
364 363 298 292 1
364 363 292 358 1
357 292 358 363 1
299 293 364 298 1
293 292 298 364 1
364 358 292 293 1
365 364 299 293 1
365 364 293 359 1
358 293 359 364 1
300 294 365 299 1
294 293 299 365 1
365 359 293 294 1
366 365 300 294 1
366 365 294 360 1
359 294 360 365 1
302 296 367 301 1
296 295 301 367 1
367 361 295 296 1
368 367 302 296 1
368 367 296 362 1
361 296 362 367 1
303 297 368 302 1
297 296 302 368 1
368 362 296 297 1
369 368 303 297 1
369 368 297 363 1
362 297 363 368 1
304 298 369 303 1
298 297 303 369 1
369 363 297 298 1
370 369 304 298 1
370 369 298 364 1
363 298 364 369 1
305 299 370 304 1
299 298 304 370 1
370 364 298 299 1
371 370 305 299 1
371 370 299 365 1
364 299 365 370 1
306 300 371 305 1
300 299 305 371 1
371 365 299 300 1
372 371 306 300 1
372 371 300 366 1
365 300 366 371 1
308 302 373 307 1
302 301 307 373 1
373 367 301 302 1
374 373 308 302 1
374 373 302 368 1
367 302 368 373 1
309 303 374 308 1
303 302 308 374 1
374 368 302 303 1
375 374 309 303 1
375 374 303 369 1
368 303 369 374 1
310 304 375 309 1
304 303 309 375 1
375 369 303 304 1
376 375 310 304 1
376 375 304 370 1
369 304 370 375 1
311 305 376 310 1
305 304 310 376 1
376 370 304 305 1
377 376 311 305 1
377 376 305 371 1
370 305 371 376 1
312 306 377 311 1
306 305 311 377 1
377 371 305 306 1
378 377 312 306 1
378 377 306 372 1
371 306 372 377 1
314 308 379 313 1
308 307 313 379 1
379 373 307 308 1
380 379 314 308 1
380 379 308 374 1
373 308 374 379 1
315 309 380 314 1
309 308 314 380 1
380 374 308 309 1
381 380 315 309 1
381 380 309 375 1
374 309 375 380 1
316 310 381 315 1
310 309 315 381 1
381 375 309 310 1
382 381 316 310 1
382 381 310 376 1
375 310 376 381 1
317 311 382 316 1
311 310 316 382 1
382 376 310 311 1
383 382 317 311 1
383 382 311 377 1
376 311 377 382 1
318 312 383 317 1
312 311 317 383 1
383 377 311 312 1
384 383 318 312 1
384 383 312 378 1
377 312 378 383 1
320 314 385 319 1
314 313 319 385 1
385 379 313 314 1
386 385 320 314 1
386 385 314 380 1
379 314 380 385 1
321 315 386 320 1
315 314 320 386 1
386 380 314 315 1
387 386 321 315 1
387 386 315 381 1
380 315 381 386 1
322 316 387 321 1
316 315 321 387 1
387 381 315 316 1
388 387 322 316 1
388 387 316 382 1
381 316 382 387 1
323 317 388 322 1
317 316 322 388 1
388 382 316 317 1
389 388 323 317 1
389 388 317 383 1
382 317 383 388 1
324 318 389 323 1
318 317 323 389 1
389 383 317 318 1
390 389 324 318 1
390 389 318 384 1
383 318 384 389 1
326 320 391 325 1
320 319 325 391 1
391 385 319 320 1
392 391 326 320 1
392 391 320 386 1
385 320 386 391 1
327 321 392 326 1
321 320 326 392 1
392 386 320 321 1
393 392 327 321 1
393 392 321 387 1
386 321 387 392 1
328 322 393 327 1
322 321 327 393 1
393 387 321 322 1
394 393 328 322 1
394 393 322 388 1
387 322 388 393 1
329 323 394 328 1
323 322 328 394 1
394 388 322 323 1
395 394 329 323 1
395 394 323 389 1
388 323 389 394 1
330 324 395 329 1
324 323 329 395 1
395 389 323 324 1
396 395 330 324 1
396 395 324 390 1
389 324 390 395 1
338 332 403 337 1
332 331 337 403 1
403 397 331 332 1
404 403 338 332 1
404 403 332 398 1
397 332 398 403 1
339 333 404 338 1
333 332 338 404 1
404 398 332 333 1
405 404 339 333 1
405 404 333 399 1
398 333 399 404 1
340 334 405 339 1
334 333 339 405 1
405 399 333 334 1
406 405 340 334 1
406 405 334 400 1
399 334 400 405 1
341 335 406 340 1
335 334 340 406 1
406 400 334 335 1
407 406 341 335 1
407 406 335 401 1
400 335 401 406 1
342 336 407 341 1
336 335 341 407 1
407 401 335 336 1
408 407 342 336 1
408 407 336 402 1
401 336 402 407 1
344 338 409 343 1
338 337 343 409 1
409 403 337 338 1
410 409 344 338 1
410 409 338 404 1
403 338 404 409 1
345 339 410 344 1
339 338 344 410 1
410 404 338 339 1
411 410 345 339 1
411 410 339 405 1
404 339 405 410 1
346 340 411 345 1
340 339 345 411 1
411 405 339 340 1
412 411 346 340 1
412 411 340 406 1
405 340 406 411 1
347 341 412 346 1
341 340 346 412 1
412 406 340 341 1
413 412 347 341 1
413 412 341 407 1
406 341 407 412 1
348 342 413 347 1
342 341 347 413 1
413 407 341 342 1
414 413 348 342 1
414 413 342 408 1
407 342 408 413 1
350 344 415 349 1
344 343 349 415 1
415 409 343 344 1
416 415 350 344 1
416 415 344 410 1
409 344 410 415 1
351 345 416 350 1
345 344 350 416 1
416 410 344 345 1
417 416 351 345 1
417 416 345 411 1
410 345 411 416 1
352 346 417 351 1
346 345 351 417 1
417 411 345 346 1
418 417 352 346 1
418 417 346 412 1
411 346 412 417 1
353 347 418 352 1
347 346 352 418 1
418 412 346 347 1
419 418 353 347 1
419 418 347 413 1
412 347 413 418 1
354 348 419 353 1
348 347 353 419 1
419 413 347 348 1
420 419 354 348 1
420 419 348 414 1
413 348 414 419 1
356 350 421 355 1
350 349 355 421 1
421 415 349 350 1
422 421 356 350 1
422 421 350 416 1
415 350 416 421 1
357 351 422 356 1
351 350 356 422 1
422 416 350 351 1
423 422 357 351 1
423 422 351 417 1
416 351 417 422 1
358 352 423 357 1
352 351 357 423 1
423 417 351 352 1
424 423 358 352 1
424 423 352 418 1
417 352 418 423 1
359 353 424 358 1
353 352 358 424 1
424 418 352 353 1
425 424 359 353 1
425 424 353 419 1
418 353 419 424 1
360 354 425 359 1
354 353 359 425 1
425 419 353 354 1
426 425 360 354 1
426 425 354 420 1
419 354 420 425 1
362 356 427 361 1
356 355 361 427 1
427 421 355 356 1
428 427 362 356 1
428 427 356 422 1
421 356 422 427 1
363 357 428 362 1
357 356 362 428 1
428 422 356 357 1
429 428 363 357 1
429 428 357 423 1
422 357 423 428 1
364 358 429 363 1
358 357 363 429 1
429 423 357 358 1
430 429 364 358 1
430 429 358 424 1
423 358 424 429 1
365 359 430 364 1
359 358 364 430 1
430 424 358 359 1
431 430 365 359 1
431 430 359 425 1
424 359 425 430 1
366 360 431 365 1
360 359 365 431 1
431 425 359 360 1
432 431 366 360 1
432 431 360 426 1
425 360 426 431 1
368 362 433 367 1
362 361 367 433 1
433 427 361 362 1
434 433 368 362 1
434 433 362 428 1
427 362 428 433 1
369 363 434 368 1
363 362 368 434 1
434 428 362 363 1
435 434 369 363 1
435 434 363 429 1
428 363 429 434 1
370 364 435 369 1
364 363 369 435 1
435 429 363 364 1
436 435 370 364 1
436 435 364 430 1
429 364 430 435 1
371 365 436 370 1
365 364 370 436 1
436 430 364 365 1
437 436 371 365 1
437 436 365 431 1
430 365 431 436 1
372 366 437 371 1
366 365 371 437 1
437 431 365 366 1
438 437 372 366 1
438 437 366 432 1
431 366 432 437 1
374 368 439 373 1
368 367 373 439 1
439 433 367 368 1
440 439 374 368 1
440 439 368 434 1
433 368 434 439 1
375 369 440 374 1
369 368 374 440 1
440 434 368 369 1
441 440 375 369 1
441 440 369 435 1
434 369 435 440 1
376 370 441 375 1
370 369 375 441 1
441 435 369 370 1
442 441 376 370 1
442 441 370 436 1
435 370 436 441 1
377 371 442 376 1
371 370 376 442 1
442 436 370 371 1
443 442 377 371 1
443 442 371 437 1
436 371 437 442 1
378 372 443 377 1
372 371 377 443 1
443 437 371 372 1
444 443 378 372 1
444 443 372 438 1
437 372 438 443 1
380 374 445 379 1
374 373 379 445 1
445 439 373 374 1
446 445 380 374 1
446 445 374 440 1
439 374 440 445 1
381 375 446 380 1
375 374 380 446 1
446 440 374 375 1
447 446 381 375 1
447 446 375 441 1
440 375 441 446 1
382 376 447 381 1
376 375 381 447 1
447 441 375 376 1
448 447 382 376 1
448 447 376 442 1
441 376 442 447 1
383 377 448 382 1
377 376 382 448 1
448 442 376 377 1
449 448 383 377 1
449 448 377 443 1
442 377 443 448 1
384 378 449 383 1
378 377 383 449 1
449 443 377 378 1
450 449 384 378 1
450 449 378 444 1
443 378 444 449 1
386 380 451 385 1
380 379 385 451 1
451 445 379 380 1
452 451 386 380 1
452 451 380 446 1
445 380 446 451 1
387 381 452 386 1
381 380 386 452 1
452 446 380 381 1
453 452 387 381 1
453 452 381 447 1
446 381 447 452 1
388 382 453 387 1
382 381 387 453 1
453 447 381 382 1
454 453 388 382 1
454 453 382 448 1
447 382 448 453 1
389 383 454 388 1
383 382 388 454 1
454 448 382 383 1
455 454 389 383 1
455 454 383 449 1
448 383 449 454 1
390 384 455 389 1
384 383 389 455 1
455 449 383 384 1
456 455 390 384 1
456 455 384 450 1
449 384 450 455 1
392 386 457 391 1
386 385 391 457 1
457 451 385 386 1
458 457 392 386 1
458 457 386 452 1
451 386 452 457 1
393 387 458 392 1
387 386 392 458 1
458 452 386 387 1
459 458 393 387 1
459 458 387 453 1
452 387 453 458 1
394 388 459 393 1
388 387 393 459 1
459 453 387 388 1
460 459 394 388 1
460 459 388 454 1
453 388 454 459 1
395 389 460 394 1
389 388 394 460 1
460 454 388 389 1
461 460 395 389 1
461 460 389 455 1
454 389 455 460 1
396 390 461 395 1
390 389 395 461 1
461 455 389 390 1
462 461 396 390 1
462 461 390 456 1
455 390 456 461 1
404 398 469 403 1
398 397 403 469 1
469 463 397 398 1
470 469 404 398 1
470 469 398 464 1
463 398 464 469 1
405 399 470 404 1
399 398 404 470 1
470 464 398 399 1
471 470 405 399 1
471 470 399 465 1
464 399 465 470 1
406 400 471 405 1
400 399 405 471 1
471 465 399 400 1
472 471 406 400 1
472 471 400 466 1
465 400 466 471 1
407 401 472 406 1
401 400 406 472 1
472 466 400 401 1
473 472 407 401 1
473 472 401 467 1
466 401 467 472 1
408 402 473 407 1
402 401 407 473 1
473 467 401 402 1
474 473 408 402 1
474 473 402 468 1
467 402 468 473 1
410 404 475 409 1
404 403 409 475 1
475 469 403 404 1
476 475 410 404 1
476 475 404 470 1
469 404 470 475 1
411 405 476 410 1
405 404 410 476 1
476 470 404 405 1
477 476 411 405 1
477 476 405 471 1
470 405 471 476 1
412 406 477 411 1
406 405 411 477 1
477 471 405 406 1
478 477 412 406 1
478 477 406 472 1
471 406 472 477 1
413 407 478 412 1
407 406 412 478 1
478 472 406 407 1
479 478 413 407 1
479 478 407 473 1
472 407 473 478 1
414 408 479 413 1
408 407 413 479 1
479 473 407 408 1
480 479 414 408 1
480 479 408 474 1
473 408 474 479 1
416 410 481 415 1
410 409 415 481 1
481 475 409 410 1
482 481 416 410 1
482 481 410 476 1
475 410 476 481 1
417 411 482 416 1
411 410 416 482 1
482 476 410 411 1
483 482 417 411 1
483 482 411 477 1
476 411 477 482 1
418 412 483 417 1
412 411 417 483 1
483 477 411 412 1
484 483 418 412 1
484 483 412 478 1
477 412 478 483 1
419 413 484 418 1
413 412 418 484 1
484 478 412 413 1
485 484 419 413 1
485 484 413 479 1
478 413 479 484 1
420 414 485 419 1
414 413 419 485 1
485 479 413 414 1
486 485 420 414 1
486 485 414 480 1
479 414 480 485 1
422 416 487 421 1
416 415 421 487 1
487 481 415 416 1
488 487 422 416 1
488 487 416 482 1
481 416 482 487 1
423 417 488 422 1
417 416 422 488 1
488 482 416 417 1
489 488 423 417 1
489 488 417 483 1
482 417 483 488 1
424 418 489 423 1
418 417 423 489 1
489 483 417 418 1
490 489 424 418 1
490 489 418 484 1
483 418 484 489 1
425 419 490 424 1
419 418 424 490 1
490 484 418 419 1
491 490 425 419 1
491 490 419 485 1
484 419 485 490 1
426 420 491 425 1
420 419 425 491 1
491 485 419 420 1
492 491 426 420 1
492 491 420 486 1
485 420 486 491 1
428 422 493 427 1
422 421 427 493 1
493 487 421 422 1
494 493 428 422 1
494 493 422 488 1
487 422 488 493 1
429 423 494 428 1
423 422 428 494 1
494 488 422 423 1
495 494 429 423 1
495 494 423 489 1
488 423 489 494 1
430 424 495 429 1
424 423 429 495 1
495 489 423 424 1
496 495 430 424 1
496 495 424 490 1
489 424 490 495 1
431 425 496 430 1
425 424 430 496 1
496 490 424 425 1
497 496 431 425 1
497 496 425 491 1
490 425 491 496 1
432 426 497 431 1
426 425 431 497 1
497 491 425 426 1
498 497 432 426 1
498 497 426 492 1
491 426 492 497 1
434 428 499 433 1
428 427 433 499 1
499 493 427 428 1
500 499 434 428 1
500 499 428 494 1
493 428 494 499 1
435 429 500 434 1
429 428 434 500 1
500 494 428 429 1
501 500 435 429 1
501 500 429 495 1
494 429 495 500 1
436 430 501 435 1
430 429 435 501 1
501 495 429 430 1
502 501 436 430 1
502 501 430 496 1
495 430 496 501 1
437 431 502 436 1
431 430 436 502 1
502 496 430 431 1
503 502 437 431 1
503 502 431 497 1
496 431 497 502 1
438 432 503 437 1
432 431 437 503 1
503 497 431 432 1
504 503 438 432 1
504 503 432 498 1
497 432 498 503 1
440 434 505 439 1
434 433 439 505 1
505 499 433 434 1
506 505 440 434 1
506 505 434 500 1
499 434 500 505 1
441 435 506 440 1
435 434 440 506 1
506 500 434 435 1
507 506 441 435 1
507 506 435 501 1
500 435 501 506 1
442 436 507 441 1
436 435 441 507 1
507 501 435 436 1
508 507 442 436 1
508 507 436 502 1
501 436 502 507 1
443 437 508 442 1
437 436 442 508 1
508 502 436 437 1
509 508 443 437 1
509 508 437 503 1
502 437 503 508 1
444 438 509 443 1
438 437 443 509 1
509 503 437 438 1
510 509 444 438 1
510 509 438 504 1
503 438 504 509 1
446 440 511 445 1
440 439 445 511 1
511 505 439 440 1
512 511 446 440 1
512 511 440 506 1
505 440 506 511 1
447 441 512 446 1
441 440 446 512 1
512 506 440 441 1
513 512 447 441 1
513 512 441 507 1
506 441 507 512 1
448 442 513 447 1
442 441 447 513 1
513 507 441 442 1
514 513 448 442 1
514 513 442 508 1
507 442 508 513 1
449 443 514 448 1
443 442 448 514 1
514 508 442 443 1
515 514 449 443 1
515 514 443 509 1
508 443 509 514 1
450 444 515 449 1
444 443 449 515 1
515 509 443 444 1
516 515 450 444 1
516 515 444 510 1
509 444 510 515 1
452 446 517 451 1
446 445 451 517 1
517 511 445 446 1
518 517 452 446 1
518 517 446 512 1
511 446 512 517 1
453 447 518 452 1
447 446 452 518 1
518 512 446 447 1
519 518 453 447 1
519 518 447 513 1
512 447 513 518 1
454 448 519 453 1
448 447 453 519 1
519 513 447 448 1
520 519 454 448 1
520 519 448 514 1
513 448 514 519 1
455 449 520 454 1
449 448 454 520 1
520 514 448 449 1
521 520 455 449 1
521 520 449 515 1
514 449 515 520 1
456 450 521 455 1
450 449 455 521 1
521 515 449 450 1
522 521 456 450 1
522 521 450 516 1
515 450 516 521 1
458 452 523 457 1
452 451 457 523 1
523 517 451 452 1
524 523 458 452 1
524 523 452 518 1
517 452 518 523 1
459 453 524 458 1
453 452 458 524 1
524 518 452 453 1
525 524 459 453 1
525 524 453 519 1
518 453 519 524 1
460 454 525 459 1
454 453 459 525 1
525 519 453 454 1
526 525 460 454 1
526 525 454 520 1
519 454 520 525 1
461 455 526 460 1
455 454 460 526 1
526 520 454 455 1
527 526 461 455 1
527 526 455 521 1
520 455 521 526 1
462 456 527 461 1
456 455 461 527 1
527 521 455 456 1
528 527 462 456 1
528 527 456 522 1
521 456 522 527 1
470 464 535 469 1
464 463 469 535 1
535 529 463 464 1
536 535 470 464 1
536 535 464 530 1
529 464 530 535 1
471 465 536 470 1
465 464 470 536 1
536 530 464 465 1
537 536 471 465 1
537 536 465 531 1
530 465 531 536 1
472 466 537 471 1
466 465 471 537 1
537 531 465 466 1
538 537 472 466 1
538 537 466 532 1
531 466 532 537 1
473 467 538 472 1
467 466 472 538 1
538 532 466 467 1
539 538 473 467 1
539 538 467 533 1
532 467 533 538 1
474 468 539 473 1
468 467 473 539 1
539 533 467 468 1
540 539 474 468 1
540 539 468 534 1
533 468 534 539 1
476 470 541 475 1
470 469 475 541 1
541 535 469 470 1
542 541 476 470 1
542 541 470 536 1
535 470 536 541 1
477 471 542 476 1
471 470 476 542 1
542 536 470 471 1
543 542 477 471 1
543 542 471 537 1
536 471 537 542 1
478 472 543 477 1
472 471 477 543 1
543 537 471 472 1
544 543 478 472 1
544 543 472 538 1
537 472 538 543 1
479 473 544 478 1
473 472 478 544 1
544 538 472 473 1
545 544 479 473 1
545 544 473 539 1
538 473 539 544 1
480 474 545 479 1
474 473 479 545 1
545 539 473 474 1
546 545 480 474 1
546 545 474 540 1
539 474 540 545 1
482 476 547 481 1
476 475 481 547 1
547 541 475 476 1
548 547 482 476 1
548 547 476 542 1
541 476 542 547 1
483 477 548 482 1
477 476 482 548 1
548 542 476 477 1
549 548 483 477 1
549 548 477 543 1
542 477 543 548 1
484 478 549 483 1
478 477 483 549 1
549 543 477 478 1
550 549 484 478 1
550 549 478 544 1
543 478 544 549 1
485 479 550 484 1
479 478 484 550 1
550 544 478 479 1
551 550 485 479 1
551 550 479 545 1
544 479 545 550 1
486 480 551 485 1
480 479 485 551 1
551 545 479 480 1
552 551 486 480 1
552 551 480 546 1
545 480 546 551 1
488 482 553 487 1
482 481 487 553 1
553 547 481 482 1
554 553 488 482 1
554 553 482 548 1
547 482 548 553 1
489 483 554 488 1
483 482 488 554 1
554 548 482 483 1
555 554 489 483 1
555 554 483 549 1
548 483 549 554 1
490 484 555 489 1
484 483 489 555 1
555 549 483 484 1
556 555 490 484 1
556 555 484 550 1
549 484 550 555 1
491 485 556 490 1
485 484 490 556 1
556 550 484 485 1
557 556 491 485 1
557 556 485 551 1
550 485 551 556 1
492 486 557 491 1
486 485 491 557 1
557 551 485 486 1
558 557 492 486 1
558 557 486 552 1
551 486 552 557 1
494 488 559 493 1
488 487 493 559 1
559 553 487 488 1
560 559 494 488 1
560 559 488 554 1
553 488 554 559 1
495 489 560 494 1
489 488 494 560 1
560 554 488 489 1
561 560 495 489 1
561 560 489 555 1
554 489 555 560 1
496 490 561 495 1
490 489 495 561 1
561 555 489 490 1
562 561 496 490 1
562 561 490 556 1
555 490 556 561 1
497 491 562 496 1
491 490 496 562 1
562 556 490 491 1
563 562 497 491 1
563 562 491 557 1
556 491 557 562 1
498 492 563 497 1
492 491 497 563 1
563 557 491 492 1
564 563 498 492 1
564 563 492 558 1
557 492 558 563 1
500 494 565 499 1
494 493 499 565 1
565 559 493 494 1
566 565 500 494 1
566 565 494 560 1
559 494 560 565 1
501 495 566 500 1
495 494 500 566 1
566 560 494 495 1
567 566 501 495 1
567 566 495 561 1
560 495 561 566 1
502 496 567 501 1
496 495 501 567 1
567 561 495 496 1
568 567 502 496 1
568 567 496 562 1
561 496 562 567 1
503 497 568 502 1
497 496 502 568 1
568 562 496 497 1
569 568 503 497 1
569 568 497 563 1
562 497 563 568 1
504 498 569 503 1
498 497 503 569 1
569 563 497 498 1
570 569 504 498 1
570 569 498 564 1
563 498 564 569 1
506 500 571 505 1
500 499 505 571 1
571 565 499 500 1
572 571 506 500 1
572 571 500 566 1
565 500 566 571 1
507 501 572 506 1
501 500 506 572 1
572 566 500 501 1
573 572 507 501 1
573 572 501 567 1
566 501 567 572 1
508 502 573 507 1
502 501 507 573 1
573 567 501 502 1
574 573 508 502 1
574 573 502 568 1
567 502 568 573 1
509 503 574 508 1
503 502 508 574 1
574 568 502 503 1
575 574 509 503 1
575 574 503 569 1
568 503 569 574 1
510 504 575 509 1
504 503 509 575 1
575 569 503 504 1
576 575 510 504 1
576 575 504 570 1
569 504 570 575 1
512 506 577 511 1
506 505 511 577 1
577 571 505 506 1
578 577 512 506 1
578 577 506 572 1
571 506 572 577 1
513 507 578 512 1
507 506 512 578 1
578 572 506 507 1
579 578 513 507 1
579 578 507 573 1
572 507 573 578 1
514 508 579 513 1
508 507 513 579 1
579 573 507 508 1
580 579 514 508 1
580 579 508 574 1
573 508 574 579 1
515 509 580 514 1
509 508 514 580 1
580 574 508 509 1
581 580 515 509 1
581 580 509 575 1
574 509 575 580 1
516 510 581 515 1
510 509 515 581 1
581 575 509 510 1
582 581 516 510 1
582 581 510 576 1
575 510 576 581 1
518 512 583 517 1
512 511 517 583 1
583 577 511 512 1
584 583 518 512 1
584 583 512 578 1
577 512 578 583 1
519 513 584 518 1
513 512 518 584 1
584 578 512 513 1
585 584 519 513 1
585 584 513 579 1
578 513 579 584 1
520 514 585 519 1
514 513 519 585 1
585 579 513 514 1
586 585 520 514 1
586 585 514 580 1
579 514 580 585 1
521 515 586 520 1
515 514 520 586 1
586 580 514 515 1
587 586 521 515 1
587 586 515 581 1
580 515 581 586 1
522 516 587 521 1
516 515 521 587 1
587 581 515 516 1
588 587 522 516 1
588 587 516 582 1
581 516 582 587 1
524 518 589 523 1
518 517 523 589 1
589 583 517 518 1
590 589 524 518 1
590 589 518 584 1
583 518 584 589 1
525 519 590 524 1
519 518 524 590 1
590 584 518 519 1
591 590 525 519 1
591 590 519 585 1
584 519 585 590 1
526 520 591 525 1
520 519 525 591 1
591 585 519 520 1
592 591 526 520 1
592 591 520 586 1
585 520 586 591 1
527 521 592 526 1
521 520 526 592 1
592 586 520 521 1
593 592 527 521 1
593 592 521 587 1
586 521 587 592 1
528 522 593 527 1
522 521 527 593 1
593 587 521 522 1
594 593 528 522 1
594 593 522 588 1
587 522 588 593 1
