v -0.8 0 -0.5
v -0.8 0 -0.3
v -0.8 0 -0.1
v -0.8 0 0.1
v -0.8 0 0.3
v -0.8 0 0.5
v -0.8 0.3 -0.5
v -0.8 0.3 -0.3
v -0.8 0.3 -0.1
v -0.8 0.3 0.1
v -0.8 0.3 0.3
v -0.8 0.3 0.5
v -0.8 0.6 -0.5
v -0.8 0.6 -0.3
v -0.8 0.6 -0.1
v -0.8 0.6 0.1
v -0.8 0.6 0.3
v -0.8 0.6 0.5
v -0.8 0.9 -0.5
v -0.8 0.9 -0.3
v -0.8 0.9 -0.1
v -0.8 0.9 0.1
v -0.8 0.9 0.3
v -0.8 0.9 0.5
v -0.8 1.2 -0.5
v -0.8 1.2 -0.3
v -0.8 1.2 -0.1
v -0.8 1.2 0.1
v -0.8 1.2 0.3
v -0.8 1.2 0.5
v -0.8 1.5 -0.5
v -0.8 1.5 -0.3
v -0.8 1.5 -0.1
v -0.8 1.5 0.1
v -0.8 1.5 0.3
v -0.8 1.5 0.5
v -0.8 1.8 -0.5
v -0.8 1.8 -0.3
v -0.8 1.8 -0.1
v -0.8 1.8 0.1
v -0.8 1.8 0.3
v -0.8 1.8 0.5
v -0.8 2.1 -0.5
v -0.8 2.1 -0.3
v -0.8 2.1 -0.1
v -0.8 2.1 0.1
v -0.8 2.1 0.3
v -0.8 2.1 0.5
v -0.8 2.4 -0.5
v -0.8 2.4 -0.3
v -0.8 2.4 -0.1
v -0.8 2.4 0.1
v -0.8 2.4 0.3
v -0.8 2.4 0.5
v -0.8 2.7 -0.5
v -0.8 2.7 -0.3
v -0.8 2.7 -0.1
v -0.8 2.7 0.1
v -0.8 2.7 0.3
v -0.8 2.7 0.5
v -0.8 3 -0.5
v -0.8 3 -0.3
v -0.8 3 -0.1
v -0.8 3 0.1
v -0.8 3 0.3
v -0.8 3 0.5
v -0.6 0 -0.5
v -0.6 0 -0.3
v -0.6 0 -0.1
v -0.6 0 0.1
v -0.6 0 0.3
v -0.6 0 0.5
v -0.6 0.3 -0.5
v -0.6 0.3 -0.3
v -0.6 0.3 -0.1
v -0.6 0.3 0.1
v -0.6 0.3 0.3
v -0.6 0.3 0.5
v -0.6 0.6 -0.5
v -0.6 0.6 -0.3
v -0.6 0.6 -0.1
v -0.6 0.6 0.1
v -0.6 0.6 0.3
v -0.6 0.6 0.5
v -0.6 0.9 -0.5
v -0.6 0.9 -0.3
v -0.6 0.9 -0.1
v -0.6 0.9 0.1
v -0.6 0.9 0.3
v -0.6 0.9 0.5
v -0.6 1.2 -0.5
v -0.6 1.2 -0.3
v -0.6 1.2 -0.1
v -0.6 1.2 0.1
v -0.6 1.2 0.3
v -0.6 1.2 0.5
v -0.6 1.5 -0.5
v -0.6 1.5 -0.3
v -0.6 1.5 -0.1
v -0.6 1.5 0.1
v -0.6 1.5 0.3
v -0.6 1.5 0.5
v -0.6 1.8 -0.5
v -0.6 1.8 -0.3
v -0.6 1.8 -0.1
v -0.6 1.8 0.1
v -0.6 1.8 0.3
v -0.6 1.8 0.5
v -0.6 2.1 -0.5
v -0.6 2.1 -0.3
v -0.6 2.1 -0.1
v -0.6 2.1 0.1
v -0.6 2.1 0.3
v -0.6 2.1 0.5
v -0.6 2.4 -0.5
v -0.6 2.4 -0.3
v -0.6 2.4 -0.1
v -0.6 2.4 0.1
v -0.6 2.4 0.3
v -0.6 2.4 0.5
v -0.6 2.7 -0.5
v -0.6 2.7 -0.3
v -0.6 2.7 -0.1
v -0.6 2.7 0.1
v -0.6 2.7 0.3
v -0.6 2.7 0.5
v -0.6 3 -0.5
v -0.6 3 -0.3
v -0.6 3 -0.1
v -0.6 3 0.1
v -0.6 3 0.3
v -0.6 3 0.5
v -0.4 0 -0.5
v -0.4 0 -0.3
v -0.4 0 -0.1
v -0.4 0 0.1
v -0.4 0 0.3
v -0.4 0 0.5
v -0.4 0.3 -0.5
v -0.4 0.3 -0.3
v -0.4 0.3 -0.1
v -0.4 0.3 0.1
v -0.4 0.3 0.3
v -0.4 0.3 0.5
v -0.4 0.6 -0.5
v -0.4 0.6 -0.3
v -0.4 0.6 -0.1
v -0.4 0.6 0.1
v -0.4 0.6 0.3
v -0.4 0.6 0.5
v -0.4 0.9 -0.5
v -0.4 0.9 -0.3
v -0.4 0.9 -0.1
v -0.4 0.9 0.1
v -0.4 0.9 0.3
v -0.4 0.9 0.5
v -0.4 1.2 -0.5
v -0.4 1.2 -0.3
v -0.4 1.2 -0.1
v -0.4 1.2 0.1
v -0.4 1.2 0.3
v -0.4 1.2 0.5
v -0.4 1.5 -0.5
v -0.4 1.5 -0.3
v -0.4 1.5 -0.1
v -0.4 1.5 0.1
v -0.4 1.5 0.3
v -0.4 1.5 0.5
v -0.4 1.8 -0.5
v -0.4 1.8 -0.3
v -0.4 1.8 -0.1
v -0.4 1.8 0.1
v -0.4 1.8 0.3
v -0.4 1.8 0.5
v -0.4 2.1 -0.5
v -0.4 2.1 -0.3
v -0.4 2.1 -0.1
v -0.4 2.1 0.1
v -0.4 2.1 0.3
v -0.4 2.1 0.5
v -0.4 2.4 -0.5
v -0.4 2.4 -0.3
v -0.4 2.4 -0.1
v -0.4 2.4 0.1
v -0.4 2.4 0.3
v -0.4 2.4 0.5
v -0.4 2.7 -0.5
v -0.4 2.7 -0.3
v -0.4 2.7 -0.1
v -0.4 2.7 0.1
v -0.4 2.7 0.3
v -0.4 2.7 0.5
v -0.4 3 -0.5
v -0.4 3 -0.3
v -0.4 3 -0.1
v -0.4 3 0.1
v -0.4 3 0.3
v -0.4 3 0.5
v -0.2 0 -0.5
v -0.2 0 -0.3
v -0.2 0 -0.1
v -0.2 0 0.1
v -0.2 0 0.3
v -0.2 0 0.5
v -0.2 0.3 -0.5
v -0.2 0.3 -0.3
v -0.2 0.3 -0.1
v -0.2 0.3 0.1
v -0.2 0.3 0.3
v -0.2 0.3 0.5
v -0.2 0.6 -0.5
v -0.2 0.6 -0.3
v -0.2 0.6 -0.1
v -0.2 0.6 0.1
v -0.2 0.6 0.3
v -0.2 0.6 0.5
v -0.2 0.9 -0.5
v -0.2 0.9 -0.3
v -0.2 0.9 -0.1
v -0.2 0.9 0.1
v -0.2 0.9 0.3
v -0.2 0.9 0.5
v -0.2 1.2 -0.5
v -0.2 1.2 -0.3
v -0.2 1.2 -0.1
v -0.2 1.2 0.1
v -0.2 1.2 0.3
v -0.2 1.2 0.5
v -0.2 1.5 -0.5
v -0.2 1.5 -0.3
v -0.2 1.5 -0.1
v -0.2 1.5 0.1
v -0.2 1.5 0.3
v -0.2 1.5 0.5
v -0.2 1.8 -0.5
v -0.2 1.8 -0.3
v -0.2 1.8 -0.1
v -0.2 1.8 0.1
v -0.2 1.8 0.3
v -0.2 1.8 0.5
v -0.2 2.1 -0.5
v -0.2 2.1 -0.3
v -0.2 2.1 -0.1
v -0.2 2.1 0.1
v -0.2 2.1 0.3
v -0.2 2.1 0.5
v -0.2 2.4 -0.5
v -0.2 2.4 -0.3
v -0.2 2.4 -0.1
v -0.2 2.4 0.1
v -0.2 2.4 0.3
v -0.2 2.4 0.5
v -0.2 2.7 -0.5
v -0.2 2.7 -0.3
v -0.2 2.7 -0.1
v -0.2 2.7 0.1
v -0.2 2.7 0.3
v -0.2 2.7 0.5
v -0.2 3 -0.5
v -0.2 3 -0.3
v -0.2 3 -0.1
v -0.2 3 0.1
v -0.2 3 0.3
v -0.2 3 0.5
v 0 0 -0.5
v 0 0 -0.3
v 0 0 -0.1
v 0 0 0.1
v 0 0 0.3
v 0 0 0.5
v 0 0.3 -0.5
v 0 0.3 -0.3
v 0 0.3 -0.1
v 0 0.3 0.1
v 0 0.3 0.3
v 0 0.3 0.5
v 0 0.6 -0.5
v 0 0.6 -0.3
v 0 0.6 -0.1
v 0 0.6 0.1
v 0 0.6 0.3
v 0 0.6 0.5
v 0 0.9 -0.5
v 0 0.9 -0.3
v 0 0.9 -0.1
v 0 0.9 0.1
v 0 0.9 0.3
v 0 0.9 0.5
v 0 1.2 -0.5
v 0 1.2 -0.3
v 0 1.2 -0.1
v 0 1.2 0.1
v 0 1.2 0.3
v 0 1.2 0.5
v 0 1.5 -0.5
v 0 1.5 -0.3
v 0 1.5 -0.1
v 0 1.5 0.1
v 0 1.5 0.3
v 0 1.5 0.5
v 0 1.8 -0.5
v 0 1.8 -0.3
v 0 1.8 -0.1
v 0 1.8 0.1
v 0 1.8 0.3
v 0 1.8 0.5
v 0 2.1 -0.5
v 0 2.1 -0.3
v 0 2.1 -0.1
v 0 2.1 0.1
v 0 2.1 0.3
v 0 2.1 0.5
v 0 2.4 -0.5
v 0 2.4 -0.3
v 0 2.4 -0.1
v 0 2.4 0.1
v 0 2.4 0.3
v 0 2.4 0.5
v 0 2.7 -0.5
v 0 2.7 -0.3
v 0 2.7 -0.1
v 0 2.7 0.1
v 0 2.7 0.3
v 0 2.7 0.5
v 0 3 -0.5
v 0 3 -0.3
v 0 3 -0.1
v 0 3 0.1
v 0 3 0.3
v 0 3 0.5
v 0.2 0 -0.5
v 0.2 0 -0.3
v 0.2 0 -0.1
v 0.2 0 0.1
v 0.2 0 0.3
v 0.2 0 0.5
v 0.2 0.3 -0.5
v 0.2 0.3 -0.3
v 0.2 0.3 -0.1
v 0.2 0.3 0.1
v 0.2 0.3 0.3
v 0.2 0.3 0.5
v 0.2 0.6 -0.5
v 0.2 0.6 -0.3
v 0.2 0.6 -0.1
v 0.2 0.6 0.1
v 0.2 0.6 0.3
v 0.2 0.6 0.5
v 0.2 0.9 -0.5
v 0.2 0.9 -0.3
v 0.2 0.9 -0.1
v 0.2 0.9 0.1
v 0.2 0.9 0.3
v 0.2 0.9 0.5
v 0.2 1.2 -0.5
v 0.2 1.2 -0.3
v 0.2 1.2 -0.1
v 0.2 1.2 0.1
v 0.2 1.2 0.3
v 0.2 1.2 0.5
v 0.2 1.5 -0.5
v 0.2 1.5 -0.3
v 0.2 1.5 -0.1
v 0.2 1.5 0.1
v 0.2 1.5 0.3
v 0.2 1.5 0.5
v 0.2 1.8 -0.5
v 0.2 1.8 -0.3
v 0.2 1.8 -0.1
v 0.2 1.8 0.1
v 0.2 1.8 0.3
v 0.2 1.8 0.5
v 0.2 2.1 -0.5
v 0.2 2.1 -0.3
v 0.2 2.1 -0.1
v 0.2 2.1 0.1
v 0.2 2.1 0.3
v 0.2 2.1 0.5
v 0.2 2.4 -0.5
v 0.2 2.4 -0.3
v 0.2 2.4 -0.1
v 0.2 2.4 0.1
v 0.2 2.4 0.3
v 0.2 2.4 0.5
v 0.2 2.7 -0.5
v 0.2 2.7 -0.3
v 0.2 2.7 -0.1
v 0.2 2.7 0.1
v 0.2 2.7 0.3
v 0.2 2.7 0.5
v 0.2 3 -0.5
v 0.2 3 -0.3
v 0.2 3 -0.1
v 0.2 3 0.1
v 0.2 3 0.3
v 0.2 3 0.5
v 0.4 0 -0.5
v 0.4 0 -0.3
v 0.4 0 -0.1
v 0.4 0 0.1
v 0.4 0 0.3
v 0.4 0 0.5
v 0.4 0.3 -0.5
v 0.4 0.3 -0.3
v 0.4 0.3 -0.1
v 0.4 0.3 0.1
v 0.4 0.3 0.3
v 0.4 0.3 0.5
v 0.4 0.6 -0.5
v 0.4 0.6 -0.3
v 0.4 0.6 -0.1
v 0.4 0.6 0.1
v 0.4 0.6 0.3
v 0.4 0.6 0.5
v 0.4 0.9 -0.5
v 0.4 0.9 -0.3
v 0.4 0.9 -0.1
v 0.4 0.9 0.1
v 0.4 0.9 0.3
v 0.4 0.9 0.5
v 0.4 1.2 -0.5
v 0.4 1.2 -0.3
v 0.4 1.2 -0.1
v 0.4 1.2 0.1
v 0.4 1.2 0.3
v 0.4 1.2 0.5
v 0.4 1.5 -0.5
v 0.4 1.5 -0.3
v 0.4 1.5 -0.1
v 0.4 1.5 0.1
v 0.4 1.5 0.3
v 0.4 1.5 0.5
v 0.4 1.8 -0.5
v 0.4 1.8 -0.3
v 0.4 1.8 -0.1
v 0.4 1.8 0.1
v 0.4 1.8 0.3
v 0.4 1.8 0.5
v 0.4 2.1 -0.5
v 0.4 2.1 -0.3
v 0.4 2.1 -0.1
v 0.4 2.1 0.1
v 0.4 2.1 0.3
v 0.4 2.1 0.5
v 0.4 2.4 -0.5
v 0.4 2.4 -0.3
v 0.4 2.4 -0.1
v 0.4 2.4 0.1
v 0.4 2.4 0.3
v 0.4 2.4 0.5
v 0.4 2.7 -0.5
v 0.4 2.7 -0.3
v 0.4 2.7 -0.1
v 0.4 2.7 0.1
v 0.4 2.7 0.3
v 0.4 2.7 0.5
v 0.4 3 -0.5
v 0.4 3 -0.3
v 0.4 3 -0.1
v 0.4 3 0.1
v 0.4 3 0.3
v 0.4 3 0.5
v 0.6 0 -0.5
v 0.6 0 -0.3
v 0.6 0 -0.1
v 0.6 0 0.1
v 0.6 0 0.3
v 0.6 0 0.5
v 0.6 0.3 -0.5
v 0.6 0.3 -0.3
v 0.6 0.3 -0.1
v 0.6 0.3 0.1
v 0.6 0.3 0.3
v 0.6 0.3 0.5
v 0.6 0.6 -0.5
v 0.6 0.6 -0.3
v 0.6 0.6 -0.1
v 0.6 0.6 0.1
v 0.6 0.6 0.3
v 0.6 0.6 0.5
v 0.6 0.9 -0.5
v 0.6 0.9 -0.3
v 0.6 0.9 -0.1
v 0.6 0.9 0.1
v 0.6 0.9 0.3
v 0.6 0.9 0.5
v 0.6 1.2 -0.5
v 0.6 1.2 -0.3
v 0.6 1.2 -0.1
v 0.6 1.2 0.1
v 0.6 1.2 0.3
v 0.6 1.2 0.5
v 0.6 1.5 -0.5
v 0.6 1.5 -0.3
v 0.6 1.5 -0.1
v 0.6 1.5 0.1
v 0.6 1.5 0.3
v 0.6 1.5 0.5
v 0.6 1.8 -0.5
v 0.6 1.8 -0.3
v 0.6 1.8 -0.1
v 0.6 1.8 0.1
v 0.6 1.8 0.3
v 0.6 1.8 0.5
v 0.6 2.1 -0.5
v 0.6 2.1 -0.3
v 0.6 2.1 -0.1
v 0.6 2.1 0.1
v 0.6 2.1 0.3
v 0.6 2.1 0.5
v 0.6 2.4 -0.5
v 0.6 2.4 -0.3
v 0.6 2.4 -0.1
v 0.6 2.4 0.1
v 0.6 2.4 0.3
v 0.6 2.4 0.5
v 0.6 2.7 -0.5
v 0.6 2.7 -0.3
v 0.6 2.7 -0.1
v 0.6 2.7 0.1
v 0.6 2.7 0.3
v 0.6 2.7 0.5
v 0.6 3 -0.5
v 0.6 3 -0.3
v 0.6 3 -0.1
v 0.6 3 0.1
v 0.6 3 0.3
v 0.6 3 0.5
v 0.8 0 -0.5
v 0.8 0 -0.3
v 0.8 0 -0.1
v 0.8 0 0.1
v 0.8 0 0.3
v 0.8 0 0.5
v 0.8 0.3 -0.5
v 0.8 0.3 -0.3
v 0.8 0.3 -0.1
v 0.8 0.3 0.1
v 0.8 0.3 0.3
v 0.8 0.3 0.5
v 0.8 0.6 -0.5
v 0.8 0.6 -0.3
v 0.8 0.6 -0.1
v 0.8 0.6 0.1
v 0.8 0.6 0.3
v 0.8 0.6 0.5
v 0.8 0.9 -0.5
v 0.8 0.9 -0.3
v 0.8 0.9 -0.1
v 0.8 0.9 0.1
v 0.8 0.9 0.3
v 0.8 0.9 0.5
v 0.8 1.2 -0.5
v 0.8 1.2 -0.3
v 0.8 1.2 -0.1
v 0.8 1.2 0.1
v 0.8 1.2 0.3
v 0.8 1.2 0.5
v 0.8 1.5 -0.5
v 0.8 1.5 -0.3
v 0.8 1.5 -0.1
v 0.8 1.5 0.1
v 0.8 1.5 0.3
v 0.8 1.5 0.5
v 0.8 1.8 -0.5
v 0.8 1.8 -0.3
v 0.8 1.8 -0.1
v 0.8 1.8 0.1
v 0.8 1.8 0.3
v 0.8 1.8 0.5
v 0.8 2.1 -0.5
v 0.8 2.1 -0.3
v 0.8 2.1 -0.1
v 0.8 2.1 0.1
v 0.8 2.1 0.3
v 0.8 2.1 0.5
v 0.8 2.4 -0.5
v 0.8 2.4 -0.3
v 0.8 2.4 -0.1
v 0.8 2.4 0.1
v 0.8 2.4 0.3
v 0.8 2.4 0.5
v 0.8 2.7 -0.5
v 0.8 2.7 -0.3
v 0.8 2.7 -0.1
v 0.8 2.7 0.1
v 0.8 2.7 0.3
v 0.8 2.7 0.5
v 0.8 3 -0.5
v 0.8 3 -0.3
v 0.8 3 -0.1
v 0.8 3 0.1
v 0.8 3 0.3
v 0.8 3 0.5
f 2 1 7
f 67 1 2
f 1 7 73
f 73 67 1
f 3 2 8
f 68 2 3
f 7 8 2
f 67 2 68
f 4 3 9
f 69 3 4
f 8 9 3
f 68 3 69
f 5 4 10
f 70 4 5
f 9 10 4
f 69 4 70
f 6 5 11
f 71 5 6
f 10 11 5
f 70 5 71
f 11 12 6
f 12 6 78
f 71 6 72
f 6 72 78
f 8 7 13
f 7 13 79
f 79 73 7
f 9 8 14
f 13 14 8
f 10 9 15
f 14 15 9
f 11 10 16
f 15 16 10
f 12 11 17
f 16 17 11
f 17 18 12
f 18 12 84
f 12 78 84
f 14 13 19
f 13 19 85
f 85 79 13
f 15 14 20
f 19 20 14
f 16 15 21
f 20 21 15
f 17 16 22
f 21 22 16
f 18 17 23
f 22 23 17
f 23 24 18
f 24 18 90
f 18 84 90
f 20 19 25
f 19 25 91
f 91 85 19
f 21 20 26
f 25 26 20
f 22 21 27
f 26 27 21
f 23 22 28
f 27 28 22
f 24 23 29
f 28 29 23
f 29 30 24
f 30 24 96
f 24 90 96
f 26 25 31
f 25 31 97
f 97 91 25
f 27 26 32
f 31 32 26
f 28 27 33
f 32 33 27
f 29 28 34
f 33 34 28
f 30 29 35
f 34 35 29
f 35 36 30
f 36 30 102
f 30 96 102
f 32 31 37
f 31 37 103
f 103 97 31
f 33 32 38
f 37 38 32
f 34 33 39
f 38 39 33
f 35 34 40
f 39 40 34
f 36 35 41
f 40 41 35
f 41 42 36
f 42 36 108
f 36 102 108
f 38 37 43
f 37 43 109
f 109 103 37
f 39 38 44
f 43 44 38
f 40 39 45
f 44 45 39
f 41 40 46
f 45 46 40
f 42 41 47
f 46 47 41
f 47 48 42
f 48 42 114
f 42 108 114
f 44 43 49
f 43 49 115
f 115 109 43
f 45 44 50
f 49 50 44
f 46 45 51
f 50 51 45
f 47 46 52
f 51 52 46
f 48 47 53
f 52 53 47
f 53 54 48
f 54 48 120
f 48 114 120
f 50 49 55
f 49 55 121
f 121 115 49
f 51 50 56
f 55 56 50
f 52 51 57
f 56 57 51
f 53 52 58
f 57 58 52
f 54 53 59
f 58 59 53
f 59 60 54
f 60 54 126
f 54 120 126
f 56 55 61
f 55 61 127
f 127 121 55
f 57 56 62
f 61 62 56
f 58 57 63
f 62 63 57
f 59 58 64
f 63 64 58
f 60 59 65
f 64 65 59
f 65 66 60
f 66 60 132
f 60 126 132
f 127 61 62
f 128 62 63
f 128 127 62
f 129 63 64
f 129 128 63
f 130 64 65
f 130 129 64
f 131 65 66
f 131 130 65
f 132 131 66
f 133 67 68
f 67 73 139
f 139 133 67
f 134 68 69
f 133 68 134
f 135 69 70
f 134 69 135
f 136 70 71
f 135 70 136
f 137 71 72
f 136 71 137
f 78 72 144
f 137 72 138
f 72 138 144
f 73 79 145
f 145 139 73
f 84 78 150
f 78 144 150
f 79 85 151
f 151 145 79
f 90 84 156
f 84 150 156
f 85 91 157
f 157 151 85
f 96 90 162
f 90 156 162
f 91 97 163
f 163 157 91
f 102 96 168
f 96 162 168
f 97 103 169
f 169 163 97
f 108 102 174
f 102 168 174
f 103 109 175
f 175 169 103
f 114 108 180
f 108 174 180
f 109 115 181
f 181 175 109
f 120 114 186
f 114 180 186
f 115 121 187
f 187 181 115
f 126 120 192
f 120 186 192
f 121 127 193
f 193 187 121
f 132 126 198
f 126 192 198
f 193 127 128
f 194 128 129
f 194 193 128
f 195 129 130
f 195 194 129
f 196 130 131
f 196 195 130
f 197 131 132
f 197 196 131
f 198 197 132
f 199 133 134
f 133 139 205
f 205 199 133
f 200 134 135
f 199 134 200
f 201 135 136
f 200 135 201
f 202 136 137
f 201 136 202
f 203 137 138
f 202 137 203
f 144 138 210
f 203 138 204
f 138 204 210
f 139 145 211
f 211 205 139
f 150 144 216
f 144 210 216
f 145 151 217
f 217 211 145
f 156 150 222
f 150 216 222
f 151 157 223
f 223 217 151
f 162 156 228
f 156 222 228
f 157 163 229
f 229 223 157
f 168 162 234
f 162 228 234
f 163 169 235
f 235 229 163
f 174 168 240
f 168 234 240
f 169 175 241
f 241 235 169
f 180 174 246
f 174 240 246
f 175 181 247
f 247 241 175
f 186 180 252
f 180 246 252
f 181 187 253
f 253 247 181
f 192 186 258
f 186 252 258
f 187 193 259
f 259 253 187
f 198 192 264
f 192 258 264
f 259 193 194
f 260 194 195
f 260 259 194
f 261 195 196
f 261 260 195
f 262 196 197
f 262 261 196
f 263 197 198
f 263 262 197
f 264 263 198
f 265 199 200
f 199 205 271
f 271 265 199
f 266 200 201
f 265 200 266
f 267 201 202
f 266 201 267
f 268 202 203
f 267 202 268
f 269 203 204
f 268 203 269
f 210 204 276
f 269 204 270
f 204 270 276
f 205 211 277
f 277 271 205
f 216 210 282
f 210 276 282
f 211 217 283
f 283 277 211
f 222 216 288
f 216 282 288
f 217 223 289
f 289 283 217
f 228 222 294
f 222 288 294
f 223 229 295
f 295 289 223
f 234 228 300
f 228 294 300
f 229 235 301
f 301 295 229
f 240 234 306
f 234 300 306
f 235 241 307
f 307 301 235
f 246 240 312
f 240 306 312
f 241 247 313
f 313 307 241
f 252 246 318
f 246 312 318
f 247 253 319
f 319 313 247
f 258 252 324
f 252 318 324
f 253 259 325
f 325 319 253
f 264 258 330
f 258 324 330
f 325 259 260
f 326 260 261
f 326 325 260
f 327 261 262
f 327 326 261
f 328 262 263
f 328 327 262
f 329 263 264
f 329 328 263
f 330 329 264
f 331 265 266
f 265 271 337
f 337 331 265
f 332 266 267
f 331 266 332
f 333 267 268
f 332 267 333
f 334 268 269
f 333 268 334
f 335 269 270
f 334 269 335
f 276 270 342
f 335 270 336
f 270 336 342
f 271 277 343
f 343 337 271
f 282 276 348
f 276 342 348
f 277 283 349
f 349 343 277
f 288 282 354
f 282 348 354
f 283 289 355
f 355 349 283
f 294 288 360
f 288 354 360
f 289 295 361
f 361 355 289
f 300 294 366
f 294 360 366
f 295 301 367
f 367 361 295
f 306 300 372
f 300 366 372
f 301 307 373
f 373 367 301
f 312 306 378
f 306 372 378
f 307 313 379
f 379 373 307
f 318 312 384
f 312 378 384
f 313 319 385
f 385 379 313
f 324 318 390
f 318 384 390
f 319 325 391
f 391 385 319
f 330 324 396
f 324 390 396
f 391 325 326
f 392 326 327
f 392 391 326
f 393 327 328
f 393 392 327
f 394 328 329
f 394 393 328
f 395 329 330
f 395 394 329
f 396 395 330
f 397 331 332
f 331 337 403
f 403 397 331
f 398 332 333
f 397 332 398
f 399 333 334
f 398 333 399
f 400 334 335
f 399 334 400
f 401 335 336
f 400 335 401
f 342 336 408
f 401 336 402
f 336 402 408
f 337 343 409
f 409 403 337
f 348 342 414
f 342 408 414
f 343 349 415
f 415 409 343
f 354 348 420
f 348 414 420
f 349 355 421
f 421 415 349
f 360 354 426
f 354 420 426
f 355 361 427
f 427 421 355
f 366 360 432
f 360 426 432
f 361 367 433
f 433 427 361
f 372 366 438
f 366 432 438
f 367 373 439
f 439 433 367
f 378 372 444
f 372 438 444
f 373 379 445
f 445 439 373
f 384 378 450
f 378 444 450
f 379 385 451
f 451 445 379
f 390 384 456
f 384 450 456
f 385 391 457
f 457 451 385
f 396 390 462
f 390 456 462
f 457 391 392
f 458 392 393
f 458 457 392
f 459 393 394
f 459 458 393
f 460 394 395
f 460 459 394
f 461 395 396
f 461 460 395
f 462 461 396
f 463 397 398
f 397 403 469
f 469 463 397
f 464 398 399
f 463 398 464
f 465 399 400
f 464 399 465
f 466 400 401
f 465 400 466
f 467 401 402
f 466 401 467
f 408 402 474
f 467 402 468
f 402 468 474
f 403 409 475
f 475 469 403
f 414 408 480
f 408 474 480
f 409 415 481
f 481 475 409
f 420 414 486
f 414 480 486
f 415 421 487
f 487 481 415
f 426 420 492
f 420 486 492
f 421 427 493
f 493 487 421
f 432 426 498
f 426 492 498
f 427 433 499
f 499 493 427
f 438 432 504
f 432 498 504
f 433 439 505
f 505 499 433
f 444 438 510
f 438 504 510
f 439 445 511
f 511 505 439
f 450 444 516
f 444 510 516
f 445 451 517
f 517 511 445
f 456 450 522
f 450 516 522
f 451 457 523
f 523 517 451
f 462 456 528
f 456 522 528
f 523 457 458
f 524 458 459
f 524 523 458
f 525 459 460
f 525 524 459
f 526 460 461
f 526 525 460
f 527 461 462
f 527 526 461
f 528 527 462
f 529 463 464
f 463 469 535
f 535 529 463
f 530 464 465
f 529 464 530
f 531 465 466
f 530 465 531
f 532 466 467
f 531 466 532
f 533 467 468
f 532 467 533
f 474 468 540
f 533 468 534
f 468 534 540
f 469 475 541
f 541 535 469
f 480 474 546
f 474 540 546
f 475 481 547
f 547 541 475
f 486 480 552
f 480 546 552
f 481 487 553
f 553 547 481
f 492 486 558
f 486 552 558
f 487 493 559
f 559 553 487
f 498 492 564
f 492 558 564
f 493 499 565
f 565 559 493
f 504 498 570
f 498 564 570
f 499 505 571
f 571 565 499
f 510 504 576
f 504 570 576
f 505 511 577
f 577 571 505
f 516 510 582
f 510 576 582
f 511 517 583
f 583 577 511
f 522 516 588
f 516 582 588
f 517 523 589
f 589 583 517
f 528 522 594
f 522 588 594
f 589 523 524
f 590 524 525
f 590 589 524
f 591 525 526
f 591 590 525
f 592 526 527
f 592 591 526
f 593 527 528
f 593 592 527
f 594 593 528
f 530 535 529
f 531 536 530
f 530 536 535
f 532 537 531
f 531 537 536
f 533 538 532
f 532 538 537
f 534 539 533
f 533 539 538
f 534 540 539
f 536 541 535
f 537 542 536
f 536 542 541
f 538 543 537
f 537 543 542
f 539 544 538
f 538 544 543
f 540 545 539
f 539 545 544
f 540 546 545
f 542 547 541
f 543 548 542
f 542 548 547
f 544 549 543
f 543 549 548
f 545 550 544
f 544 550 549
f 546 551 545
f 545 551 550
f 546 552 551
f 548 553 547
f 549 554 548
f 548 554 553
f 550 555 549
f 549 555 554
f 551 556 550
f 550 556 555
f 552 557 551
f 551 557 556
f 552 558 557
f 554 559 553
f 555 560 554
f 554 560 559
f 556 561 555
f 555 561 560
f 557 562 556
f 556 562 561
f 558 563 557
f 557 563 562
f 558 564 563
f 560 565 559
f 561 566 560
f 560 566 565
f 562 567 561
f 561 567 566
f 563 568 562
f 562 568 567
f 564 569 563
f 563 569 568
f 564 570 569
f 566 571 565
f 567 572 566
f 566 572 571
f 568 573 567
f 567 573 572
f 569 574 568
f 568 574 573
f 570 575 569
f 569 575 574
f 570 576 575
f 572 577 571
f 573 578 572
f 572 578 577
f 574 579 573
f 573 579 578
f 575 580 574
f 574 580 579
f 576 581 575
f 575 581 580
f 576 582 581
f 578 583 577
f 579 584 578
f 578 584 583
f 580 585 579
f 579 585 584
f 581 586 580
f 580 586 585
f 582 587 581
f 581 587 586
f 582 588 587
f 584 589 583
f 585 590 584
f 584 590 589
f 586 591 585
f 585 591 590
f 587 592 586
f 586 592 591
f 588 593 587
f 587 593 592
f 588 594 593
