v 0.35 0.5 0
v 0.35 0.533333333333333 0
v 0.35 0.566666666666666 0
v 0.350000000000001 0.599999999999999 0
v 0.350000000000001 0.633333333333332 0
v 0.350000000000001 0.666666666666666 0
v 0.350000000000002 0.699999999999999 0
v 0.350000000000002 0.733333333333332 0
v 0.350000000000002 0.766666666666665 0
v 0.350000000000002 0.799999999999998 0
v 0.350000000000001 0.833333333333331 0
v 0.350000000000001 0.866666666666664 0
v 0.35 0.899999999999998 0
v 0.349999999999999 0.933333333333331 0
v 0.349999999999999 0.966666666666665 0
v 0.35 1 0
v 0.38 0.5 0
v 0.38 0.533333333333333 0
v 0.38 0.566666666666666 0
v 0.380000000000001 0.599999999999999 0
v 0.380000000000001 0.633333333333332 0
v 0.380000000000001 0.666666666666666 0
v 0.380000000000002 0.699999999999999 0
v 0.380000000000002 0.733333333333333 0
v 0.380000000000002 0.766666666666665 0
v 0.380000000000002 0.799999999999999 0
v 0.380000000000001 0.833333333333331 0
v 0.380000000000001 0.866666666666665 0
v 0.38 0.899999999999998 0
v 0.38 0.933333333333331 0
v 0.38 0.966666666666665 0
v 0.38 1 0
v 0.41 0.5 0
v 0.41 0.533333333333333 0
v 0.410000000000001 0.566666666666666 0
v 0.410000000000001 0.599999999999999 0
v 0.410000000000001 0.633333333333333 0
v 0.410000000000002 0.666666666666666 0
v 0.410000000000002 0.7 0
v 0.410000000000002 0.733333333333333 0
v 0.410000000000002 0.766666666666666 0
v 0.410000000000002 0.799999999999999 0
v 0.410000000000001 0.833333333333332 0
v 0.410000000000001 0.866666666666666 0
v 0.41 0.899999999999999 0
v 0.409999999999999 0.933333333333332 0
v 0.41 0.966666666666666 0
v 0.41 1 0
v 0.44 0.5 0
v 0.44 0.533333333333333 0
v 0.440000000000001 0.566666666666667 0
v 0.440000000000001 0.6 0
v 0.440000000000002 0.633333333333333 0
v 0.440000000000002 0.666666666666667 0
v 0.440000000000002 0.7 0
v 0.440000000000002 0.733333333333334 0
v 0.440000000000002 0.766666666666667 0
v 0.440000000000002 0.8 0
v 0.440000000000002 0.833333333333333 0
v 0.440000000000001 0.866666666666667 0
v 0.44 0.899999999999999 0
v 0.44 0.933333333333333 0
v 0.44 0.966666666666666 0
v 0.44 1 0
v 0.47 0.5 0
v 0.47 0.533333333333334 0
v 0.470000000000001 0.566666666666667 0
v 0.470000000000002 0.600000000000001 0
v 0.470000000000002 0.633333333333334 0
v 0.470000000000002 0.666666666666667 0
v 0.470000000000002 0.700000000000001 0
v 0.470000000000003 0.733333333333334 0
v 0.470000000000003 0.766666666666668 0
v 0.470000000000002 0.800000000000001 0
v 0.470000000000002 0.833333333333334 0
v 0.470000000000002 0.866666666666668 0
v 0.470000000000001 0.9 0
v 0.47 0.933333333333333 0
v 0.47 0.966666666666666 0
v 0.47 1 0
v 0.5 0.5 0
v 0.500000000000001 0.533333333333334 0
v 0.500000000000001 0.566666666666667 0
v 0.500000000000002 0.600000000000001 0
v 0.500000000000002 0.633333333333334 0
v 0.500000000000003 0.666666666666668 0
v 0.500000000000003 0.700000000000002 0
v 0.500000000000003 0.733333333333335 0
v 0.500000000000003 0.766666666666669 0
v 0.500000000000003 0.800000000000002 0
v 0.500000000000002 0.833333333333335 0
v 0.500000000000002 0.866666666666668 0
v 0.500000000000001 0.900000000000001 0
v 0.5 0.933333333333333 0
v 0.5 0.966666666666667 0
v 0.5 1 0
v 0.53 0.5 0
v 0.530000000000001 0.533333333333334 0
v 0.530000000000001 0.566666666666667 0
v 0.530000000000002 0.600000000000001 0
v 0.530000000000002 0.633333333333335 0
v 0.530000000000003 0.666666666666669 0
v 0.530000000000003 0.700000000000002 0
v 0.530000000000003 0.733333333333336 0
v 0.530000000000003 0.766666666666669 0
v 0.530000000000003 0.800000000000002 0
v 0.530000000000003 0.833333333333336 0
v 0.530000000000002 0.866666666666669 0
v 0.530000000000001 0.900000000000001 0
v 0.53 0.933333333333334 0
v 0.53 0.966666666666667 0
v 0.53 1 0
v 0.56 0.5 0
v 0.560000000000001 0.533333333333334 0
v 0.560000000000001 0.566666666666668 0
v 0.560000000000002 0.600000000000001 0
v 0.560000000000002 0.633333333333335 0
v 0.560000000000003 0.666666666666668 0
v 0.560000000000003 0.700000000000002 0
v 0.560000000000003 0.733333333333336 0
v 0.560000000000003 0.766666666666669 0
v 0.560000000000003 0.800000000000003 0
v 0.560000000000003 0.833333333333335 0
v 0.560000000000002 0.866666666666669 0
v 0.560000000000001 0.900000000000002 0
v 0.560000000000001 0.933333333333334 0
v 0.56 0.966666666666667 0
v 0.56 1 0
v 0.59 0.5 0
v 0.59 0.533333333333333 0
v 0.590000000000001 0.566666666666667 0
v 0.590000000000002 0.600000000000001 0
v 0.590000000000002 0.633333333333334 0
v 0.590000000000002 0.666666666666668 0
v 0.590000000000003 0.700000000000002 0
v 0.590000000000003 0.733333333333335 0
v 0.590000000000003 0.766666666666669 0
v 0.590000000000003 0.800000000000002 0
v 0.590000000000003 0.833333333333335 0
v 0.590000000000002 0.866666666666669 0
v 0.590000000000002 0.900000000000002 0
v 0.590000000000001 0.933333333333334 0
v 0.59 0.966666666666667 0
v 0.59 1 0
v 0.62 0.5 0
v 0.62 0.533333333333333 0
v 0.620000000000001 0.566666666666667 0
v 0.620000000000001 0.6 0
v 0.620000000000002 0.633333333333334 0
v 0.620000000000002 0.666666666666668 0
v 0.620000000000003 0.700000000000001 0
v 0.620000000000003 0.733333333333335 0
v 0.620000000000003 0.766666666666668 0
v 0.620000000000003 0.800000000000002 0
v 0.620000000000003 0.833333333333335 0
v 0.620000000000002 0.866666666666669 0
v 0.620000000000002 0.900000000000002 0
v 0.620000000000001 0.933333333333334 0
v 0.62 0.966666666666667 0
v 0.62 1 0
v 0.65 0.5 0
v 0.65 0.533333333333333 0
v 0.650000000000001 0.566666666666666 0
v 0.650000000000001 0.6 0
v 0.650000000000002 0.633333333333333 0
v 0.650000000000002 0.666666666666667 0
v 0.650000000000003 0.700000000000001 0
v 0.650000000000003 0.733333333333334 0
v 0.650000000000003 0.766666666666668 0
v 0.650000000000003 0.800000000000002 0
v 0.650000000000002 0.833333333333335 0
v 0.650000000000002 0.866666666666668 0
v 0.650000000000001 0.900000000000002 0
v 0.650000000000001 0.933333333333334 0
v 0.65 0.966666666666667 0
v 0.65 1 0
f 1 17 2
f 17 18 2
f 2 18 19
f 2 19 3
f 3 19 4
f 19 20 4
f 4 20 21
f 4 21 5
f 5 21 6
f 21 22 6
f 6 22 23
f 6 23 7
f 7 23 8
f 23 24 8
f 8 24 25
f 8 25 9
f 9 25 10
f 25 26 10
f 10 26 27
f 10 27 11
f 11 27 12
f 27 28 12
f 12 28 29
f 12 29 13
f 13 29 14
f 29 30 14
f 14 30 31
f 14 31 15
f 15 31 16
f 31 32 16
f 17 33 34
f 17 34 18
f 18 34 19
f 34 35 19
f 19 35 36
f 19 36 20
f 20 36 21
f 36 37 21
f 21 37 38
f 21 38 22
f 22 38 23
f 38 39 23
f 23 39 40
f 23 40 24
f 24 40 25
f 40 41 25
f 25 41 42
f 25 42 26
f 26 42 27
f 42 43 27
f 27 43 44
f 27 44 28
f 28 44 29
f 44 45 29
f 29 45 46
f 29 46 30
f 30 46 31
f 46 47 31
f 31 47 48
f 31 48 32
f 33 49 34
f 49 50 34
f 34 50 51
f 34 51 35
f 35 51 36
f 51 52 36
f 36 52 53
f 36 53 37
f 37 53 38
f 53 54 38
f 38 54 55
f 38 55 39
f 39 55 40
f 55 56 40
f 40 56 57
f 40 57 41
f 41 57 42
f 57 58 42
f 42 58 59
f 42 59 43
f 43 59 44
f 59 60 44
f 44 60 61
f 44 61 45
f 45 61 46
f 61 62 46
f 46 62 63
f 46 63 47
f 47 63 48
f 63 64 48
f 49 65 66
f 49 66 50
f 50 66 51
f 66 67 51
f 51 67 68
f 51 68 52
f 52 68 53
f 68 69 53
f 53 69 70
f 53 70 54
f 54 70 55
f 70 71 55
f 55 71 72
f 55 72 56
f 56 72 57
f 72 73 57
f 57 73 74
f 57 74 58
f 58 74 59
f 74 75 59
f 59 75 76
f 59 76 60
f 60 76 61
f 76 77 61
f 61 77 78
f 61 78 62
f 62 78 63
f 78 79 63
f 63 79 80
f 63 80 64
f 65 81 66
f 81 82 66
f 66 82 83
f 66 83 67
f 67 83 68
f 83 84 68
f 68 84 85
f 68 85 69
f 69 85 70
f 85 86 70
f 70 86 87
f 70 87 71
f 71 87 72
f 87 88 72
f 72 88 89
f 72 89 73
f 73 89 74
f 89 90 74
f 74 90 91
f 74 91 75
f 75 91 76
f 91 92 76
f 76 92 93
f 76 93 77
f 77 93 78
f 93 94 78
f 78 94 95
f 78 95 79
f 79 95 80
f 95 96 80
f 81 97 98
f 81 98 82
f 82 98 83
f 98 99 83
f 83 99 100
f 83 100 84
f 84 100 85
f 100 101 85
f 85 101 102
f 85 102 86
f 86 102 87
f 102 103 87
f 87 103 104
f 87 104 88
f 88 104 89
f 104 105 89
f 89 105 106
f 89 106 90
f 90 106 91
f 106 107 91
f 91 107 108
f 91 108 92
f 92 108 93
f 108 109 93
f 93 109 110
f 93 110 94
f 94 110 95
f 110 111 95
f 95 111 112
f 95 112 96
f 97 113 98
f 113 114 98
f 98 114 115
f 98 115 99
f 99 115 100
f 115 116 100
f 100 116 117
f 100 117 101
f 101 117 102
f 117 118 102
f 102 118 119
f 102 119 103
f 103 119 104
f 119 120 104
f 104 120 121
f 104 121 105
f 105 121 106
f 121 122 106
f 106 122 123
f 106 123 107
f 107 123 108
f 123 124 108
f 108 124 125
f 108 125 109
f 109 125 110
f 125 126 110
f 110 126 127
f 110 127 111
f 111 127 112
f 127 128 112
f 113 129 130
f 113 130 114
f 114 130 115
f 130 131 115
f 115 131 132
f 115 132 116
f 116 132 117
f 132 133 117
f 117 133 134
f 117 134 118
f 118 134 119
f 134 135 119
f 119 135 136
f 119 136 120
f 120 136 121
f 136 137 121
f 121 137 138
f 121 138 122
f 122 138 123
f 138 139 123
f 123 139 140
f 123 140 124
f 124 140 125
f 140 141 125
f 125 141 142
f 125 142 126
f 126 142 127
f 142 143 127
f 127 143 144
f 127 144 128
f 129 145 130
f 145 146 130
f 130 146 147
f 130 147 131
f 131 147 132
f 147 148 132
f 132 148 149
f 132 149 133
f 133 149 134
f 149 150 134
f 134 150 151
f 134 151 135
f 135 151 136
f 151 152 136
f 136 152 153
f 136 153 137
f 137 153 138
f 153 154 138
f 138 154 155
f 138 155 139
f 139 155 140
f 155 156 140
f 140 156 157
f 140 157 141
f 141 157 142
f 157 158 142
f 142 158 159
f 142 159 143
f 143 159 144
f 159 160 144
f 145 161 162
f 145 162 146
f 146 162 147
f 162 163 147
f 147 163 164
f 147 164 148
f 148 164 149
f 164 165 149
f 149 165 166
f 149 166 150
f 150 166 151
f 166 167 151
f 151 167 168
f 151 168 152
f 152 168 153
f 168 169 153
f 153 169 170
f 153 170 154
f 154 170 155
f 170 171 155
f 155 171 172
f 155 172 156
f 156 172 157
f 172 173 157
f 157 173 174
f 157 174 158
f 158 174 159
f 174 175 159
f 159 175 176
f 159 176 160
